g Mesh1
# Vertex Positions: 40
v 1 3.5 1.285714
v 1 3.5 -3
v 1 6.5 -7.285715
v 1 6.5 -3
v -1 3.5 -3
v -1 3.5 1.285714
v -1 6.5 -3
v -1 6.5 -7.285715
v 1 7 -3.714286
v 1 7 -8
v 1 10 -8
v -1 7 -3.714286
v -1 7 -8
v -1 10 -8
v 1 3 -2.285715
v 1 2.999999 2.000001
v 1 -9.536743E-07 2.000001
v -1 3 -2.285715
v -1 2.999999 2.000001
v -1 -9.536743E-07 2.000001
v 1 7 -10
v 1 7.9 -10
v 1 7 -8.714286
v -1 7 -10
v -1 7 -8.714286
v -1 7.9 -10
v 1 8.400001 -10
v 1 10 -10
v -1 8.400001 -10
v -1 10 -10
v 1 3 2.714286
v 1 3 4
v 1 2.100001 4
v -1 3 2.714286
v -1 2.100001 4
v -1 3 4
v 1 1.6 4
v 1 1.007602E-08 4
v -1 1.6 4
v -1 1.007602E-08 4
# Vertex UVs: 50
vt -0.1428572 1.75
vt 2 1.75
vt 4.142858 3.25
vt 2 3.25
vt -1 1.75
vt 1.142857 1.75
vt -1.000001 3.250001
vt -3.142858 3.250001
vt 2.357143 3.5
vt 4.5 3.5
vt 4.5 5
vt -1.357144 3.500001
vt -3.500001 3.500001
vt -3.500001 5.000002
vt 1.642857 1.5
vt -0.5000005 1.5
vt -0.5000005 -4.768372E-07
vt -0.6428577 1.5
vt 1.5 1.5
vt 1.500001 -4.768373E-07
vt 4.5 0
vt 4.5 0.45
vt 3.857143 0
vt -3.5 0
vt -2.857143 0
vt -3.5 0.45
vt 1 0
vt 1 0.45
vt 0 0.45
vt 0 0
vt 4.5 0.7000003
vt 3.5 0
vt 4.5 1.5
vt 3.5 1.5
vt -2.5 0
vt -3.5 0.7000003
vt -3.5 1.5
vt -2.5 1.5
vt 1 0.7000003
vt 0 0.7000003
vt 1 1.5
vt 0 1.5
vt 0.1428569 1.5
vt -0.5 1.05
vt 0.8571424 1.5
vt 1.5 1.05
vt 0.4999999 1.5
vt -0.5 0.8
vt 0.4999998 -1.490116E-07
vt 1.5 0.8
# Vertex Normals: 3
vn -1 0 0
vn 1 0 0
vn 0 0 1
# Faces: 25
f 4/4/1 3/3/1 2/2/1 1/1/1 
f 8/8/2 7/7/2 6/6/2 5/5/2 
f 10/10/1 3/3/1 4/4/1 9/9/1 
f 11/11/1 10/10/1 9/9/1 
f 13/13/2 12/12/2 7/7/2 8/8/2 
f 13/13/2 14/14/2 12/12/2 
f 16/16/1 1/1/1 2/2/1 15/15/1 
f 17/17/1 16/16/1 15/15/1 
f 5/5/2 6/6/2 19/19/2 18/18/2 
f 19/19/2 20/20/2 18/18/2 
f 23/23/1 22/22/1 21/21/1 
f 26/26/2 25/25/2 24/24/2 
f 21/30/3 22/29/3 26/28/3 24/27/3 
f 10/32/1 27/31/1 22/22/1 23/23/1 
f 10/32/1 11/34/1 28/33/1 27/31/1 
f 29/36/2 13/35/2 25/25/2 26/26/2 
f 14/38/2 13/35/2 29/36/2 30/37/2 
f 22/29/3 27/40/3 29/39/3 26/28/3 
f 27/40/3 28/42/3 30/41/3 29/39/3 
f 33/44/1 32/16/1 31/43/1 
f 36/19/2 35/46/2 34/45/2 
f 37/48/1 33/44/1 31/43/1 16/47/1 
f 38/17/1 37/48/1 16/47/1 17/49/1 
f 19/47/2 34/45/2 35/46/2 39/50/2 
f 20/49/2 19/47/2 39/50/2 40/20/2 


g Mesh2
# Vertex Positions: 0
# Vertex UVs: 30
vt 7.827857E-08 -1.470223
vt 2.528006E-07 -4.016129
vt 1 -4.016127
vt 1 -1.470222
vt -0.07568252 2.92219E-08
vt 2.470223 1.532818E-07
vt 2.470223 1
vt -0.07568249 1
vt 1.565571E-07 -4.440445
vt 1 -4.440444
vt 2.89454 2.142432E-07
vt 2.89454 1
vt 5.440445 3.065635E-07
vt 5.440445 1
vt 1.64756E-07 -1.045906
vt 1 -1.045904
vt -0.5000006 1
vt 0 -2.857143
vt 0 -3.5
vt 1 -3.5
vt 1 -2.857143
vt 0 -2.5
vt 1 -2.5
vt 4.5 1
vt 3.5 1
vt 0.1428569 1
vt 0.1428568 0
vt 0.4999999 1
vt 1.490116E-07 0.5000003
vt 1 0.5000004
# Vertex Normals: 4
vn 0 0.819232 0.5734624
vn 0 -0.819232 -0.5734624
vn 0 1 0
vn 0 -1 0
# Faces: 14
f 2/54/4 3/53/4 8/52/4 5/51/4 
f 6/58/5 7/57/5 4/56/5 1/55/5 
f 3/53/4 10/60/4 13/59/4 8/52/4 
f 7/57/5 12/62/5 9/61/5 4/56/5 
f 12/62/5 14/64/5 11/63/5 9/61/5 
f 15/66/4 2/54/4 5/51/4 18/65/4 
f 17/41/4 15/66/4 18/65/4 20/42/4 
f 19/67/5 6/58/5 1/55/5 16/17/5 
f 23/71/6 21/70/6 24/69/6 25/68/6 
f 10/73/6 23/71/6 25/68/6 13/72/6 
f 14/75/7 30/74/7 28/21/7 11/32/7 
f 31/77/7 32/17/7 36/67/7 34/76/7 
f 34/76/7 19/78/7 16/49/7 31/77/7 
f 38/41/6 17/80/6 20/79/6 40/42/6 


g Mesh3
# Vertex Positions: 28
v 1.5 3 4
v 1 3.5 4
v 1.5 3.5 4
v 1.5 2.100001 4
v -1.5 3 4
v -1.5 3.5 4
v -1 3.5 4
v -1.5 2.100001 4
v 1.5 1.6 4
v 1.5 1.007602E-08 4
v 1.5 -0.5 4
v 1 -0.5 4
v -1.5 1.6 4
v -1 -0.5 4
v -1.5 -0.5 4
v -1.5 1.007602E-08 4
v 1.5 -0.5 2
v 1.5 3.5 2
v -1.5 -0.5 2
v -1.5 3.5 2
v 1.5 6.5 -11
v 1.5 6.5 -8
v 1.5 10.5 -8
v 1.5 10.5 -11
v -1.5 6.5 -8
v -1.5 6.5 -11
v -1.5 10.5 -11
v -1.5 10.5 -8
# Vertex UVs: 35
vt 1 1
vt 0.75 1
vt 0.75 1.25
vt 1 1.25
vt 1 0.5500004
vt 0.75 0.5500004
vt -0.25 1
vt -0.5 1.25
vt -0.25 1.25
vt -0.25 0.5500004
vt -0.5 0.5500004
vt 0.75 0.2999999
vt 1 0.2999999
vt 0.75 -0.5
vt 1 -0.5
vt 1 -0.75
vt 0.75 -0.75
vt -0.25 0.2999999
vt -0.5 0.2999999
vt -0.25 -0.5
vt -0.25 -0.75
vt -0.4999999 -0.75
vt -0.4999999 -0.5
vt 0 -0.75
vt 0 1.25
vt 1.5 -0.75
vt 1.5 1.25
vt -4.000001 -4.25
vt -4 -2.25
vt 5 -4.25
vt 5 -2.25
vt -0.4999987 6.021373
vt 1.000001 6.021373
vt -5.021377 8.321095E-07
vt -5.021374 1.5
# Vertex Normals: 1
vn 0 0 -1
# Faces: 25
f 43/84/3 42/83/3 32/82/3 41/81/3 
f 32/82/3 33/86/3 44/85/3 41/81/3 
f 47/89/3 46/88/3 45/67/3 36/87/3 
f 45/67/3 48/91/3 35/90/3 36/87/3 
f 42/83/3 47/89/3 36/87/3 32/82/3 
f 49/93/3 44/85/3 33/86/3 37/92/3 
f 52/97/3 51/96/3 50/95/3 38/94/3 
f 50/95/3 49/93/3 37/92/3 38/94/3 
f 48/91/3 53/99/3 39/98/3 35/90/3 
f 56/103/3 55/102/3 54/101/3 40/100/3 
f 53/99/3 56/103/3 40/100/3 39/98/3 
f 54/101/3 52/97/3 38/94/3 40/100/3 
f 58/84/2 43/105/2 51/104/2 57/96/2 
f 46/84/1 60/105/1 59/104/1 55/96/1 
f 51/81/7 55/67/7 59/17/7 57/27/7 
f 60/41/6 46/42/6 43/30/6 58/27/6 
f 64/84/2 63/88/2 62/102/2 61/96/2 
f 68/107/1 67/105/1 66/104/1 65/106/1 
f 67/107/8 64/105/8 61/104/8 66/106/8 
f 62/41/7 65/16/7 66/17/7 61/27/7 
f 67/41/6 68/16/6 63/17/6 64/27/6 
f 63/84/2 58/109/2 57/108/2 62/96/2 
f 60/111/1 68/105/1 65/104/1 59/110/1 
f 57/113/5 59/112/5 65/17/5 62/27/5 
f 68/41/4 60/115/4 58/114/4 63/27/4 


