g Mesh1
# Vertex Positions: 394
v -5.974999 22 6
v -6 22 6
v -6 22 2
v -5.974995 22 2
v 6 22 2
v 6 22 6
v -5.975001 11.5 8
v -5.975001 9 8
v -6 9 8
v -6 11.5 8
v -0.6666664 11.5 8
v -4 9 8
v -5.975001 20.5 8
v -5.975001 13.5 8
v -6 13.5 8
v -6 20.5 8
v 6 20.5 8
v 6 16.5 8
v 2 13.5 8
v -6 22 7.749999
v -5.975 22 7.749999
v -6 22 8
v -5.975001 22 8
v 6 22 7.75
v 8 20.5 2
v 8 18 2
v 8 18 6
v 8 20.5 6
v 6.025002 22 6
v 6.025006 22 2
v 8 22 2
v 8 22 6
v -5.975001 8.5 8
v -6 8.5 8
v -4.666666 8.5 8
v -5.975001 7.518749 8
v -6 7.5 8
v -7 22 6
v -7 22 2
v -7.5 22 6
v -7.5 22 2
v -8 11.5 6
v -8 9 6
v -8 9 2
v -8 11.5 2
v -8 20.5 6
v -8 13.5 6
v -8 13.5 2
v -8 20.5 2
v -8 22 6
v -8 22 2
v -8 8.5 6
v -8 8.5 2
v -8 6 6
v -8 6 2
v -5.974999 0 6
v -5.974995 0 2
v -6 0 2
v -6 0 6
v 6 0 6
v 6 0 2
v -5.975 0 7.749999
v -6 0 7.749999
v -6 6 8
v -5.975001 6 8
v -5.975001 0 8
v -6 0 8
v 6 0 7.75
v 6 6 8
v 6 0 8
v 8 6 6
v 8 6 2
v 8 0 2
v 8 0 6
v 6.025002 0 6
v 6.025006 0 2
v 6 11.5 8
v 6 9 8
v 6 13.5 8
v 8 11.5 6
v 8 11.5 2
v 8 9 2
v 8 9 6
v 8 13.5 6
v 8 13.5 2
v 6 8.5 8
v 8 8.5 2
v 8 8.5 6
v -7 0 2
v -7 0 6
v -7.5 0 2
v -7.5 0 6
v -8 0 6
v -8 0 2
v -6 22 -6
v -5.974988 22 -6
v -5.974991 22 -2
v -6 22 -2
v 6 22 -6
v 6 22 -2
v 8 20.5 -6
v 8 18 -6
v 8 18 -2
v 8 20.5 -2
v 6.025014 22 -6
v 8 22 -6
v 8 22 -2
v 6.02501 22 -2
v -7 22 -6
v -7 22 -2
v -7.5 22 -6
v -7.5 22 -2
v -8 11.5 -2
v -8 9 -2
v -8 9 -6
v -8 11.5 -6
v -8 20.5 -2
v -8 13.5 -2
v -8 13.5 -6
v -8 20.5 -6
v -8 22 -2
v -8 22 -6
v -8 8.5 -2
v -8 8.5 -6
v -8 6 -2
v -8 6 -6
v -5.974986 11.5 -8
v -6 11.5 -8
v -6 9 -8
v -5.974986 9 -8
v -4 9 -8
v -0.6666664 11.5 -8
v -5.974986 20.5 -8
v -6 20.5 -8
v -6 13.5 -8
v -5.974986 13.5 -8
v 2 13.5 -8
v 6 16.5 -8
v 6 20.5 -8
v -6 22 -7.750002
v -5.974986 22 -7.750002
v -5.974986 22 -8
v -6 22 -8
v 6 22 -7.75
v -6 8.5 -8
v -5.974986 8.5 -8
v -4.666666 8.5 -8
v -6 7.5 -8
v -5.974986 7.51876 -8
v -6 0 -2
v -5.974991 0 -2
v -5.974988 0 -6
v -6 0 -6
v 6 0 -2
v 6 0 -6
v 8 6 -6
v 8 0 -6
v 8 0 -2
v 8 6 -2
v 6.02501 0 -2
v 6.025014 0 -6
v 8 11.5 -6
v 8 9 -6
v 8 9 -2
v 8 11.5 -2
v 8 13.5 -6
v 8 13.5 -2
v 8 8.5 -6
v 8 8.5 -2
v -7 0 -2
v -7 0 -6
v -7.5 0 -2
v -7.5 0 -6
v -8 0 -2
v -8 0 -6
v -6 0 -7.750002
v -5.974986 0 -7.750002
v -5.974986 6 -8
v -6 6 -8
v -6 0 -8
v -5.974986 0 -8
v 6 0 -7.75
v 6 6 -8
v 6 0 -8
v 6 11.5 -8
v 6 9 -8
v 6 13.5 -8
v 6 8.5 -8
v -6 22 1.5
v -5.974995 22 1.5
v 6 22 1.5
v 8 20.5 1.5
v 8 18 1.5
v 6.025007 22 1.5
v 8 22 1.5
v -5.974992 22 -1.5
v -6 22 -1.5
v 6 22 -1.5
v 8 18 -1.5
v 8 20.5 -1.5
v 6.02501 22 -1.5
v 8 22 -1.5
v -7 22 1.5
v -7.5 22 1.5
v -8 9 1.5
v -8 11.5 1.5
v -8 13.5 1.5
v -8 20.5 1.5
v -8 22 1.5
v -7 22 -1.5
v -7.5 22 -1.5
v -8 11.5 -1.5
v -8 9 -1.5
v -8 20.5 -1.5
v -8 13.5 -1.5
v -8 22 -1.5
v -5.974995 0 1.5
v -6 0 1.5
v 6 0 1.5
v 8 6 1.5
v 8 0 1.5
v 6.025007 0 1.5
v 8 11.5 1.5
v 8 9 1.5
v 8 13.5 1.5
v 8 8.5 1.5
v -6 0 -1.5
v -5.974992 0 -1.5
v 6 0 -1.5
v 8 6 -1.5
v 8 0 -1.5
v 6.02501 0 -1.5
v 8 9 -1.5
v 8 11.5 -1.5
v 8 13.5 -1.5
v 8 8.5 -1.5
v -7 0 1.5
v -7.5 0 1.5
v -8 0 1.5
v -7 0 -1.5
v -7.5 0 -1.5
v -8 0 -1.5
v -16 0 2
v -16 0 -2
v -8 22.5 -6
v -8.5 22.5 -6
v -8.5 24 -6
v -8 24 -6
v -8.5 -1.907349E-06 -6
v -8.5 11.5 -6
v -8.5 13.5 -6
v -8.5 20.5 -6
v -6 22.5 -8.5
v -6 22.5 -8
v -6 24 -8
v -6 24 -8.5
v -6 22 -8.5
v -6 11.5 -8.5
v -6 -1.907349E-06 -8.5
v -6 20.5 -8.5
v -6 13.5 -8.5
v -6 22.5 -6
v -6 24 -6
v -8.5 -1.907349E-06 -8.5
v -8.5 24 -8.5
v -7.5 6.375 1.5
v -7 6.75 1.5
v -7 8.5 1.5
v -7.5 8.5 1.5
v -7 6.75 -1.5
v -7 8.5 -1.5
v -7.5 6.375 -1.5
v -7.5 8.5 -1.5
v -7.5 6 1.5
v -7 6 1.5
v -7 6 -1.5
v -7.5 6 -1.5
v -8 6 1.5
v -8 6 -1.5
v -7.5 8.5 2
v -7.5 9 2
v -7.5 6.375 2
v -7.5 6 2
v -7.5 9 -2
v -7.5 8.5 -2
v -7.5 6.375 -2
v -7.5 6 -2
v -7.5 9 1.5
v -7.5 9 -1.5
v 8.5 22.5 -6
v 8 22.5 -6
v 8 24 -6
v 8.5 24 -6
v 8.5 11.5 -6
v 8.5 -1.907349E-06 -6
v 8.5 20.5 -6
v 8.5 13.5 -6
v 6 22.5 -8.25
v 6 22.5 -8.5
v 6 24 -8.5
v 6 24 -8.25
v 6 22.5 -8
v 6 24 -8
v 6 22 -8.25
v 6 22 -8.5
v 6 11.5 -8.25
v 6 -1.907349E-06 -8.25
v 6 -1.907349E-06 -8.5
v 6 11.5 -8.5
v 6 20.5 -8.25
v 6 13.5 -8.25
v 6 13.5 -8.5
v 6 20.5 -8.5
v 6.025003 22.5 -6
v 6.025003 24 -6
v 6 22.5 -6
v 6 24 -6
v 6 22.5 -7.75
v 6 24 -7.75
v 6.025003 22 -6
v 8.5 -1.907349E-06 -8.5
v 8.5 24 -8.5
v 6 22.5 8.5
v 6 22.5 8.250001
v 6 24 8.250001
v 6 24 8.5
v 6 22.5 8
v 6 24 8
v 6 22 8.5
v 6 22 8.250001
v 6 11.5 8.250001
v 6 11.5 8.5
v 6 -1.907349E-06 8.5
v 6 -1.907349E-06 8.250001
v 6 20.5 8.250001
v 6 20.5 8.5
v 6 13.5 8.5
v 6 13.5 8.250001
v 8 22.5 6
v 8.5 22.5 6
v 8.5 24 6
v 8 24 6
v 8.5 -1.907349E-06 6
v 8.5 11.5 6
v 8.5 13.5 6
v 8.5 20.5 6
v 6.025002 22.5 6
v 6.025002 24 6
v 6 22.5 7.75
v 6 22.5 6
v 6 24 6
v 6 24 7.75
v 8.5 -1.907349E-06 8.5
v 8.5 24 8.5
v -6 22.5 8
v -6 22.5 8.5
v -6 24 8.5
v -6 24 8
v -6 22 8.5
v -6 -1.907349E-06 8.5
v -6 11.5 8.5
v -6 13.5 8.5
v -6 20.5 8.5
v -8.5 22.5 6
v -8 22.5 6
v -8 24 6
v -8.5 24 6
v -8.5 11.5 6
v -8.5 -1.907349E-06 6
v -8.5 20.5 6
v -8.5 13.5 6
v -6 22.5 6
v -6 24 6
v -8.5 -1.907349E-06 8.5
v -8.5 24 8.5
v -5.975001 22 8.249999
v -5.975001 22.5 8
v -5.975001 22.5 8.249999
v -5.975001 20.5 8.249999
v -5.975 22.5 7.749999
v -5.975001 11.5 8.249999
v -5.975001 13.5 8.249999
v -5.975002 22 -8
v -5.975001 22 -8.250002
v -5.975001 22.5 -8.250002
v -5.975002 22.5 -8
v -5.975002 20.5 -8
v -5.975001 20.5 -8.250002
v -5.975002 22 -7.750001
v -5.975002 22.5 -7.750001
v -5.975002 11.5 -8
v -5.975001 11.5 -8.250002
v -5.975001 13.5 -8.250002
v -5.975002 13.5 -8
# Vertex UVs: 324
vt -2.5 3.487499
vt -2.5 3.499999
vt -0.5000001 3.499999
vt -0.5000001 3.487497
vt -0.5000002 -2.5
vt -2.5 -2.5
vt -2.487502 5.750001
vt -2.487502 4.500001
vt -2.500001 4.500001
vt -2.500002 5.750001
vt 0.1666648 5.750001
vt -1.500001 4.500001
vt -2.487504 10.25
vt -2.487503 6.750001
vt -2.500002 6.750001
vt -2.500003 10.25
vt 3.499996 10.25
vt 3.499997 8.250002
vt 1.499998 6.750001
vt -3.375 3.5
vt -3.375 3.4875
vt -2.500004 11
vt -2.487504 11
vt -3.5 3.4875
vt -3.5 3.5
vt -3.375 -2.5
vt -0.4999993 10.25
vt -0.4999994 9
vt -2.5 9
vt -2.5 -2.512501
vt -0.5000002 -2.512504
vt -0.5000003 -3.5
vt -2.5 -3.5
vt -2.487502 4.250001
vt -2.500001 4.250001
vt -1.833334 4.250001
vt -2.487502 3.759375
vt -2.500001 3.75
vt -2.5 3.999999
vt -0.5 3.999999
vt -0.5 4.249999
vt 3.499999 5.750001
vt 3.5 4.5
vt 1.499999 4.5
vt 1.499999 5.750001
vt 3.499999 6.750001
vt 1.499997 10.25
vt -0.5 4.499999
vt 3.5 4.25
vt 1.499999 4.25
vt 3.5 3
vt 1.5 3
vt -2.487499 3.500001
vt -2.487498 1.500001
vt -2.5 1.500001
vt 3.500001 3.500001
vt 3.5 1.500001
vt -2.4875 4.375
vt -2.5 4.375
vt -2.500001 3.000001
vt -2.487501 3.000001
vt -2.4875 0
vt -2.5 0
vt 3.500001 4.375001
vt 3.5 0
vt -0.5 3
vt -0.5000003 0
vt 3.512502 3.500001
vt 4.500001 3.500001
vt 4.5 1.500001
vt 3.512504 1.500001
vt -0.4999997 5.75
vt -0.4999996 6.75
vt -3 1.500001
vt -3 3.500001
vt -3.25 1.500001
vt -3.25 3.500001
vt 1.500001 0
vt -3.5 1.500001
vt 3.5 3.487492
vt 1.5 3.487494
vt 1.5 3.499999
vt 3.5 -2.500001
vt 1.5 -2.500001
vt 3.500001 9
vt 1.5 9
vt 3.5 -2.512508
vt 3.5 -3.500001
vt 1.5 -3.5
vt 1.5 -2.512506
vt 3.5 3.999998
vt 1.5 3.999999
vt 3.487491 5.750001
vt 3.487491 4.500001
vt 2.499998 4.500001
vt 0.8333313 5.750001
vt 3.487489 10.25
vt 3.48749 6.750001
vt -2.500003 8.250002
vt 4.375001 3.499998
vt 4.375001 3.487491
vt 3.487489 11
vt 3.499996 11
vt 4.5 3.487491
vt 4.375 -2.500001
vt 3.487491 4.250001
vt 2.833332 4.250001
vt 3.499999 3.75
vt 3.487492 3.759381
vt -2.5 -0.4999995
vt -2.487496 -0.4999995
vt -2.487494 -2.5
vt 3.5 -0.4999995
vt 3.512506 -0.4999995
vt 4.5 -0.4999995
vt 4.5 -2.5
vt 3.512507 -2.5
vt -3 -0.4999995
vt -3.000001 -2.5
vt -3.25 -0.4999995
vt -3.250001 -2.5
vt -3.500001 -2.5
vt -3.5 -0.4999995
vt -2.500001 -3.375001
vt -2.487494 -3.375001
vt 3.487492 3.000001
vt 3.487493 0
vt -2.487494 -3.5
vt 3.5 -3.375
vt -0.25 3.499999
vt -0.25 3.487496
vt -0.2500002 -2.5
vt -0.2499993 10.25
vt -0.2499994 9
vt -0.2500002 -2.512504
vt -0.2500003 -3.5
vt 1.25 3.487494
vt 1.25 3.499999
vt 1.25 -2.500001
vt 1.250001 9
vt 1.250001 10.25
vt 1.25 -2.512506
vt 1.25 -3.5
vt -0.25 3.999999
vt -0.25 4.249999
vt 1.249999 4.5
vt 1.249999 5.750001
vt 1.249998 6.750001
vt -0.25 4.499999
vt 1.25 3.999999
vt 1.25 4.249999
vt -0.2500015 5.750001
vt -0.2500018 6.750001
vt -2.487498 1.250001
vt -2.5 1.250001
vt 3.5 1.250001
vt -0.25 3
vt -0.2500003 0
vt 3.512504 1.250001
vt 4.5 1.250001
vt -2.5 -0.2499996
vt -2.487496 -0.2499996
vt 3.5 -0.2499996
vt 1.25 3
vt 1.25 0
vt 3.512505 -0.2499996
vt 4.5 -0.2499996
vt -3 1.250001
vt -3.25 1.250001
vt -3.5 1.250001
vt -3 -0.2499996
vt -3.25 -0.2499996
vt -3.5 -0.2499996
vt 1 0
vt -3 0
vt 1 3
vt 4 0
vt 0 0
vt 0 3
vt 1 -0.5
vt 1 1.5
vt 1.5 0.02734005
vt -0.4999999 0.02734005
vt -0.4999999 4.827227
vt 1.5 4.827227
vt -4.768372E-08 0.2499994
vt -0.25 0.2500002
vt -0.25 1
vt -6.780029E-08 0.9999992
vt 9.983776E-08 -5.249999
vt 2.540648E-07 -11
vt -0.2499997 -11
vt -0.2499998 -5.249998
vt -2.086163E-08 -0.7500003
vt 7.301567E-08 -4.249999
vt -0.2499999 -4.249998
vt -0.25 -0.7499995
vt 1.25 0.2499964
vt 1 0.2499972
vt 1 0.999997
vt 1.25 0.9999962
vt 1.25 -5.250001
vt 1.25 -11
vt 1 -11
vt 1 -5.250001
vt 1.25 -0.7500033
vt 1.25 -4.250002
vt 1 -4.250001
vt 1 -0.7500025
vt 1 -0.25
vt -0.25 -0.25
vt 0 1.25
vt 1.25 1.25
vt 0.75 -0.06250024
vt 1 0.1249998
vt 0.75 1
vt 1.25 0.1249998
vt -0.25 0.1249998
vt 0.25 -0.06250024
vt 0.25 1
vt 0 0.1249998
vt 0.75 -0.25
vt 1.25 -0.25
vt 0.25 -0.25
vt 0 -0.25
vt 1 1.25
vt 0.75 1.25
vt 0.5000007 1.25
vt 0.5000005 -0.2499999
vt 0.5 0.9999999
vt 0.2500004 1.25
vt -0.25 1.25
vt -0.5 1.25
vt -0.5 0.9999999
vt -0.25 0.5
vt -0.5 0.5
vt -0.5 0.25
vt -0.25 -0.06250024
vt -0.5 -0.06250024
vt 1.5 1
vt 1.5 1.25
vt 1.5 0.5
vt 1.25 0.5
vt 1.5 0.25
vt 1.5 -0.06250021
vt 1.25 -0.06250022
vt 0.75 1.5
vt 0.5000012 1.499999
vt -0.5 -0.25
vt 0.5000007 -0.5000002
vt 0.75 -0.4999999
vt 1.5 -0.25
vt 0.7499997 0.2499972
vt 0.7500001 -11
vt 0.7499999 -5.250001
vt 0.7499998 -4.250001
vt 0.7499997 -0.7500025
vt -0.125 0.2499998
vt -0.125 0.9999996
vt -0.125 -9.685755E-08
vt -0.1249999 -5.249998
vt -0.1249997 -11
vt -0.125 -0.7499999
vt -0.1249999 -4.249999
vt -0.2374983 0.2500002
vt -0.2374983 0.9999999
vt 0.1249998 0.2499991
vt 0.1249998 0.9999989
vt 0.7499997 -2.726912E-06
vt -0.2374983 2.602063E-07
vt 0.1249998 -8.698549E-07
vt 0.8750001 0.2499968
vt 0.8750001 0.9999965
vt 0.8750001 -3.121795E-06
vt 0.8750003 -5.250001
vt 0.8750005 -11
vt 0.8750001 -0.7500029
vt 0.8750002 -4.250002
vt 0.25 0.2499994
vt 0.25 -5.249999
vt 0.25 -11
vt 0.25 -0.7500003
vt 0.25 -4.249999
vt 1.237499 0.2499965
vt 1.237499 0.9999962
vt 0.6249999 0.2499976
vt 0.6249999 0.9999973
vt 1.237499 -3.478859E-06
vt 0.25 -4.917383E-07
vt 0.6249999 -2.348796E-06
vt 3.25 0.75
vt -2.75 0.75
vt -2.75 1
vt 3.25 1
vt 3.75 0
vt -2.25 0
vt -2.25 1
vt 3.75 1
vt 1 -2.25
vt 0.75 -2.25
vt 0.75 3.75
vt 1 3.75
vt 3.25 0
vt -2.75 0
vt -2.75 0.25
vt 3.25 0.25
vt 3.75 0.75
vt -2.25 0.75
vt 1 0.75
vt 0.8750005 0.75
vt 3.237499 0.75
vt 3.237499 1
vt 3.237499 0.1250004
vt 3.237499 0
vt -2.75 0.1249995
vt 1 -2.2375
vt 0.8749996 -2.237499
vt 0.8750005 3.75
vt 0.75 0.75
vt -2.237499 0.75
vt -2.237499 1
vt 3.237499 0.25
vt -2.237497 0
vt 0.75 -2.237497
# Vertex Normals: 7
vn 0 1 0
vn 0 0 1
vn 1 0 0
vn -1 0 0
vn 0 -1 0
vn 0 0 -1
vn -0.6000001 0.7999999 0
# Faces: 315
f 4/4/1 3/3/1 2/2/1 1/1/1 
f 6/6/1 5/5/1 4/4/1 1/1/1 
f 10/10/2 9/9/2 8/8/2 7/7/2 
f 8/8/2 12/12/2 11/11/2 7/7/2 
f 16/16/2 15/15/2 14/14/2 13/13/2 
f 14/14/2 19/19/2 18/18/2 17/17/2 13/13/2 
f 15/15/2 10/10/2 7/7/2 14/14/2 
f 21/21/1 1/1/1 2/2/1 20/20/1 
f 23/23/2 22/22/2 16/16/2 13/13/2 
f 22/25/1 23/24/1 21/21/1 20/20/1 
f 24/26/1 6/6/1 1/1/1 21/21/1 
f 28/16/3 27/29/3 26/28/3 25/27/3 
f 32/33/1 31/32/1 30/31/1 29/30/1 
f 30/31/1 5/5/1 6/6/1 29/30/1 
f 9/9/2 34/35/2 33/34/2 8/8/2 
f 33/34/2 35/36/2 12/12/2 8/8/2 
f 34/35/2 37/38/2 36/37/2 33/34/2 
f 36/37/2 35/36/2 33/34/2 
f 2/2/1 3/3/1 39/40/1 38/39/1 
f 38/39/1 39/40/1 41/41/1 40/35/1 
f 45/45/4 44/44/4 43/43/4 42/42/4 
f 49/47/4 48/19/4 47/46/4 46/17/4 
f 51/48/1 50/9/1 40/35/1 41/41/1 
f 44/44/4 53/50/4 52/49/4 43/43/4 
f 53/50/4 55/52/4 54/51/4 52/49/4 
f 59/2/5 58/55/5 57/54/5 56/53/5 
f 57/54/5 61/57/5 60/56/5 56/53/5 
f 63/59/5 59/2/5 56/53/5 62/58/5 
f 67/63/2 66/62/2 65/61/2 64/60/2 
f 66/8/5 67/9/5 63/59/5 62/58/5 
f 62/58/5 56/53/5 60/56/5 68/64/5 
f 66/62/2 70/65/2 69/51/2 65/61/2 
f 70/43/5 66/8/5 62/58/5 68/64/5 
f 74/63/3 73/67/3 72/66/3 71/60/3 
f 76/71/5 73/70/5 74/69/5 75/68/5 
f 60/56/5 61/57/5 76/71/5 75/68/5 
f 11/11/2 12/12/2 78/43/2 77/42/2 
f 18/18/2 19/19/2 79/46/2 
f 83/9/3 82/48/3 81/72/3 80/10/3 
f 85/73/3 26/28/3 27/29/3 84/15/3 
f 78/43/2 12/12/2 35/36/2 86/49/2 
f 88/35/3 87/41/3 82/48/3 83/9/3 
f 36/37/2 37/38/2 64/60/2 65/61/2 
f 86/49/2 35/36/2 36/37/2 65/61/2 69/51/2 
f 71/60/3 72/66/3 87/41/3 88/35/3 
f 90/75/5 89/74/5 58/55/5 59/2/5 
f 92/77/5 91/76/5 89/74/5 90/75/5 
f 55/52/4 94/78/4 93/65/4 54/51/4 
f 93/25/5 94/79/5 91/76/5 92/77/5 
f 98/82/1 97/81/1 96/80/1 95/56/1 
f 97/81/1 100/84/1 99/83/1 96/80/1 
f 104/47/3 103/86/3 102/85/3 101/17/3 
f 108/90/1 107/89/1 106/88/1 105/87/1 
f 100/84/1 108/90/1 105/87/1 99/83/1 
f 110/92/1 98/82/1 95/56/1 109/91/1 
f 112/50/1 110/92/1 109/91/1 111/49/1 
f 116/10/4 115/9/4 114/48/4 113/72/4 
f 120/16/4 119/15/4 118/73/4 117/27/4 
f 122/43/1 121/44/1 112/50/1 111/49/1 
f 115/9/4 124/35/4 123/41/4 114/48/4 
f 124/35/4 126/60/4 125/66/4 123/41/4 
f 130/94/6 129/43/6 128/42/6 127/93/6 
f 132/96/6 131/95/6 130/94/6 127/93/6 
f 136/98/6 135/46/6 134/17/6 133/97/6 
f 139/16/6 138/99/6 137/73/6 136/98/6 133/97/6 
f 127/93/6 128/42/6 135/46/6 136/98/6 
f 95/56/1 96/80/1 141/101/1 140/100/1 
f 143/103/6 142/102/6 133/97/6 134/17/6 
f 141/101/1 142/104/1 143/69/1 140/100/1 
f 96/80/1 99/83/1 144/105/1 141/101/1 
f 146/106/6 145/49/6 129/43/6 130/94/6 
f 131/95/6 147/107/6 146/106/6 130/94/6 
f 149/109/6 148/108/6 145/49/6 146/106/6 
f 147/107/6 149/109/6 146/106/6 
f 153/6/5 152/112/5 151/111/5 150/110/5 
f 152/112/5 155/83/5 154/113/5 151/111/5 
f 159/52/3 158/78/3 157/65/3 156/51/3 
f 161/117/5 157/116/5 158/115/5 160/114/5 
f 155/83/5 161/117/5 160/114/5 154/113/5 
f 165/45/3 164/44/3 163/43/3 162/42/3 
f 103/86/3 167/19/3 166/46/3 102/85/3 
f 164/44/3 169/50/3 168/49/3 163/43/3 
f 169/50/3 159/52/3 156/51/3 168/49/3 
f 171/119/5 153/6/5 150/110/5 170/118/5 
f 173/121/5 171/119/5 170/118/5 172/120/5 
f 175/63/4 174/67/4 125/66/4 126/60/4 
f 174/123/5 175/122/5 173/121/5 172/120/5 
f 177/125/5 152/112/5 153/6/5 176/124/5 
f 181/127/6 180/65/6 179/51/6 178/126/6 
f 180/33/5 181/128/5 177/125/5 176/124/5 
f 182/129/5 155/83/5 152/112/5 177/125/5 
f 184/63/6 181/127/6 178/126/6 183/60/6 
f 181/128/5 184/88/5 182/129/5 177/125/5 
f 186/9/6 131/95/6 132/96/6 185/10/6 
f 137/73/6 138/99/6 187/15/6 
f 188/35/6 147/107/6 131/95/6 186/9/6 
f 178/126/6 179/51/6 148/108/6 149/109/6 
f 183/60/6 178/126/6 149/109/6 147/107/6 188/35/6 
f 3/3/1 4/4/1 190/131/1 189/130/1 
f 4/4/1 5/5/1 191/132/1 190/131/1 
f 25/27/3 26/28/3 193/134/3 192/133/3 
f 30/31/1 31/32/1 195/136/1 194/135/1 
f 5/5/1 30/31/1 194/135/1 191/132/1 
f 97/81/1 98/82/1 197/138/1 196/137/1 
f 100/84/1 97/81/1 196/137/1 198/139/1 
f 200/141/3 199/140/3 103/86/3 104/47/3 
f 202/143/1 107/89/1 108/90/1 201/142/1 
f 108/90/1 100/84/1 198/139/1 201/142/1 
f 196/137/1 197/138/1 189/130/1 190/131/1 
f 198/139/1 196/137/1 190/131/1 191/132/1 
f 192/133/3 193/134/3 199/140/3 200/141/3 
f 195/136/1 202/143/1 201/142/1 194/135/1 
f 201/142/1 198/139/1 191/132/1 194/135/1 
f 39/40/1 3/3/1 189/130/1 203/144/1 
f 41/41/1 39/40/1 203/144/1 204/145/1 
f 206/147/4 205/146/4 44/44/4 45/45/4 
f 208/141/4 207/148/4 48/19/4 49/47/4 
f 209/149/1 51/48/1 41/41/1 204/145/1 
f 197/138/1 98/82/1 110/92/1 210/150/1 
f 203/144/1 189/130/1 197/138/1 210/150/1 
f 211/151/1 210/150/1 110/92/1 112/50/1 
f 113/72/4 114/48/4 213/149/4 212/152/4 
f 117/27/4 118/73/4 215/153/4 214/133/4 
f 121/44/1 216/146/1 211/151/1 112/50/1 
f 204/145/1 203/144/1 210/150/1 211/151/1 
f 212/152/4 213/149/4 205/146/4 206/147/4 
f 214/133/4 215/153/4 207/148/4 208/141/4 
f 216/146/1 209/149/1 204/145/1 211/151/1 
f 57/54/5 58/55/5 218/155/5 217/154/5 
f 61/57/5 57/54/5 217/154/5 219/156/5 
f 72/66/3 73/67/3 221/158/3 220/157/3 
f 221/160/5 73/70/5 76/71/5 222/159/5 
f 76/71/5 61/57/5 219/156/5 222/159/5 
f 81/72/3 82/48/3 224/149/3 223/152/3 
f 26/28/3 85/73/3 225/153/3 193/134/3 
f 82/48/3 87/41/3 226/145/3 224/149/3 
f 87/41/3 72/66/3 220/157/3 226/145/3 
f 150/110/5 151/111/5 228/162/5 227/161/5 
f 151/111/5 154/113/5 229/163/5 228/162/5 
f 231/165/3 158/78/3 159/52/3 230/164/3 
f 160/114/5 158/115/5 231/167/5 232/166/5 
f 154/113/5 160/114/5 232/166/5 229/163/5 
f 164/44/3 165/45/3 234/147/3 233/146/3 
f 167/19/3 103/86/3 199/140/3 235/148/3 
f 169/50/3 164/44/3 233/146/3 236/151/3 
f 159/52/3 169/50/3 236/151/3 230/164/3 
f 217/154/5 218/155/5 227/161/5 228/162/5 
f 219/156/5 217/154/5 228/162/5 229/163/5 
f 221/158/3 231/165/3 230/164/3 220/157/3 
f 231/167/5 221/160/5 222/159/5 232/166/5 
f 222/159/5 219/156/5 229/163/5 232/166/5 
f 233/146/3 234/147/3 223/152/3 224/149/3 
f 235/148/3 199/140/3 193/134/3 225/153/3 
f 236/151/3 233/146/3 224/149/3 226/145/3 
f 230/164/3 236/151/3 226/145/3 220/157/3 
f 237/168/5 218/155/5 58/55/5 89/74/5 
f 238/169/5 237/168/5 89/74/5 91/76/5 
f 94/79/5 239/170/5 238/169/5 91/76/5 
f 170/118/5 150/110/5 227/161/5 240/171/5 
f 227/161/5 218/155/5 237/168/5 240/171/5 
f 172/120/5 170/118/5 240/171/5 241/172/5 
f 242/173/5 174/123/5 172/120/5 241/172/5 
f 241/172/5 240/171/5 237/168/5 238/169/5 
f 239/170/5 242/173/5 241/172/5 238/169/5 
f 55/176/2 243/175/2 94/174/2 
f 125/179/6 174/178/6 244/177/6 
f 94/181/5 243/74/5 244/118/5 174/180/5 
f 244/185/7 243/184/7 55/183/7 125/182/7 
f 248/189/2 247/188/2 246/187/2 245/186/2 
f 250/193/2 249/192/2 175/191/2 116/190/2 
f 252/197/2 251/196/2 119/195/2 120/194/2 
f 256/201/3 255/200/3 254/199/3 253/198/3 
f 254/199/3 143/174/3 257/165/3 253/198/3 
f 128/205/3 180/204/3 259/203/3 258/202/3 
f 134/209/3 135/208/3 261/207/3 260/206/3 
f 135/208/3 128/205/3 258/202/3 261/207/3 
f 143/174/3 134/209/3 260/206/3 257/165/3 
f 263/200/2 248/189/2 245/186/2 262/199/2 
f 255/200/3 263/189/3 262/186/3 254/199/3 
f 245/186/2 122/178/2 95/174/2 262/199/2 
f 262/186/3 95/178/3 143/174/3 254/199/3 
f 247/200/4 265/188/4 264/192/4 249/204/4 
f 265/201/6 256/189/6 259/191/6 264/203/6 
f 153/200/5 249/188/5 264/211/5 259/210/5 
f 265/213/1 247/212/1 263/178/1 256/165/1 
f 269/216/6 268/200/6 267/215/6 266/214/6 
f 267/218/4 268/188/4 271/201/4 270/217/4 
f 270/221/2 271/189/2 273/220/2 272/219/2 
f 271/165/5 268/158/5 269/187/5 273/198/5 
f 266/214/6 267/215/6 275/210/6 274/222/6 
f 275/211/4 267/218/4 270/217/4 276/223/4 
f 276/225/2 270/221/2 272/219/2 277/224/2 
f 274/227/1 275/226/1 276/210/1 277/222/1 
f 279/229/1 278/228/1 274/227/1 277/222/1 
f 53/230/6 44/228/6 281/227/6 280/216/6 
f 55/229/6 53/230/6 280/216/6 282/214/6 
f 55/229/6 282/214/6 283/222/6 
f 114/228/2 123/230/2 285/220/2 284/231/2 
f 123/230/2 125/229/2 286/219/2 285/220/2 
f 286/219/2 125/229/2 287/224/2 
f 280/234/4 281/233/4 288/232/4 269/188/4 
f 288/187/5 281/237/5 44/236/5 205/235/5 
f 282/239/4 280/234/4 269/188/4 266/238/4 
f 273/201/4 289/213/4 284/241/4 285/240/4 
f 284/244/5 289/198/5 213/243/5 114/242/5 
f 272/246/4 273/201/4 285/240/4 286/245/4 
f 269/188/4 288/232/4 289/213/4 273/201/4 
f 289/198/5 288/187/5 205/235/5 213/243/5 
f 278/228/1 55/248/1 283/247/1 274/227/1 
f 283/249/4 282/239/4 266/238/4 274/211/4 
f 287/251/1 125/250/1 279/229/1 277/222/1 
f 277/223/4 272/246/4 286/245/4 287/252/4 
f 293/200/2 292/216/2 291/253/2 290/199/2 
f 162/255/2 157/254/2 295/204/2 294/205/2 
f 101/257/2 166/256/2 297/208/2 296/209/2 
f 301/259/4 300/188/4 299/187/4 298/258/4 
f 303/189/4 301/259/4 298/258/4 302/186/4 
f 299/187/4 305/158/4 304/260/4 298/258/4 
f 309/193/4 308/192/4 307/262/4 306/261/4 
f 307/262/4 184/191/4 185/190/4 306/261/4 
f 313/197/4 312/196/4 311/264/4 310/263/4 
f 311/264/4 187/195/4 139/194/4 310/263/4 
f 312/196/4 309/193/4 306/261/4 311/264/4 
f 305/158/4 313/197/4 310/263/4 304/260/4 
f 292/216/2 315/266/2 314/265/2 291/253/2 
f 315/266/2 317/188/2 316/187/2 314/265/2 
f 317/200/4 319/268/4 318/267/4 316/199/4 
f 319/268/4 303/189/4 302/186/4 318/267/4 
f 320/270/2 106/269/2 291/253/2 314/265/2 
f 316/187/2 99/158/2 320/270/2 314/265/2 
f 144/271/4 99/174/4 316/199/4 318/267/4 
f 322/201/3 293/189/3 295/191/3 321/203/3 
f 300/201/6 322/189/6 321/191/6 308/203/6 
f 295/200/5 155/188/5 308/211/5 321/210/5 
f 300/213/1 317/212/1 293/178/1 322/165/1 
f 326/200/4 325/273/4 324/272/4 323/199/4 
f 325/273/4 328/216/4 327/253/4 324/272/4 
f 330/274/4 329/174/4 323/199/4 324/272/4 
f 334/276/4 333/204/4 332/205/4 331/275/4 
f 77/255/4 70/254/4 334/276/4 331/275/4 
f 338/278/4 337/208/4 336/209/4 335/277/4 
f 17/257/4 79/256/4 338/278/4 335/277/4 
f 331/275/4 332/205/4 337/208/4 338/278/4 
f 335/277/4 336/209/4 329/174/4 330/274/4 
f 342/220/6 341/189/6 340/186/6 339/279/6 
f 344/190/6 343/191/6 74/281/6 80/280/6 
f 346/194/6 345/195/6 84/283/6 28/282/6 
f 348/285/6 342/220/6 339/279/6 347/284/6 
f 352/287/4 351/188/4 350/187/4 349/286/4 
f 351/201/6 348/285/6 347/284/6 350/198/6 
f 328/216/4 352/287/4 349/286/4 327/253/4 
f 339/279/6 32/289/6 29/288/6 347/284/6 
f 350/187/4 6/158/4 24/290/4 349/286/4 
f 29/288/6 6/165/6 350/198/6 347/284/6 
f 354/200/2 326/188/2 333/192/2 353/204/2 
f 341/201/3 354/189/3 353/191/3 343/203/3 
f 353/200/5 333/188/5 60/211/5 343/210/5 
f 351/213/1 326/212/1 354/178/1 341/165/1 
f 358/220/3 357/189/3 356/186/3 355/279/3 
f 356/186/3 359/178/3 22/289/3 355/279/3 
f 361/190/3 360/191/3 67/281/3 10/280/3 
f 363/194/3 362/195/3 15/283/3 16/282/3 
f 362/195/3 361/190/3 10/280/3 15/283/3 
f 359/178/3 363/194/3 16/282/3 22/289/3 
f 367/201/6 366/200/6 365/199/6 364/198/6 
f 42/205/6 93/204/6 369/203/6 368/202/6 
f 46/209/6 47/208/6 371/207/6 370/206/6 
f 373/201/3 358/220/3 355/279/3 372/198/3 
f 366/200/6 373/189/6 372/186/6 365/199/6 
f 355/279/3 22/289/3 2/165/3 372/198/3 
f 372/186/6 2/178/6 50/174/6 365/199/6 
f 357/200/2 375/188/2 374/192/2 360/204/2 
f 375/200/4 367/188/4 369/192/4 374/204/4 
f 360/200/5 374/188/5 369/211/5 59/210/5 
f 367/213/1 375/212/1 357/178/1 373/165/1 
f 245/294/3 365/293/3 50/292/3 122/291/3 
f 364/298/4 246/297/4 252/296/4 370/295/4 
f 46/302/5 370/301/5 252/300/5 120/299/5 
f 246/306/1 364/305/1 365/304/1 245/303/1 
f 371/298/4 251/297/4 250/296/4 368/295/4 
f 42/302/5 368/301/5 250/300/5 116/299/5 
f 251/306/1 371/305/1 47/304/1 119/303/1 
f 339/298/4 291/297/4 106/308/4 32/307/4 
f 290/294/3 340/293/3 346/304/3 296/303/3 
f 346/302/5 28/301/5 101/300/5 296/299/5 
f 291/306/1 339/305/1 340/304/1 290/303/1 
f 297/294/3 345/293/3 344/304/3 294/303/3 
f 344/302/5 80/301/5 162/300/5 294/299/5 
f 166/306/1 84/305/1 345/304/1 297/303/1 
f 378/200/4 377/273/4 23/310/4 376/309/4 
f 324/312/2 378/293/2 376/292/2 330/311/2 
f 377/315/1 378/304/1 324/314/1 327/313/1 
f 23/310/4 13/274/4 379/174/4 376/309/4 
f 376/292/2 379/304/2 335/314/2 330/311/2 
f 379/302/5 13/318/5 17/317/5 335/316/5 
f 377/273/4 380/216/4 21/319/4 23/310/4 
f 380/298/6 349/321/6 24/320/6 21/307/6 
f 349/322/1 380/305/1 377/315/1 327/313/1 
f 382/200/4 14/273/4 7/274/4 381/174/4 
f 338/312/2 382/293/2 381/304/2 331/314/2 
f 381/302/5 7/318/5 77/317/5 331/316/5 
f 14/315/1 382/304/1 338/314/1 79/313/1 
f 386/273/4 385/216/4 384/319/4 383/310/4 
f 385/298/6 298/321/6 304/320/6 384/307/6 
f 298/322/1 385/305/1 386/315/1 302/313/1 
f 384/319/4 388/269/4 387/274/4 383/310/4 
f 310/323/6 388/295/6 384/307/6 304/320/6 
f 387/318/5 388/301/5 310/324/5 139/317/5 
f 390/200/4 386/273/4 383/310/4 389/309/4 
f 318/312/2 390/293/2 389/292/2 144/311/2 
f 386/315/1 390/304/1 318/314/1 302/313/1 
f 394/273/4 393/216/4 392/269/4 391/274/4 
f 393/298/6 311/321/6 306/323/6 392/295/6 
f 391/318/5 392/301/5 306/324/5 185/317/5 
f 311/322/1 393/305/1 394/315/1 187/313/1 


