# 3ds Max Wavefront OBJ Exporter v0.97b - (c)2007 guruware
# File Created: 27.01.2016 13:14:24

#
# object Rock_17
#

v  -0.3284 12.2738 2.7673
v  -6.7323 10.5522 -2.6740
v  -7.2366 -0.9998 4.6435
v  -0.5781 -0.9998 9.0456
v  7.5418 -0.9998 12.3423
v  8.3921 10.7100 7.5357
v  -13.0140 -0.9998 -0.7029
v  -16.8210 -0.9998 -5.2877
v  -9.5702 -0.9998 -8.1435
v  1.7816 10.5941 -6.7315
v  -0.0311 -0.9998 -10.9068
v  16.4965 8.5568 -5.9354
v  14.3356 13.7628 0.5066
v  16.2326 -0.9998 3.0994
v  16.8210 -0.9998 -3.9389
v  16.4484 -0.9998 -10.6863
v  9.1701 -0.9998 -12.3423
v  9.9620 9.4777 -7.1629
v  12.8851 8.0724 8.7184
v  13.4902 -0.9998 10.9898
v  7.9347 15.6403 -0.0363
v  0.0788 14.6313 -1.4209
# 22 vertices

vn -0.5158 0.4109 0.7517
vn -0.6449 0.4377 0.6265
vn -0.5793 0.4141 0.7020
vn -0.4294 0.3832 0.8178
vn -0.1111 0.3473 0.9312
vn -0.2461 0.3945 0.8853
vn -0.6509 0.4573 0.6059
vn -0.6805 0.4665 0.5651
vn -0.3180 0.4406 -0.8395
vn -0.3237 0.4687 -0.8219
vn -0.3673 0.4702 -0.8025
vn -0.1712 0.3900 -0.9048
vn -0.1768 0.3852 -0.9057
vn 0.9882 0.1040 0.1121
vn 0.9578 0.1645 0.2359
vn 0.9648 0.1296 0.2287
vn 0.9990 0.0388 0.0231
vn 0.9982 0.0224 -0.0551
vn 0.0263 0.4454 -0.8949
vn 0.0815 0.4053 -0.9105
vn 0.2155 0.4244 -0.8795
vn 0.1997 0.4354 -0.8778
vn 0.9405 0.1619 0.2989
vn 0.9348 0.1437 0.3249
vn 0.1708 0.7780 -0.6046
vn 0.1444 0.7786 -0.6106
vn 0.2528 0.7760 -0.5778
vn 0.2185 0.7935 -0.5680
vn 0.2146 0.2507 0.9440
vn 0.0417 0.3493 0.9361
vn 0.1289 0.8133 0.5674
vn 0.2940 0.7605 0.5789
vn 0.2298 0.8066 0.5447
vn -0.0075 0.8466 0.5321
vn -0.0774 0.7663 -0.6377
vn -0.1438 0.7650 -0.6277
vn -0.3068 0.7077 -0.6364
vn -0.5259 0.7620 0.3778
vn -0.3085 0.8289 0.4666
vn -0.3551 0.8290 0.4321
vn 0.0000 -1.0000 -0.0000
# 41 vertex normals

vt 2.7915 7.1798 45.8960
vt 2.6941 7.3607 48.3421
vt 2.3080 7.0655 48.4316
vt 2.5083 6.7750 45.3585
vt 2.8688 6.6097 39.7974
vt 2.9318 7.0183 40.7052
vt 2.2377 7.4098 50.2315
vt 2.2377 7.6569 50.9019
vt 2.5523 7.7745 47.3246
vt 2.9213 7.3894 42.5191
vt 2.9702 7.8005 41.5212
vt 3.2104 7.2314 32.4025
vt 3.0815 7.1327 36.9482
vt 3.3781 6.8724 31.8760
vt 3.4742 7.1272 30.1398
vt 3.4833 7.4037 29.0081
vt 3.3073 7.6283 34.7370
vt 3.1063 7.3346 36.6588
vt 3.0277 6.9466 37.0733
vt 3.1487 6.6615 34.7333
vt 2.9754 7.1934 41.5166
vt 2.8491 7.2654 45.8005
vt 9.0428 8.7005 34.7370
vt 9.2910 8.9397 30.1398
vt 9.0424 9.4507 39.7974
vt 8.7902 9.3670 45.3585
vt 8.3946 9.0966 50.2315
vt 8.2704 8.9654 50.9019
vt 8.4841 8.8647 47.3246
vt 8.5800 9.2470 48.4316
vt 8.7673 8.7622 41.5212
vt 9.2910 9.1549 31.8760
vt 9.2197 9.3980 34.7333
vt 9.2663 8.7363 29.0081
# 34 texture coords

g Rock_17
s 1
f 1/1/1 2/2/2 3/3/3 4/4/4 
f 4/4/4 5/5/5 6/6/6 1/1/1 
f 7/7/7 2/2/2 8/8/8 
f 7/7/7 3/3/3 2/2/2 
s 16
f 9/9/9 8/8/10 2/2/11 
f 10/10/12 11/11/13 9/9/9 2/2/11 
s 2
f 12/12/14 13/13/15 14/14/16 15/15/17 
f 12/12/14 15/15/17 16/16/18 
s 16
f 17/17/19 18/18/20 12/12/21 16/16/22 
s 2
f 14/14/16 13/13/15 19/19/23 20/20/24 
s 32
f 18/18/25 21/21/26 13/13/27 12/12/28 
s 1
f 20/20/29 19/19/30 5/5/5 
f 5/5/5 19/19/30 6/6/6 
s 4
f 6/6/31 19/19/32 13/13/33 21/21/34 
s 16
f 11/11/13 10/10/12 18/18/20 17/17/19 
s 32
f 21/21/26 18/18/25 10/10/35 22/22/36 
f 10/10/35 2/2/37 22/22/36 
s 4
f 2/2/38 1/1/39 22/22/40 
f 1/1/39 6/6/31 21/21/34 22/22/40 
f 17/23/41 15/24/41 5/25/41 4/26/41 
f 7/27/41 8/28/41 9/29/41 
f 3/30/41 7/27/41 9/29/41 11/31/41 
f 4/26/41 3/30/41 11/31/41 17/23/41 
f 15/24/41 14/32/41 20/33/41 5/25/41 
f 17/23/41 16/34/41 15/24/41 
# 15 polygons - 10 triangles

