# 3ds Max Wavefront OBJ Exporter v0.97b - (c)2007 guruware
# File Created: 27.01.2016 13:14:22

#
# object Rock_23
#

v  -7.5557 -0.9994 9.2155
v  -3.0209 -0.9994 7.7129
v  -2.7894 6.1481 6.2739
v  -8.0454 -0.9994 6.2765
v  -2.2172 7.5897 -1.3074
v  -10.4254 -0.9994 -0.6955
v  3.7375 -0.9994 5.3691
v  2.7813 7.9587 2.7167
v  8.1459 -0.9994 2.3080
v  8.3565 5.5995 0.7285
v  13.0735 -0.9994 -1.4062
v  5.7162 -0.9994 -3.2460
v  -7.0113 6.4435 -5.1118
v  -5.4565 -0.9994 -6.9513
v  -13.0735 -0.9994 -9.2155
# 15 vertices

vn 0.3095 0.1780 0.9341
vn 0.3156 0.1774 0.9321
vn 0.3767 0.2335 0.8964
vn -0.7984 0.5872 0.1331
vn -0.7519 0.6439 0.1414
vn -0.7884 0.5798 0.2055
vn -0.6849 0.6742 0.2762
vn -0.7579 0.5909 0.2765
vn 0.4634 0.2632 0.8462
vn 0.4559 0.2703 0.8480
vn 0.5411 0.2197 0.8118
vn 0.4640 0.1922 0.8647
vn -0.2062 0.9640 0.1678
vn 0.2352 0.4307 -0.8713
vn 0.2181 0.4380 -0.8721
vn 0.2720 0.4261 -0.8628
vn 0.5932 0.1695 0.7870
vn 0.2414 0.8922 -0.3817
vn -0.6752 0.5801 0.4556
vn 0.2884 0.2861 -0.9138
vn 0.3400 0.3816 -0.8595
vn 0.3818 0.5244 -0.7611
vn 0.2732 0.2842 -0.9190
vn -0.8137 0.5233 0.2529
vn 0.0000 -1.0000 -0.0000
# 25 vertex normals

vt 1.3823 6.6315 54.2965
vt 1.5486 6.6097 53.7667
vt 1.5732 6.8151 54.2391
vt 1.3321 6.7231 53.2898
vt 1.5956 7.0109 51.3033
vt 1.2234 6.9648 50.3203
vt 1.7992 6.6451 52.8910
vt 1.7062 6.8907 53.6915
vt 1.9610 6.7433 51.5520
vt 1.8506 6.9241 51.6364
vt 2.1137 6.9304 49.8637
vt 1.9306 7.1636 48.9408
vt 1.4678 7.1156 48.6062
vt 1.5444 7.3433 46.8507
vt 1.2234 7.3300 45.3099
vt 1.9844 7.4674 49.8637
vt 2.0495 7.6430 51.5520
vt 1.8669 7.6653 48.9408
vt 2.1001 7.7978 52.8910
vt 1.8005 8.1568 50.3203
vt 1.5297 8.1596 45.3099
vt 1.6619 7.9579 46.8507
vt 2.1094 8.0147 53.7667
vt 2.1137 8.1596 54.2965
vt 2.0239 8.1483 53.2898
# 25 texture coords

g Rock_23
s 1
f 1/1/1 2/2/2 3/3/3 
s 2
f 1/1/4 3/3/5 4/4/6 
f 3/3/5 5/5/7 6/6/8 4/4/6 
s 1
f 7/7/9 8/8/10 3/3/3 2/2/2 
f 9/9/11 10/10/12 8/8/10 7/7/9 
s 8
f 5/5/13 3/3/13 8/8/13 
s 4
f 10/10/14 11/11/15 12/12/16 
s 1
f 9/9/11 11/11/17 10/10/12 
s 16
f 8/8/18 10/10/18 5/5/18 
s 2
f 6/6/8 5/5/7 13/13/19 
s 4
f 12/12/16 14/14/20 13/13/21 5/5/22 
f 14/14/20 15/15/23 13/13/21 
s 2
f 13/13/19 15/15/24 6/6/8 
s 4
f 10/10/14 12/12/16 5/5/22 
s 8
f 11/16/25 9/17/25 12/18/25 
f 9/17/25 7/19/25 12/18/25 
f 6/20/25 15/21/25 14/22/25 
f 2/23/25 1/24/25 4/25/25 
f 2/23/25 4/25/25 6/20/25 7/19/25 
f 7/19/25 6/20/25 14/22/25 12/18/25 
# 6 polygons - 14 triangles

