# 3ds Max Wavefront OBJ Exporter v0.97b - (c)2007 guruware
# File Created: 27.01.2016 13:14:20

#
# object Rock_14
#

v  -12.5630 -1.0001 -3.0880
v  -7.0542 9.3786 0.8911
v  -5.4392 9.1935 -6.5870
v  -11.0925 -1.0001 -12.4779
v  -0.1696 11.4926 -3.0716
v  7.1638 13.5098 -1.9955
v  9.0728 11.2385 -8.0539
v  4.0701 8.0069 -12.6774
v  10.3974 8.6276 -10.3624
v  8.0542 8.9355 1.1151
v  -1.7815 11.2011 4.7923
v  9.5439 -1.0001 3.0553
v  11.9772 -1.0001 -5.9916
v  -7.5632 7.4771 9.7610
v  -2.3630 9.1938 11.8088
v  -13.2142 -1.0001 4.2564
v  3.5321 12.1303 9.6259
v  5.4009 14.0149 2.7169
v  5.4717 8.0122 9.7390
v  5.9828 -1.0001 12.7326
v  -9.8351 1.8306 17.7201
v  -7.3804 4.5010 16.8963
v  1.6531 9.6846 13.9244
v  3.7712 6.0563 13.6858
v  -6.7642 -1.0001 17.1809
v  -2.2688 6.9102 15.6694
v  0.7979 -1.0001 15.3773
v  -13.2702 -1.0001 14.6205
v  -12.4854 -1.0001 18.3516
v  -1.6739 4.0310 -16.3814
v  6.6174 -1.0001 -16.1533
v  13.4302 -1.0001 -14.3336
v  -5.0549 -1.0001 -18.3516
v  -3.5201 6.7843 -12.7753
v  -13.4302 -1.0001 10.4549
# 35 vertices

vn -0.8489 0.5145 -0.1208
vn -0.8520 0.5178 -0.0778
vn -0.8342 0.5249 -0.1690
vn -0.8331 0.5375 -0.1305
vn -0.2603 0.9397 -0.2217
vn -0.2112 0.9293 -0.3029
vn -0.1936 0.8937 -0.4047
vn -0.1565 0.8768 -0.4547
vn 0.1831 0.7017 -0.6886
vn 0.9331 0.3104 0.1816
vn 0.9161 0.3316 0.2253
vn 0.9240 0.2816 0.2585
vn 0.9488 0.2593 0.1803
vn -0.3639 0.9312 0.0213
vn -0.3636 0.9239 0.1194
vn -0.2200 0.9332 -0.2840
vn 0.9383 0.1865 0.2912
vn 0.9539 0.2240 0.1996
vn -0.3937 0.8714 0.2925
vn -0.3545 0.8659 0.3529
vn -0.8495 0.5270 -0.0254
vn -0.8086 0.5799 0.0988
vn -0.3833 0.8890 0.2504
vn -0.3104 0.9502 -0.0293
vn 0.8756 0.3746 0.3051
vn 0.8647 0.2977 0.4047
vn 0.8120 0.4006 0.4245
vn 0.9085 0.1773 0.3785
vn -0.7099 0.6646 0.2329
vn -0.6520 0.6937 0.3061
vn -0.3453 0.8679 0.3572
vn 0.8148 0.2888 0.5026
vn 0.7380 0.3948 0.5473
vn 0.2274 0.0655 0.9716
vn 0.2204 0.0536 0.9739
vn 0.2264 0.0657 0.9718
vn -0.3647 0.8228 0.4359
vn -0.3213 0.8710 0.3715
vn 0.2734 0.0786 0.9587
vn 0.3328 0.0548 0.9414
vn 0.3590 0.0844 0.9295
vn 0.3258 0.1286 0.9367
vn 0.4543 0.0221 0.8906
vn -0.7648 0.6294 0.1374
vn -0.7052 0.6933 0.1483
vn 0.2004 0.0309 0.9792
vn 0.2206 0.3217 -0.9208
vn 0.2758 0.4130 -0.8680
vn 0.2434 0.3921 -0.8871
vn 0.2600 0.4207 -0.8691
vn 0.2327 0.4326 -0.8711
vn 0.9581 0.2330 0.1669
vn 0.1791 0.2521 -0.9510
vn -0.5914 0.5833 -0.5568
vn -0.6513 0.6167 -0.4421
vn -0.6073 0.5696 -0.5539
vn -0.1310 0.8538 -0.5038
vn -0.1143 0.7605 -0.6392
vn -0.5524 0.5445 -0.6311
vn -0.5580 0.5996 -0.5736
vn -0.8222 0.5692 0.0027
vn 0.0000 -1.0000 -0.0000
# 62 vertex normals

vt 6.3105 4.7756 16.1044
vt 6.3539 4.3658 13.3877
vt 6.5543 4.4242 15.8896
vt 6.6896 4.8329 20.9024
vt 6.5342 4.2503 13.2385
vt 6.5850 4.0834 11.5512
vt 6.7302 4.1039 14.9925
vt 6.8158 4.2649 18.6179
vt 6.8136 4.0766 17.4677
vt 6.5592 3.9508 13.3277
vt 6.3517 4.1902 10.9317
vt 6.5694 3.6462 15.3053
vt 6.9052 3.7482 18.5405
vt 6.1340 4.2552 11.8346
vt 6.1907 4.1088 10.0386
vt 6.0469 4.6450 14.5012
vt 6.3302 4.0300 8.7748
vt 6.4800 4.0685 9.7156
vt 6.3329 3.9244 11.2724
vt 6.2060 3.6462 14.0191
vt 5.8296 4.1656 13.2107
vt 5.9466 4.1195 11.8623
vt 6.2189 4.0058 9.0385
vt 6.2123 3.9001 11.3920
vt 5.7813 4.0048 14.4199
vt 6.0916 4.0310 10.3335
vt 5.9853 3.7561 14.0983
vt 5.7623 4.3621 14.0719
vt 5.6908 4.2253 14.8012
vt 6.8861 4.4829 22.4470
vt 7.1555 4.2640 23.7824
vt 7.1510 3.9815 23.2958
vt 6.9816 4.6837 25.0628
vt 6.7396 4.4626 19.4642
vt 5.8653 4.4814 13.9236
vt 7.5823 9.3985 15.3053
vt 8.1463 8.8505 25.0628
vt 8.1413 9.2109 23.7824
vt 7.8654 9.4241 18.5405
vt 8.1224 9.4241 23.2958
vt 7.2744 9.3424 14.0191
vt 7.9392 8.7005 20.9024
vt 7.1683 9.2011 14.0983
vt 7.6508 8.7055 16.1044
vt 7.0750 8.9844 14.4199
vt 7.4278 8.7243 14.5012
vt 7.2414 8.7501 13.9236
vt 7.0102 8.8195 14.8012
vt 7.1177 8.7766 14.0719
# 49 texture coords

g Rock_14
s 4
f 1/1/1 2/2/2 3/3/3 4/4/4 
s 2
f 5/5/5 6/6/6 7/7/7 8/8/8 
s 1
f 7/7/9 9/9/9 8/8/9 
s 4
f 7/7/10 6/6/11 10/10/12 9/9/13 
s 2
f 2/2/14 11/11/15 5/5/5 3/3/16 
s 4
f 10/10/12 12/12/17 13/13/18 9/9/13 
s 2
f 14/14/19 15/15/20 11/11/15 2/2/14 
s 4
f 2/2/2 1/1/1 16/16/21 14/14/22 
s 2
f 11/11/15 17/17/23 18/18/24 5/5/5 
s 4
f 10/10/12 6/6/11 18/18/25 
f 19/19/26 10/10/12 18/18/25 17/17/27 
f 19/19/26 20/20/28 12/12/17 10/10/12 
f 14/14/22 21/21/29 22/22/30 
s 2
f 11/11/15 15/15/20 23/23/31 17/17/23 
s 4
f 24/24/32 19/19/26 17/17/27 23/23/33 
s 1
f 22/22/34 21/21/35 25/25/36 
s 2
f 26/26/37 15/15/20 14/14/19 22/22/38 
s 1
f 26/26/39 27/27/40 24/24/41 23/23/42 
f 27/27/40 26/26/39 22/22/34 25/25/36 
s 4
f 19/19/26 24/24/32 20/20/28 
s 1
f 24/24/41 27/27/40 20/20/43 
s 4
f 28/28/44 29/29/45 21/21/29 
s 1
f 21/21/35 29/29/46 25/25/36 
s 8
f 30/30/47 8/8/48 31/31/49 
f 9/9/50 32/32/51 31/31/49 8/8/48 
s 4
f 32/32/52 9/9/13 13/13/18 
s 8
f 30/30/47 31/31/49 33/33/53 
s 2
f 5/5/5 18/18/24 6/6/6 
s 1
f 4/4/54 3/3/55 34/34/56 
s 2
f 3/3/16 5/5/5 8/8/8 34/34/57 
f 8/8/8 30/30/58 34/34/57 
s 1
f 30/30/59 33/33/60 4/4/54 34/34/56 
s 2
f 26/26/37 23/23/31 15/15/20 
s 4
f 14/14/22 16/16/21 35/35/61 
f 14/14/22 35/35/61 28/28/44 
f 14/14/22 28/28/44 21/21/29 
s 2
f 12/36/62 33/37/62 31/38/62 13/39/62 
f 31/38/62 32/40/62 13/39/62 
f 20/41/62 4/42/62 33/37/62 12/36/62 
f 20/41/62 27/43/62 1/44/62 4/42/62 
f 25/45/62 16/46/62 1/44/62 27/43/62 
f 25/45/62 35/47/62 16/46/62 
f 25/45/62 29/48/62 28/49/62 
f 25/45/62 28/49/62 35/47/62 
# 22 polygons - 22 triangles

