# 3ds Max Wavefront OBJ Exporter v0.97b - (c)2007 guruware
# File Created: 27.01.2016 13:14:23

#
# object Rock_26
#

v  -1.4737 6.3610 3.7669
v  -2.7465 -0.9997 6.5209
v  4.1645 -0.9997 7.4318
v  6.8897 6.6359 3.1293
v  -4.5033 -0.9997 -0.6605
v  -14.4520 -0.9997 4.5040
v  9.3771 -0.9997 1.2911
v  4.4793 6.3557 -0.2431
v  11.1456 5.2069 -2.6833
v  7.6417 -0.9997 -5.0665
v  14.4520 -0.9997 -7.4318
# 11 vertices

vn -0.0683 0.4119 0.9087
vn -0.1409 0.3682 0.9190
vn -0.0360 0.4232 0.9053
vn 0.0513 0.4763 0.8778
vn -0.4243 0.5886 -0.6881
vn -0.3761 0.5495 -0.7460
vn -0.3733 0.5862 -0.7191
vn -0.1578 0.3698 0.9156
vn 0.8104 0.0988 0.5775
vn 0.7889 0.1115 0.6044
vn 0.7591 0.0922 0.6444
vn -0.3311 0.4874 -0.8079
vn -0.2557 0.4690 -0.8454
vn -0.2803 0.4569 -0.8442
vn 0.8411 0.1006 0.5314
vn -0.2877 0.4805 -0.8284
vn 0.8619 0.0755 0.5014
vn -0.0371 0.9977 -0.0564
vn 0.0440 0.9925 -0.1139
vn 0.0296 0.9942 -0.1038
vn 0.1103 0.9809 -0.1604
vn 0.0000 -1.0000 -0.0000
# 22 vertex normals

vt 0.8201 9.3752 25.3490
vt 0.6755 9.1771 23.7824
vt 0.9143 9.0771 23.2958
vt 1.0124 9.3333 25.8495
vt 0.7239 9.6395 28.6356
vt 0.3512 9.4624 25.0628
vt 1.2045 9.1819 27.6330
vt 0.9885 9.4300 28.3171
vt 1.1534 9.4114 30.2992
vt 1.1680 9.6395 32.0174
vt 1.4003 9.4913 34.0377
vt 8.8157 5.2198 23.7824
vt 9.2157 5.1961 27.6330
vt 9.0035 5.3173 23.2958
vt 8.5026 5.0411 25.0628
vt 8.8399 4.9967 28.6356
vt 9.2320 4.9967 32.0174
vt 9.4508 4.9997 34.0377
# 18 texture coords

g Rock_26
s 1
f 1/1/1 2/2/2 3/3/3 4/4/4 
s 16
f 1/1/5 5/5/6 6/6/7 
s 1
f 1/1/1 6/6/8 2/2/2 
s 2
f 7/7/9 4/4/10 3/3/11 
s 16
f 1/1/5 8/8/12 5/5/6 
f 8/8/12 9/9/13 10/10/14 
s 2
f 4/4/10 7/7/9 9/9/15 
s 16
f 8/8/12 10/10/14 5/5/6 
f 9/9/13 11/11/16 10/10/14 
s 2
f 11/11/17 9/9/15 7/7/9 
s 4
f 1/1/18 4/4/19 8/8/20 
f 8/8/20 4/4/19 9/9/21 
f 2/12/22 7/13/22 3/14/22 
f 2/12/22 6/15/22 5/16/22 
f 10/17/22 11/18/22 7/13/22 
f 5/16/22 10/17/22 7/13/22 2/12/22 
# 2 polygons - 14 triangles

