# 3ds Max Wavefront OBJ Exporter v0.97b - (c)2007 guruware
# File Created: 27.01.2016 13:14:21

#
# object Rock_19
#

v  7.9398 -1.0007 -5.3139
v  9.8652 5.5124 0.1633
v  14.3558 -1.0007 1.7243
v  5.0818 -1.0007 6.4303
v  0.4217 10.1114 -0.6947
v  -4.4415 -1.0007 8.0574
v  -14.3558 -1.0007 1.0969
v  -11.5342 5.9426 -0.1159
v  -13.9629 -1.0007 -2.7729
v  -9.8012 6.0509 -3.1311
v  -10.8799 -1.0007 7.7101
v  -2.0337 -1.0007 -8.0574
v  1.5266 7.6757 -4.5656
# 13 vertices

vn 0.5021 0.3615 -0.7856
vn 0.6147 0.3933 -0.6837
vn 0.6980 0.3287 -0.6362
vn 0.2328 0.5536 0.7996
vn 0.3003 0.5376 0.7879
vn 0.0351 0.6239 0.7807
vn -0.0197 0.6634 0.7480
vn 0.4005 0.4653 0.7893
vn -0.8982 0.3977 0.1874
vn -0.8868 0.4006 0.2303
vn -0.9279 0.3606 -0.0942
vn -0.7849 0.4411 -0.4352
vn -0.8099 0.4035 0.4257
vn -0.3146 0.2858 -0.9052
vn -0.0623 0.3250 -0.9437
vn -0.3977 0.1891 -0.8978
vn -0.1482 0.6866 0.7118
vn -0.0359 0.7461 0.6649
vn 0.0597 0.8744 -0.4815
vn 0.1504 0.8555 -0.4954
vn -0.3100 0.9213 -0.2348
vn -0.3319 0.9301 -0.1574
vn 0.1822 0.4001 -0.8982
vn 0.4317 0.8139 -0.3889
vn 0.0000 -1.0000 -0.0000
# 25 vertex normals

vt 9.3474 4.6091 41.1095
vt 9.1913 4.3615 42.6025
vt 9.4359 4.2353 45.7990
vt 9.0626 4.0360 39.0131
vt 8.9665 4.4329 35.6333
vt 8.6751 4.0951 32.0449
vt 8.4828 4.5681 24.8360
vt 8.7096 4.5141 26.5755
vt 8.5570 4.7008 25.1147
vt 8.7726 4.5726 28.6808
vt 8.4828 4.2719 27.3373
vt 9.0079 4.8329 33.8395
vt 9.0237 4.5234 36.4513
vt 6.9332 1.7541 25.1147
vt 7.2395 2.0667 32.0449
vt 7.0438 2.0667 27.3373
vt 6.9276 1.8720 24.8360
vt 7.2861 1.5744 33.8395
vt 7.5254 2.0018 39.0131
vt 7.5928 1.6412 41.1095
vt 7.7988 1.8441 45.7990
# 21 texture coords

g Rock_19
s 2
f 1/1/1 2/2/2 3/3/3 
s 8
f 4/4/4 2/2/5 5/5/6 6/6/7 
f 4/4/4 3/3/8 2/2/5 
s 1
f 7/7/9 8/8/10 9/9/11 
s 16
f 8/8/12 10/10/12 9/9/12 
s 1
f 11/11/13 8/8/10 7/7/9 
s 2
f 10/10/14 12/12/15 9/9/16 
s 8
f 6/6/7 5/5/6 8/8/17 11/11/18 
s 4
f 5/5/19 13/13/20 10/10/21 8/8/22 
s 2
f 13/13/23 12/12/15 10/10/14 
f 1/1/1 12/12/15 13/13/23 
f 13/13/23 2/2/2 1/1/1 
s 4
f 13/13/20 5/5/19 2/2/24 
f 9/14/25 6/15/25 11/16/25 7/17/25 
f 12/18/25 4/19/25 6/15/25 9/14/25 
f 1/20/25 3/21/25 4/19/25 12/18/25 
# 6 polygons - 10 triangles

