# 3ds Max Wavefront OBJ Exporter v0.97b - (c)2007 guruware
# File Created: 27.01.2016 13:14:23

#
# object Rock_03
#

v  -9.7521 7.4521 -16.7630
v  -5.3959 6.9674 -18.5512
v  -1.7213 1.7852 -19.5175
v  -2.6842 -1.0021 -18.3566
v  -0.3395 -1.0021 -20.7586
v  3.4693 5.1802 -15.4951
v  5.2688 -1.0021 -18.5522
v  -6.0015 -1.0021 20.7586
v  -0.2500 -1.0021 18.1159
v  -7.4791 3.3010 18.6295
v  -8.5353 -1.0021 17.8236
v  -1.9256 9.7801 -15.3429
v  2.0413 11.5466 -10.5435
v  7.9023 7.2655 -10.3806
v  -13.8725 10.8283 -8.2358
v  -5.5649 13.2873 -5.6960
v  4.3385 12.0195 -4.8002
v  10.2877 7.9753 -4.2899
v  -9.2973 -1.0021 -16.4000
v  -14.3956 -1.0021 -8.0305
v  3.7876 12.8131 1.2743
v  9.5427 7.6726 1.9110
v  -6.1675 13.0486 1.0029
v  -14.3837 12.3815 0.6121
v  -16.2820 -1.0021 0.9365
v  2.7821 12.2315 5.4319
v  7.8331 7.4616 8.0889
v  -3.9082 11.4645 10.4766
v  1.2066 6.2751 13.5232
v  -5.7076 12.4303 6.3171
v  -12.7736 11.9507 7.3342
v  -9.5843 9.8852 14.2110
v  -13.7416 -1.0021 10.1140
v  5.1316 -1.0021 15.2932
v  9.9342 -1.0021 11.6446
v  13.7147 -1.0021 9.3489
v  15.4264 -1.0021 2.5728
v  16.2820 -1.0021 -3.7941
v  13.5453 -1.0021 -9.3071
v  9.6342 -1.0021 -14.3962
# 40 vertices

vn -0.3523 -0.1031 -0.9302
vn -0.3876 -0.1040 -0.9160
vn -0.4364 -0.1910 -0.8793
vn -0.3782 -0.1438 -0.9145
vn -0.7149 -0.0437 -0.6979
vn 0.3387 0.4731 -0.8133
vn 0.4603 0.5113 -0.7258
vn 0.4612 0.5004 -0.7327
vn 0.3145 0.5119 -0.7994
vn 0.3591 0.5100 0.7816
vn 0.3799 0.5495 0.7441
vn 0.3161 0.5281 0.7882
vn -0.7554 0.0633 0.6522
vn -0.8118 0.0913 0.5767
vn -0.7990 0.0876 0.5949
vn 0.4292 0.5122 -0.7439
vn 0.3974 0.4327 -0.8092
vn 0.5247 0.6827 -0.5085
vn 0.6298 0.6000 -0.4933
vn -0.1614 0.8762 -0.4540
vn -0.1229 0.9017 -0.4144
vn -0.1403 0.8148 -0.5626
vn -0.1801 0.9323 -0.3135
vn -0.0570 0.9813 -0.1839
vn 0.5619 0.7715 -0.2984
vn 0.6992 0.6229 -0.3510
vn 0.0644 0.9671 -0.2462
vn -0.8776 -0.0130 -0.4792
vn -0.8520 -0.0681 -0.5190
vn -0.9468 0.0447 -0.3186
vn -0.9724 0.0390 -0.2302
vn 0.6214 0.7831 0.0254
vn 0.6465 0.7563 0.1000
vn 0.7269 0.6691 0.1547
vn 0.6976 0.7071 0.1156
vn 0.1371 0.9827 -0.1244
vn -0.0343 0.9965 0.0759
vn 0.0662 0.9974 0.0292
vn -0.1241 0.9922 -0.0085
vn -0.9894 0.1412 0.0339
vn -0.9917 0.1088 0.0689
vn 0.5919 0.7662 0.2503
vn 0.7198 0.6574 0.2231
vn 0.3647 0.7145 0.5970
vn 0.3126 0.6909 0.6519
vn 0.3841 0.5600 0.7340
vn 0.4526 0.5651 0.6898
vn -0.0075 0.9686 0.2487
vn 0.0399 0.9861 0.1612
vn -0.0130 0.9856 0.1686
vn -0.0531 0.9841 0.1696
vn -0.0586 0.9483 0.3120
vn -0.9355 0.1396 0.3245
vn -0.9041 0.1321 0.4063
vn -0.8550 0.1370 0.5002
vn 0.2563 0.6257 0.7367
vn 0.4704 0.4590 0.7537
vn 0.4989 0.4443 0.7441
vn 0.4665 0.4385 0.7682
vn 0.7905 0.5790 0.1997
vn 0.8083 0.5656 0.1635
vn 0.8237 0.5561 0.1107
vn 0.7770 0.4975 -0.3857
vn 0.7621 0.4696 -0.4458
vn 0.6488 0.4505 -0.6133
vn -0.2833 -0.0564 -0.9574
vn 0.0000 -1.0000 -0.0000
# 67 vertex normals

vt 3.0749 6.0898 19.4967
vt 3.1466 5.9936 18.1252
vt 3.3513 5.9635 17.6904
vt 3.4259 6.0620 19.0344
vt 3.4833 5.9344 17.4798
vt 3.2138 5.7307 20.2982
vt 3.4833 5.6713 18.7556
vt 1.9596 5.8669 47.6306
vt 2.0383 5.6422 45.4154
vt 2.1222 5.9124 45.7579
vt 2.0039 6.0133 45.4004
vt 3.0680 5.8843 20.2227
vt 2.9729 5.7586 23.5509
vt 3.0488 5.5692 23.8406
vt 2.8455 6.1099 25.6811
vt 2.8163 5.9102 27.1536
vt 2.8431 5.6717 27.6952
vt 2.8713 5.4722 28.2225
vt 3.2573 6.2790 20.7807
vt 2.9119 6.4857 26.6631
vt 2.6899 5.6658 32.1197
vt 2.6831 5.4558 32.8183
vt 2.6618 5.9004 31.9939
vt 2.6439 6.0861 32.0347
vt 2.5558 6.4662 32.8817
vt 2.5849 5.6743 35.2371
vt 2.4948 5.4946 37.4106
vt 2.4412 5.8218 39.1360
vt 2.3077 5.6609 41.6232
vt 2.5385 5.8736 36.0068
vt 2.4968 6.0272 36.9741
vt 2.3391 5.9513 42.1056
vt 2.2281 6.3223 39.5981
vt 2.1200 5.4435 43.1289
vt 2.2699 5.2691 40.5214
vt 2.3683 5.1459 38.5683
vt 2.6541 5.0692 33.5166
vt 2.9310 5.0678 28.9281
vt 3.1762 5.2013 24.9449
vt 3.3754 5.4195 21.4603
vt 5.0068 8.7528 21.4603
vt 4.3090 8.9715 38.5683
vt 4.2247 8.8671 40.5214
vt 5.1142 8.6047 18.7556
vt 5.0761 8.3662 19.0344
vt 5.1579 8.4271 17.4798
vt 3.9889 8.5869 45.4154
vt 3.8862 8.4246 47.6306
vt 3.9642 8.3365 45.4004
vt 4.0956 8.7374 43.1289
vt 4.9905 8.1752 20.7807
vt 4.8695 8.8910 24.9449
vt 4.5198 8.9956 33.5166
vt 4.7148 8.9956 28.9281
vt 4.7182 8.0557 26.6631
vt 4.1750 8.1487 39.5981
vt 4.4408 8.0352 32.8817
# 57 texture coords

g Rock_03
s 1
f 1/1/1 2/2/2 3/3/3 4/4/4 
s 2
f 3/3/5 5/5/5 4/4/5 
s 4
f 3/3/6 6/6/7 7/7/8 5/5/9 
s 1
f 8/8/10 9/9/11 10/10/12 
s 2
f 8/8/13 10/10/14 11/11/15 
s 4
f 12/12/16 6/6/7 3/3/6 2/2/17 
f 6/6/7 12/12/16 13/13/18 14/14/19 
s 8
f 1/1/20 12/12/21 2/2/22 
f 1/1/20 15/15/23 16/16/24 12/12/21 
s 4
f 14/14/19 13/13/18 17/17/25 18/18/26 
s 8
f 13/13/27 12/12/21 16/16/24 
s 2
f 1/1/28 19/19/29 20/20/30 15/15/31 
f 17/17/32 21/21/33 22/22/34 18/18/35 
s 8
f 17/17/36 13/13/27 16/16/24 
f 16/16/24 23/23/37 21/21/38 17/17/36 
f 24/24/39 23/23/37 16/16/24 15/15/23 
s 2
f 20/20/30 25/25/40 24/24/41 15/15/31 
f 21/21/33 26/26/42 27/27/43 22/22/34 
s 1
f 26/26/44 28/28/45 29/29/46 27/27/47 
s 8
f 28/28/48 26/26/49 30/30/50 
f 31/31/51 32/32/52 28/28/48 30/30/50 
s 2
f 31/31/53 33/33/54 32/32/55 
s 1
f 32/32/56 10/10/12 29/29/46 28/28/45 
s 2
f 24/24/41 25/25/40 33/33/54 31/31/53 
s 1
f 10/10/12 9/9/11 34/34/57 29/29/46 
s 2
f 11/11/15 10/10/14 32/32/55 33/33/54 
s 1
f 29/29/46 34/34/57 35/35/58 27/27/47 
f 35/35/58 36/36/59 27/27/47 
s 2
f 27/27/43 36/36/60 37/37/61 22/22/34 
f 37/37/61 38/38/62 18/18/35 22/22/34 
s 4
f 18/18/26 38/38/63 39/39/64 14/14/19 
f 14/14/19 39/39/64 40/40/65 6/6/7 
s 8
f 24/24/39 31/31/51 30/30/50 23/23/37 
f 30/30/50 26/26/49 21/21/38 23/23/37 
s 4
f 6/6/7 40/40/65 7/7/8 
s 1
f 4/4/4 19/19/66 1/1/1 
s 8
f 40/41/67 36/42/67 35/43/67 7/44/67 
f 4/45/67 5/46/67 7/44/67 
f 9/47/67 8/48/67 11/49/67 
f 34/50/67 9/47/67 19/51/67 4/45/67 
f 35/43/67 34/50/67 4/45/67 7/44/67 
f 39/52/67 37/53/67 36/42/67 40/41/67 
f 39/52/67 38/54/67 37/53/67 
f 9/47/67 11/49/67 20/55/67 19/51/67 
f 33/56/67 25/57/67 20/55/67 11/49/67 
# 31 polygons - 14 triangles

