# 3ds Max Wavefront OBJ Exporter v0.97b - (c)2007 guruware
# File Created: 27.01.2016 13:14:24

#
# object Rock_24
#

v  -14.8057 -0.9990 -1.4813
v  -16.5494 -0.9990 4.3777
v  -12.6349 6.2343 1.3129
v  -5.2556 -0.9990 -4.9587
v  -2.7845 8.9691 0.3912
v  1.9360 -0.9990 -6.4348
v  10.6047 7.8038 1.0986
v  7.9523 -0.9990 5.7922
v  16.5494 -0.9990 4.7213
v  0.2316 -0.9990 6.4348
v  8.7717 -0.9990 -2.2992
v  -8.1485 -0.9990 6.0162
v  3.0561 8.0677 -4.1081
# 13 vertices

vn -0.8906 0.3697 -0.2650
vn -0.2193 0.4830 -0.8477
vn -0.3102 0.4221 -0.8518
vn -0.2624 0.4652 -0.8454
vn -0.3211 0.4383 -0.8395
vn -0.3191 0.4279 -0.8456
vn 0.0585 0.4752 0.8779
vn 0.0888 0.4477 0.8898
vn 0.1109 0.4414 0.8904
vn -0.0304 0.5154 0.8564
vn -0.0002 0.4989 0.8667
vn 0.5860 0.1630 -0.7938
vn 0.6094 0.1719 -0.7740
vn 0.6629 0.1454 -0.7344
vn -0.1074 0.4943 0.8626
vn -0.0903 0.4963 0.8634
vn 0.0907 0.9926 -0.0811
vn 0.5115 0.1538 -0.8454
vn 0.5396 0.1759 -0.8233
vn -0.1699 0.4610 0.8710
vn -0.5611 0.2701 -0.7825
vn 0.0000 -1.0000 -0.0000
# 22 vertex normals

vt 8.4684 2.3652 50.4480
vt 8.3254 2.1806 48.5224
vt 8.5864 2.1595 49.1934
vt 8.8339 2.4175 48.5561
vt 8.8046 2.0603 46.1817
vt 9.0919 2.3450 46.6995
vt 9.0699 1.9087 39.9772
vt 8.9558 1.6079 37.9818
vt 9.3219 1.6552 34.0377
vt 8.7089 1.7162 41.2870
vt 9.3219 2.0982 41.8297
vt 8.4703 1.8910 44.8766
vt 8.9914 2.0756 45.7705
vt 8.7328 3.8782 44.8766
vt 8.4828 3.8075 48.5224
vt 8.5503 3.6347 50.4480
vt 8.8479 3.5535 48.5561
vt 9.2655 3.6693 41.8297
vt 9.4831 3.9012 34.0377
vt 9.2203 3.9120 37.9818
vt 8.9852 3.9120 41.2870
vt 9.0692 3.5270 46.6995
# 22 texture coords

g Rock_24
s 1
f 1/1/1 2/2/1 3/3/1 
s 2
f 4/4/2 1/1/3 3/3/4 5/5/5 
f 4/4/2 5/5/5 6/6/6 
s 4
f 7/7/7 8/8/8 9/9/9 
f 7/7/7 5/5/10 10/10/11 8/8/8 
s 1
f 11/11/12 7/7/13 9/9/14 
s 4
f 5/5/10 3/3/15 12/12/16 10/10/11 
s 8
f 13/13/17 5/5/17 7/7/17 
s 1
f 11/11/12 6/6/18 13/13/19 7/7/13 
s 4
f 2/2/20 12/12/16 3/3/15 
s 2
f 5/5/5 13/13/21 6/6/6 
s 8
f 12/14/22 2/15/22 1/16/22 4/17/22 
f 11/18/22 9/19/22 8/20/22 
f 11/18/22 8/20/22 10/21/22 6/22/22 
f 4/17/22 6/22/22 10/21/22 12/14/22 
# 7 polygons - 8 triangles

