# 3ds Max Wavefront OBJ Exporter v0.97b - (c)2007 guruware
# File Created: 27.01.2016 13:14:20

#
# object Rock_15
#

v  -12.9186 15.4412 6.9858
v  -6.2923 12.5087 11.0340
v  -0.9329 14.4199 4.5285
v  -8.6003 16.7036 1.4131
v  6.8079 -0.9981 5.2944
v  11.2608 -0.9981 -1.3520
v  3.6923 15.0039 -1.1862
v  1.8225 -0.9981 12.9564
v  -16.2584 -0.9981 10.8898
v  -13.4489 -0.9981 14.8718
v  -11.1140 9.5596 15.5008
v  -17.0171 -0.9981 2.1765
v  -10.8978 -0.9981 18.5841
v  -9.6628 5.4114 20.0874
v  -2.1479 -0.9981 19.7091
v  -8.0552 -0.9981 23.2894
v  -7.7300 1.3520 23.0984
v  -4.1499 -0.9981 23.0670
v  -14.1417 18.7450 -3.3802
v  -19.4726 -0.9981 -5.0568
v  15.3381 -0.9981 -7.2369
v  7.9093 14.1875 -7.5654
v  -8.0316 17.8581 -9.2855
v  -8.9376 -0.9981 -13.5233
v  -4.3713 17.0770 -4.2204
v  0.6665 15.6696 -9.5071
v  -3.5403 16.5473 -13.3560
v  11.4793 12.7372 -12.0358
v  5.9080 13.7706 -14.8844
v  1.0287 14.4394 -17.3337
v  15.2924 10.7934 -15.9370
v  19.4726 -0.9981 -12.5238
v  15.5237 -0.9981 -18.5653
v  10.8354 10.8416 -19.6156
v  5.7921 11.8117 -21.0240
v  12.0704 6.7182 -20.6338
v  -0.9245 -0.9981 -18.8649
v  7.2934 4.2794 -22.9195
v  13.6906 -0.9981 -21.1162
v  8.8981 -0.9981 -23.2894
v  5.1055 -0.9981 -22.5546
# 41 vertices

vn 0.1069 0.9114 0.3974
vn 0.0926 0.8722 0.4803
vn 0.1673 0.9444 0.2829
vn 0.1534 0.9525 0.2631
vn 0.7374 0.4074 0.5387
vn 0.7712 0.3722 0.5165
vn 0.7522 0.3751 0.5417
vn 0.6801 0.3728 0.6313
vn 0.5899 0.4086 0.6964
vn 0.6722 0.5552 0.4898
vn -0.8085 0.1448 0.5704
vn -0.8115 0.1458 0.5659
vn -0.8643 0.1233 0.4877
vn -0.9547 0.2368 0.1803
vn -0.8875 0.2691 0.3740
vn -0.9515 0.2186 0.2165
vn -0.9559 0.2162 0.1990
vn 0.0195 0.8246 0.5654
vn -0.8445 0.1057 0.5250
vn -0.8951 0.0692 0.4405
vn 0.5598 0.5484 0.6212
vn 0.5993 0.6990 0.3902
vn 0.5944 0.6707 0.4437
vn -0.8451 0.1585 0.5106
vn -0.8367 0.0902 0.5402
vn 0.5672 0.6824 0.4610
vn 0.0567 0.0731 0.9957
vn -0.9567 0.1991 0.2122
vn -0.9232 0.2227 0.3134
vn 0.1519 0.9723 0.1775
vn 0.7455 0.3970 0.5354
vn 0.7839 0.3802 0.4910
vn -0.6352 0.2146 -0.7420
vn -0.5868 0.1904 -0.7871
vn -0.6259 0.2114 -0.7507
vn -0.6569 0.2381 -0.7154
vn 0.2086 0.9741 0.0866
vn 0.2412 0.9683 -0.0656
vn 0.2772 0.9575 -0.0793
vn 0.2144 0.9767 -0.0044
vn 0.7644 0.3933 0.5109
vn 0.2531 0.9460 -0.2024
vn 0.2574 0.9462 -0.1962
vn -0.6066 0.1816 -0.7740
vn 0.7399 0.4013 0.5400
vn 0.7163 0.4161 0.5602
vn 0.7278 0.2210 -0.6492
vn 0.8292 0.1371 -0.5420
vn 0.8018 0.1653 -0.5742
vn 0.2633 0.9256 -0.2718
vn 0.2626 0.9133 -0.3113
vn 0.7097 0.2280 -0.6666
vn 0.5971 0.3563 -0.7187
vn -0.5860 0.1531 -0.7957
vn -0.5341 0.1395 -0.8338
vn -0.5404 0.1564 -0.8267
vn 0.3297 0.2241 -0.9171
vn 0.3087 0.2895 -0.9060
vn 0.2968 0.2968 -0.9077
vn 0.3219 0.2462 -0.9142
vn 0.4088 0.1422 -0.9015
vn 0.3868 0.1539 -0.9092
vn -0.5034 0.1273 -0.8546
vn -0.5156 0.1555 -0.8426
vn -0.1902 0.0110 -0.9817
vn 0.2002 0.9754 0.0928
vn 0.2214 0.9725 -0.0716
vn 0.2562 0.9457 -0.2001
vn 0.2200 0.9418 -0.2542
vn 0.5233 0.7930 0.3120
vn 0.7952 0.2027 -0.5714
vn 0.0000 -1.0000 -0.0000
# 72 vertex normals

vt 2.5237 4.1947 15.8855
vt 2.5326 3.9981 15.2212
vt 2.7502 4.0195 18.2931
vt 2.6844 4.2049 18.9946
vt 2.9140 3.4908 19.0253
vt 3.2196 3.5793 22.7385
vt 2.9301 4.0478 21.4391
vt 2.5625 3.4908 15.7335
vt 1.9847 4.3155 17.1093
vt 1.9596 4.1142 15.4032
vt 2.3301 4.0079 13.3362
vt 2.1637 4.6479 21.0867
vt 1.9650 3.9235 14.3832
vt 2.1956 3.8726 12.8679
vt 2.2630 3.5252 14.0278
vt 2.0116 3.7036 13.8969
vt 2.0976 3.7284 13.1967
vt 2.1079 3.5722 14.0767
vt 2.6727 4.3468 20.8156
vt 2.4015 4.8683 25.6269
vt 3.4603 3.7078 26.5033
vt 3.1144 4.0942 25.5989
vt 2.8451 4.3747 24.7534
vt 2.9425 4.9438 31.2727
vt 2.8349 4.2341 22.1826
vt 3.0078 4.2473 25.9782
vt 2.9876 4.3833 27.7858
vt 3.2595 4.1240 28.9166
vt 3.1921 4.2632 30.0505
vt 3.1416 4.3823 31.1231
vt 3.3875 4.1565 32.1256
vt 3.6627 3.8603 30.3757
vt 3.7531 4.1699 35.5553
vt 3.3646 4.2775 34.2031
vt 3.2969 4.3758 34.5282
vt 3.4768 4.2983 36.7896
vt 3.3295 4.8606 35.9310
vt 3.4810 4.4722 38.7857
vt 3.7621 4.2934 38.0950
vt 3.6929 4.5266 40.5355
vt 3.5772 4.6691 39.7114
vt 7.6386 0.5174 15.7335
vt 7.8436 0.0976 15.4032
vt 7.9914 0.0924 17.1093
vt 7.7505 0.7713 19.0253
vt 8.4419 1.2990 40.5355
vt 8.3072 1.3847 38.0950
vt 8.2119 1.3889 35.5553
vt 8.4863 1.1905 39.7114
vt 8.4927 0.9760 35.9310
vt 7.9929 1.3889 30.3757
vt 7.9272 1.1961 26.5033
vt 8.4900 0.6837 31.2727
vt 7.5330 0.3044 14.0278
vt 7.4810 0.1978 14.0767
vt 7.5402 0.0949 13.8969
vt 7.7069 0.1008 14.3832
vt 8.2253 0.2178 21.0867
vt 8.4499 0.2755 25.6269
vt 7.8454 0.9948 22.7385
# 60 texture coords

g Rock_15
s 1
f 1/1/1 2/2/2 3/3/3 4/4/4 
s 2
f 5/5/5 6/6/6 7/7/7 3/3/8 
f 2/2/9 8/8/10 5/5/5 3/3/8 
s 4
f 9/9/11 10/10/12 11/11/13 
s 8
f 9/9/14 11/11/15 1/1/16 12/12/17 
s 1
f 11/11/18 2/2/2 1/1/1 
s 4
f 11/11/13 10/10/12 13/13/19 14/14/20 
s 2
f 11/11/21 15/15/22 8/8/10 2/2/9 
f 11/11/21 14/14/23 15/15/22 
s 4
f 13/13/19 16/16/24 17/17/25 14/14/20 
s 2
f 14/14/23 17/17/26 15/15/22 
s 1
f 18/18/27 17/17/27 16/16/27 
s 8
f 19/19/28 20/20/29 12/12/17 1/1/16 
s 1
f 1/1/1 4/4/4 19/19/30 
s 2
f 6/6/6 21/21/31 22/22/32 7/7/7 
f 23/23/33 24/24/34 20/20/35 19/19/36 
s 1
f 25/25/37 26/26/38 27/27/39 23/23/40 
s 2
f 22/22/32 21/21/31 28/28/41 
s 1
f 26/26/38 29/29/42 30/30/43 27/27/39 
s 2
f 27/27/44 24/24/34 23/23/33 
f 31/31/45 28/28/41 21/21/31 32/32/46 
s 4
f 31/31/47 32/32/48 33/33/49 
s 1
f 34/34/50 35/35/51 30/30/43 29/29/42 
s 4
f 31/31/47 36/36/52 34/34/53 
s 2
f 30/30/54 35/35/55 37/37/56 
s 8
f 38/38/57 35/35/58 34/34/59 36/36/60 
f 36/36/60 39/39/61 40/40/62 38/38/57 
s 2
f 37/37/56 35/35/55 38/38/63 41/41/64 
s 1
f 40/40/65 41/41/65 38/38/65 
s 2
f 27/27/44 30/30/54 37/37/56 24/24/34 
s 1
f 7/7/66 22/22/67 26/26/38 25/25/37 
f 22/22/67 28/28/68 29/29/42 26/26/38 
f 28/28/68 31/31/69 34/34/50 29/29/42 
f 3/3/3 7/7/66 25/25/37 4/4/4 
f 25/25/37 23/23/40 19/19/30 4/4/4 
s 2
f 17/17/26 18/18/70 15/15/22 
s 4
f 33/33/49 39/39/71 36/36/52 31/31/47 
s 16
f 8/42/72 10/43/72 9/44/72 5/45/72 
f 40/46/72 39/47/72 33/48/72 41/49/72 
f 37/50/72 41/49/72 33/48/72 32/51/72 
f 37/50/72 32/51/72 21/52/72 24/53/72 
f 15/54/72 18/55/72 16/56/72 13/57/72 
f 15/54/72 13/57/72 10/43/72 8/42/72 
f 9/44/72 12/58/72 5/45/72 
f 12/58/72 20/59/72 5/45/72 
f 24/53/72 6/60/72 5/45/72 20/59/72 
f 24/53/72 21/52/72 6/60/72 
# 31 polygons - 16 triangles

