# 3ds Max Wavefront OBJ Exporter v0.97b - (c)2007 guruware
# File Created: 27.01.2016 13:14:21

#
# object Rock_20
#

v  9.9763 -1.0007 6.4816
v  6.3166 -1.0007 -1.6930
v  2.0937 5.6994 3.3125
v  1.5452 -1.0007 6.8955
v  -1.3734 4.7544 -3.5102
v  -7.4587 6.7657 1.7898
v  -9.9763 -1.0007 5.9401
v  -9.2257 -1.0007 -1.7562
v  0.6697 -1.0007 -6.8955
# 9 vertices

vn 0.6850 0.6608 -0.3067
vn 0.6357 0.6463 -0.4221
vn 0.6420 0.6755 -0.3626
vn 0.0433 0.4684 0.8825
vn -0.0415 0.4738 0.8796
vn -0.0208 0.4761 0.8792
vn 0.5916 0.6328 -0.4995
vn -0.0775 0.4834 0.8720
vn -0.0721 0.4882 0.8698
vn 0.1409 0.9684 -0.2057
vn -0.9607 0.2614 -0.0937
vn -0.4965 0.4515 -0.7414
vn -0.4611 0.3855 -0.7992
vn -0.4717 0.4048 -0.7834
vn 0.5621 0.5584 -0.6101
vn -0.4339 0.3374 -0.8354
vn 0.0000 -1.0000 -0.0000
# 17 vertex normals

vt 4.5226 9.1197 17.1093
vt 4.5958 9.4883 21.0867
vt 4.2980 9.4071 19.3337
vt 4.1778 9.1815 19.5120
vt 4.2953 9.5931 23.9809
vt 4.1408 9.5244 23.5471
vt 3.8862 9.4881 24.8360
vt 4.0446 9.7558 27.3373
vt 4.4466 9.7558 25.6269
vt 2.2037 9.6914 19.5120
vt 2.1977 9.2720 25.6269
vt 2.3611 9.4381 21.0867
vt 2.4599 9.6914 17.1093
vt 1.8559 9.6453 24.8360
vt 1.8901 9.4131 27.3373
# 15 texture coords

g Rock_20
s 1
f 1/1/1 2/2/2 3/3/3 
s 2
f 1/1/4 3/3/5 4/4/6 
s 1
f 3/3/3 2/2/2 5/5/7 
s 2
f 6/6/8 7/7/9 4/4/6 3/3/5 
s 4
f 3/3/10 5/5/10 6/6/10 
s 1
f 6/6/11 8/8/11 7/7/11 
s 8
f 6/6/12 5/5/13 8/8/14 
s 1
f 9/9/15 5/5/7 2/2/2 
s 8
f 5/5/13 9/9/16 8/8/14 
s 4
f 4/10/17 9/11/17 2/12/17 1/13/17 
f 4/10/17 7/14/17 8/15/17 9/11/17 
# 3 polygons - 8 triangles

