# 3ds Max Wavefront OBJ Exporter v0.97b - (c)2007 guruware
# File Created: 27.01.2016 13:14:18

#
# object Rock_01
#

v  17.1199 -1.0017 15.2787
v  17.2943 2.5286 11.0226
v  11.2758 2.6066 10.6179
v  9.7079 -1.0017 13.8697
v  9.9076 4.1075 -13.4113
v  14.0386 -1.0017 -12.6827
v  12.2924 -1.0017 -15.2787
v  -7.9207 -1.0017 -14.5361
v  -3.6960 5.0325 -11.6573
v  -19.8000 -1.0017 -14.1369
v  -19.5619 3.6580 -11.5354
v  -21.0220 -1.0017 -8.0621
v  20.2370 -1.0017 -8.8053
v  -6.1503 12.2060 -6.1984
v  4.6161 12.1869 -6.7610
v  7.6553 7.8011 -10.9833
v  13.8277 11.8566 -0.2210
v  17.5442 7.7060 -2.7392
v  -19.2300 8.1692 -8.1861
v  -13.8653 10.6926 -6.7867
v  -21.1272 4.3319 -3.5811
v  19.2647 4.8340 4.2924
v  22.2192 -1.0017 0.5660
v  3.4791 12.4516 -3.1400
v  -11.6248 9.1168 -2.6179
v  -11.4710 5.7060 2.2603
v  4.5289 9.6283 1.6082
v  -22.2192 -1.0017 -1.0250
v  16.3158 10.2724 2.3692
v  17.2592 7.2285 6.3044
v  0.7449 4.9845 6.2474
v  20.1224 -1.0017 7.7603
v  -8.9947 -1.0017 8.4680
v  -1.4606 -1.0017 10.7225
v  -8.3949 -1.0017 -4.3794
v  11.7319 -1.0017 1.4599
v  4.5744 -1.0017 -0.6871
# 37 vertices

vn -0.0781 0.7385 0.6697
vn -0.0355 0.7406 0.6710
vn -0.1138 0.7175 0.6872
vn -0.1668 0.6991 0.6953
vn 0.7142 0.5090 -0.4804
vn -0.0784 0.3521 -0.9327
vn -0.0309 0.4479 -0.8935
vn -0.0601 0.5149 -0.8552
vn -0.0940 0.3702 -0.9242
vn -0.0441 0.4782 -0.8771
vn -0.0556 0.5380 -0.8411
vn -0.9680 0.1582 -0.1947
vn -0.9709 0.1448 -0.1905
vn -0.9638 0.1751 -0.2010
vn 0.5068 0.2943 -0.8103
vn -0.0643 0.6022 -0.7958
vn -0.0371 0.6796 -0.7326
vn -0.0712 0.5664 -0.8210
vn 0.4756 0.6933 -0.5415
vn 0.3912 0.7644 -0.5124
vn 0.4311 0.7345 -0.5240
vn 0.4863 0.6573 -0.5757
vn 0.5284 0.6088 -0.5918
vn 0.5528 0.6662 -0.5007
vn -0.0730 0.5980 -0.7982
vn -0.0593 0.5922 -0.8036
vn -0.9691 0.1587 -0.1887
vn -0.9526 0.2233 -0.2064
vn 0.8900 0.4486 -0.0821
vn 0.8873 0.4221 0.1859
vn 0.9183 0.3960 0.0042
vn 0.8933 0.4079 -0.1889
vn -0.0021 0.9973 -0.0736
vn 0.0344 0.9975 -0.0621
vn 0.0354 0.9975 -0.0618
vn 0.0715 0.9962 -0.0504
vn -0.2947 0.8070 0.5118
vn -0.1810 0.8644 0.4690
vn -0.3816 0.7780 0.4991
vn -0.4793 0.6201 0.6211
vn -0.3485 0.6615 0.6640
vn -0.4448 0.7570 0.4787
vn -0.1428 0.8407 0.5223
vn -0.1243 0.7982 0.5894
vn -0.9786 0.1206 -0.1665
vn 0.6662 0.7183 -0.2006
vn 0.8711 0.4889 0.0470
vn 0.8395 0.4598 0.2896
vn -0.0824 0.7903 0.6072
vn -0.0855 0.8207 0.5650
vn -0.1644 0.6971 0.6979
vn -0.0791 0.7481 0.6589
vn 0.8585 0.3663 0.3588
vn 0.8831 0.3350 0.3285
vn -0.3125 0.5851 0.7483
vn -0.2014 0.6420 0.7398
vn 0.8619 0.3724 0.3442
vn -0.5099 0.4614 0.7260
vn 0.0000 -1.0000 -0.0000
# 59 vertex normals

vt 6.7625 4.9996 49.8637
vt 6.7019 5.1846 47.4829
vt 6.5045 5.1332 47.0717
vt 6.4952 4.9570 48.9408
vt 6.3872 5.9602 29.7699
vt 6.5832 6.0642 30.0234
vt 6.4888 6.1307 28.0426
vt 5.8086 6.0888 28.6280
vt 5.9805 5.8949 31.1482
vt 5.4154 5.9089 28.9281
vt 5.5271 5.7662 31.0961
vt 5.3356 5.6781 33.5166
vt 6.8181 5.9336 32.9439
vt 5.9550 5.6299 35.8794
vt 6.2268 5.6690 35.4659
vt 6.3130 5.8304 31.9259
vt 6.4669 5.5402 40.2164
vt 6.5987 5.6250 37.9474
vt 5.6174 5.6393 34.0102
vt 5.7565 5.6328 35.2934
vt 5.5107 5.5220 36.9845
vt 6.7105 5.4225 42.9822
vt 6.9424 5.5596 39.7876
vt 6.2079 5.5725 38.1421
vt 5.8039 5.5111 38.2045
vt 5.7859 5.3442 41.3993
vt 6.2477 5.4225 41.3678
vt 5.3586 5.4015 38.5683
vt 6.5413 5.4828 41.9757
vt 6.6114 5.3682 44.5144
vt 6.1511 5.2181 44.2419
vt 6.8860 5.2689 44.6312
vt 5.7848 5.0198 45.3099
vt 6.0821 4.9570 46.8507
vt 0.0620 8.4740 33.5166
vt 0.0639 8.2859 28.9281
vt 0.4158 8.2064 28.6280
vt 0.4595 8.5119 36.1344
vt 0.0664 8.6906 38.5683
vt 0.5147 8.8984 45.3099
vt 1.2886 8.2183 32.9439
vt 1.4003 8.4860 39.7876
vt 1.0929 8.5717 40.2861
vt 1.0824 8.1377 30.0234
vt 1.3785 8.7121 44.6312
vt 1.3316 8.9530 49.8637
vt 1.1029 8.9530 48.9408
vt 0.8672 8.5483 38.7620
vt 0.7521 8.9227 46.8507
vt 1.0143 8.0690 28.0426
# 50 texture coords

g Rock_01
s 4
f 1/1/1 2/2/2 3/3/3 4/4/4 
s 2
f 5/5/5 6/6/5 7/7/5 
s 8
f 7/7/6 8/8/7 9/9/8 5/5/9 
f 10/10/10 11/11/11 9/9/8 8/8/7 
s 2
f 10/10/12 12/12/13 11/11/14 
s 4
f 5/5/15 13/13/15 6/6/15 
s 8
f 14/14/16 15/15/17 16/16/18 9/9/8 
f 9/9/8 16/16/18 5/5/9 
s 1
f 16/16/19 15/15/20 17/17/21 18/18/22 
f 16/16/19 18/18/22 13/13/23 5/5/24 
s 8
f 19/19/25 20/20/26 11/11/11 
s 2
f 21/21/27 19/19/28 11/11/14 12/12/13 
f 18/18/29 22/22/30 23/23/31 13/13/32 
f 14/14/33 24/24/34 15/15/35 
f 15/15/35 24/24/34 17/17/36 
s 4
f 25/25/37 14/14/38 20/20/39 
f 21/21/40 26/26/41 25/25/37 19/19/42 
f 25/25/37 20/20/39 19/19/42 
f 24/24/43 14/14/38 25/25/37 27/27/44 
s 2
f 12/12/13 28/28/45 21/21/27 
s 8
f 17/17/46 29/29/46 18/18/46 
s 2
f 29/29/47 30/30/48 22/22/30 18/18/29 
s 4
f 27/27/44 29/29/49 17/17/50 24/24/43 
f 26/26/41 31/31/51 27/27/44 25/25/37 
f 27/27/44 30/30/52 29/29/49 
s 2
f 22/22/30 2/2/53 32/32/54 23/23/31 
s 4
f 3/3/3 30/30/52 27/27/44 31/31/51 
s 2
f 22/22/30 30/30/48 2/2/53 
s 4
f 33/33/55 34/34/56 31/31/51 26/26/41 
f 3/3/3 2/2/2 30/30/52 
f 34/34/56 4/4/4 3/3/3 31/31/51 
s 2
f 2/2/53 1/1/57 32/32/54 
s 8
f 20/20/26 14/14/16 9/9/8 11/11/11 
s 4
f 26/26/41 21/21/40 28/28/58 33/33/55 
s 16
f 12/35/59 10/36/59 8/37/59 35/38/59 
f 28/39/59 12/35/59 35/38/59 33/40/59 
f 13/41/59 23/42/59 36/43/59 6/44/59 
f 23/42/59 32/45/59 36/43/59 
f 32/45/59 1/46/59 4/47/59 36/43/59 
f 33/40/59 35/38/59 37/48/59 34/49/59 
f 37/48/59 35/38/59 8/37/59 7/50/59 
f 4/47/59 34/49/59 37/48/59 36/43/59 
f 37/48/59 7/50/59 6/44/59 36/43/59 
# 27 polygons - 16 triangles

