# 3ds Max Wavefront OBJ Exporter v0.97b - (c)2007 guruware
# File Created: 27.01.2016 13:14:19

#
# object Rock_06
#

v  -2.5544 -0.9987 14.0809
v  5.7079 -0.9987 18.2256
v  6.5665 5.9308 19.2256
v  -1.8065 5.6766 14.4681
v  14.6457 9.8318 18.7894
v  18.4708 -0.9987 14.9047
v  14.0860 13.9649 12.7279
v  3.8954 11.9354 9.7055
v  -7.5665 8.9844 6.2271
v  -12.2735 4.1280 10.1319
v  16.0155 -0.9987 9.3199
v  -13.0119 -0.9987 9.7723
v  -19.6419 2.4047 5.9686
v  -18.7722 -0.9987 6.6441
v  6.0746 16.0274 3.4577
v  -3.8789 13.0856 -0.0027
v  13.0047 17.4746 5.3797
v  -20.1417 4.6650 0.7388
v  -19.0975 -0.9987 2.4970
v  -14.6698 7.2014 2.8697
v  14.5868 -0.9987 4.6856
v  14.6767 -0.9987 -0.5535
v  -18.9895 -0.9987 -2.0344
v  -12.8509 9.9696 -4.8734
v  -19.2980 6.1422 -8.0381
v  -18.0624 -0.9987 -8.3360
v  6.1012 17.2260 -6.7960
v  -1.9303 14.5763 -9.6194
v  12.4121 19.1709 -4.8548
v  15.0752 -0.9987 -7.5073
v  -12.0283 9.7568 -11.4733
v  -16.2614 4.8364 -17.8701
v  -16.1346 -0.9987 -14.6111
v  12.7186 18.2840 -13.1197
v  6.7438 16.1813 -14.0087
v  16.0799 -0.9987 -14.3088
v  -11.1671 8.1521 -16.8421
v  -0.2250 13.7289 -15.0457
v  7.7899 -0.9987 -16.3433
v  0.0962 -0.9987 -18.4718
v  -13.7114 1.5986 -20.6098
v  -13.6556 -0.9987 -19.8198
v  -7.0488 -0.9987 -20.6242
v  -12.4883 -0.9987 -23.0754
v  20.0431 -0.9987 22.7732
v  20.1417 -0.9987 20.8233
v  17.2765 0.7303 23.0605
v  15.2807 -0.9987 22.0991
v  16.7355 -0.9987 23.0754
v  13.1797 6.2059 21.8101
v  11.4972 -0.9987 20.7338
# 51 vertices

vn -0.4252 -0.0181 0.9049
vn -0.4170 -0.0702 0.9062
vn -0.4069 -0.0687 0.9109
vn -0.4463 -0.0019 0.8949
vn 0.9462 0.3216 0.0351
vn 0.9148 0.3080 -0.2612
vn 0.9783 0.1966 -0.0659
vn -0.3264 0.7417 0.5859
vn -0.3169 0.7968 0.5145
vn -0.3318 0.7995 0.5007
vn -0.3456 0.7470 0.5679
vn -0.3763 0.8168 0.4373
vn -0.4024 0.7689 0.4969
vn 0.9383 0.1511 -0.3111
vn -0.4416 0.0067 0.8972
vn -0.4262 -0.0022 0.9046
vn -0.4840 0.0345 0.8744
vn -0.4766 0.0524 0.8776
vn -0.3130 0.9064 0.2836
vn -0.3679 0.9066 0.2069
vn -0.2813 0.8982 0.3378
vn -0.9785 -0.2016 0.0442
vn -0.9850 -0.1644 -0.0531
vn -0.9806 -0.1954 0.0159
vn -0.9696 -0.2327 0.0761
vn -0.4486 0.8278 0.3368
vn -0.5108 0.8226 0.2498
vn -0.4746 0.7688 0.4285
vn 0.9865 0.0896 -0.1374
vn 0.9911 0.1138 -0.0691
vn 0.9942 0.1046 0.0249
vn -0.9821 -0.1645 -0.0920
vn -0.4519 0.8899 0.0616
vn -0.5266 0.8472 -0.0698
vn -0.9664 -0.1572 -0.2036
vn -0.9625 -0.1573 -0.2212
vn -0.3045 0.9521 -0.0269
vn -0.3355 0.9362 -0.1045
vn 0.9931 0.1170 0.0006
vn 0.9862 0.1399 0.0888
vn -0.4501 0.8680 -0.2100
vn -0.9082 -0.2034 -0.3657
vn -0.9243 -0.1954 -0.3279
vn -0.2850 0.9483 -0.1395
vn -0.3058 0.9380 -0.1631
vn -0.2830 0.9586 0.0327
vn 0.9763 0.1613 0.1442
vn 0.9898 0.1347 0.0471
vn -0.4336 0.8419 -0.3212
vn -0.5044 0.8128 -0.2914
vn -0.3213 0.9174 -0.2351
vn 0.2129 0.1543 -0.9648
vn 0.0974 0.1398 -0.9854
vn 0.1408 0.1281 -0.9817
vn 0.2371 0.1009 -0.9662
vn 0.1048 0.1862 -0.9769
vn 0.2025 0.2878 -0.9360
vn -0.8640 -0.1634 -0.4763
vn -0.8916 -0.1833 -0.4140
vn 0.1856 0.4455 -0.8758
vn 0.0386 0.3313 -0.9427
vn 0.2873 0.7404 -0.6076
vn 0.2840 0.7319 -0.6194
vn 0.2858 0.7365 -0.6130
vn -0.9343 -0.1220 -0.3350
vn 0.2821 0.7271 -0.6260
vn 0.5318 0.8465 0.0269
vn -0.5483 0.1786 0.8170
vn 0.0910 -0.0199 0.9957
vn 0.6317 0.5334 0.5625
vn 0.5275 0.4077 0.7453
vn 0.5559 0.4406 0.7048
vn 0.6838 0.6048 0.4083
vn -0.3794 -0.0554 0.9236
vn -0.3365 -0.1301 0.9326
vn -0.3532 -0.0743 0.9326
vn -0.3692 -0.0630 0.9272
vn 0.8817 0.4007 -0.2489
vn -0.2915 0.6791 0.6737
vn -0.3235 0.7365 0.5941
vn -0.0484 0.3628 -0.9306
vn 0.0000 -1.0000 -0.0000
# 82 vertex normals

vt 0.8316 1.6061 49.1791
vt 0.5038 1.4907 46.5058
vt 0.5762 1.2663 48.4022
vt 0.8698 1.3680 50.0039
vt 0.4832 1.0348 49.5125
vt 0.1761 0.8043 49.2367
vt 0.6356 0.9225 52.6350
vt 0.8539 1.0853 53.3297
vt 1.1785 1.2396 53.6380
vt 1.2219 1.4877 51.1130
vt 0.2860 0.6129 52.6768
vt 1.2528 1.6708 49.7428
vt 1.5108 1.5073 51.4583
vt 1.5174 1.6457 49.4213
vt 0.9310 0.8984 55.8617
vt 1.1894 1.0087 55.8659
vt 0.7905 0.8162 55.4385
vt 1.6079 1.3524 53.2295
vt 1.6941 1.5694 50.6345
vt 1.4148 1.2937 53.8764
vt 0.3849 0.4768 54.6001
vt 0.5011 0.3343 55.5140
vt 1.8477 1.4276 51.4921
vt 1.4880 1.0503 55.5619
vt 1.7333 1.0958 54.2126
vt 1.9844 1.1821 51.7713
vt 1.0796 0.7243 56.8337
vt 1.2862 0.7688 56.6417
vt 0.9411 0.6611 56.8907
vt 0.6886 0.1859 55.7842
vt 1.5774 0.8736 55.3236
vt 1.8439 0.7856 52.7833
vt 2.0676 0.9100 50.9091
vt 1.0429 0.5644 56.3009
vt 1.1523 0.5830 56.0498
vt 0.8840 0.0620 54.7332
vt 1.6592 0.7203 54.0745
vt 1.3226 0.6245 55.7568
vt 1.2587 0.0620 53.8260
vt 1.5704 0.1734 52.3700
vt 1.9356 0.6341 49.9955
vt 2.0517 0.6481 49.2452
vt 1.8311 0.3551 50.3611
vt 2.0315 0.5015 47.6306
vt 0.0620 1.0787 40.5355
vt 0.0945 1.0079 44.2926
vt 0.1729 1.1423 42.4614
vt 0.1806 1.2507 41.7673
vt 0.1258 1.1979 39.7114
vt 0.4013 1.1326 47.2045
vt 0.2954 1.3556 43.9319
vt 4.9898 1.6312 48.4022
vt 5.1701 1.5130 47.2045
vt 5.2624 1.6312 49.5125
vt 0.0762 7.2120 49.1791
vt 0.5460 7.5729 54.6001
vt 0.4349 7.6691 52.6768
vt 0.0620 7.4918 46.5058
vt 0.1661 7.9239 44.2926
vt 0.1108 7.9450 40.5355
vt 0.0620 7.8569 39.7114
vt 0.0714 7.8046 41.7673
vt 0.3099 7.8054 49.2367
vt 0.0631 7.6830 43.9319
vt 0.0682 6.8693 49.7428
vt 0.6924 7.5115 55.5140
vt 0.8864 6.4904 49.2452
vt 0.9910 6.4836 47.6306
vt 0.9883 6.6644 50.3611
vt 0.7116 6.4842 50.9091
vt 1.0146 6.8891 52.3700
vt 0.5139 6.5063 51.7713
vt 1.0481 7.1286 53.8260
vt 0.1957 6.6118 50.6345
vt 0.8902 7.4377 55.7842
vt 0.3275 6.5564 51.4921
vt 1.0914 7.3837 54.7332
vt 0.0847 6.6714 49.4213
# 78 texture coords

g Rock_06
s 1
f 1/1/1 2/2/2 3/3/3 4/4/4 
f 5/5/5 6/6/6 7/7/7 
s 2
f 3/3/8 7/7/9 8/8/10 4/4/11 
f 8/8/10 9/9/12 10/10/13 4/4/11 
s 1
f 11/11/14 7/7/7 6/6/6 
f 12/12/15 10/10/16 13/13/17 14/14/18 
s 2
f 15/15/19 16/16/20 9/9/12 8/8/10 
f 7/7/9 17/17/21 15/15/19 8/8/10 
s 4
f 13/13/22 18/18/23 19/19/24 14/14/25 
s 2
f 20/20/26 18/18/27 13/13/28 10/10/13 
f 9/9/12 20/20/26 10/10/13 
s 1
f 21/21/29 17/17/30 11/11/14 
f 21/21/29 22/22/31 17/17/30 
s 4
f 18/18/23 23/23/32 19/19/24 
s 2
f 24/24/33 25/25/34 18/18/27 20/20/26 
f 20/20/26 9/9/12 16/16/20 24/24/33 
s 4
f 25/25/35 26/26/36 23/23/32 18/18/23 
s 2
f 27/27/37 28/28/38 16/16/20 15/15/19 
s 1
f 29/29/39 22/22/31 30/30/40 
s 2
f 28/28/38 31/31/41 24/24/33 16/16/20 
s 4
f 25/25/35 32/32/42 33/33/43 26/26/36 
s 2
f 24/24/33 31/31/41 25/25/34 
f 34/34/44 35/35/45 27/27/37 29/29/46 
s 1
f 30/30/40 36/36/47 34/34/48 29/29/39 
s 2
f 31/31/41 37/37/49 32/32/50 25/25/34 
f 38/38/51 37/37/49 31/31/41 28/28/38 
s 8
f 39/39/52 35/35/53 34/34/54 36/36/55 
f 38/38/56 35/35/53 39/39/52 40/40/57 
s 4
f 32/32/42 41/41/58 42/42/59 33/33/43 
s 8
f 40/40/57 43/43/60 37/37/61 38/38/56 
s 1
f 32/32/62 43/43/63 41/41/64 
s 4
f 41/41/58 44/44/65 42/42/59 
s 1
f 44/44/66 41/41/64 43/43/63 
s 16
f 45/45/67 46/46/67 47/47/67 
s 2
f 48/48/68 49/49/68 47/47/68 
s 8
f 49/49/69 45/45/69 47/47/69 
s 4
f 46/46/70 5/5/71 50/50/72 47/47/73 
s 1
f 51/51/74 48/48/75 47/47/76 50/50/77 
f 50/50/77 3/3/3 2/2/2 51/51/74 
f 6/6/6 5/5/5 46/46/78 
s 2
f 3/52/8 50/53/79 5/54/80 
f 38/38/51 28/28/38 27/27/37 35/35/45 
f 29/29/46 27/27/37 15/15/19 17/17/21 
s 1
f 10/10/16 12/12/15 1/1/1 4/4/4 
s 2
f 3/3/8 5/5/80 7/7/9 
s 1
f 17/17/30 7/7/7 11/11/14 
f 22/22/31 29/29/39 17/17/30 
s 8
f 32/32/81 37/37/61 43/43/60 
s off
f 1/55/82 21/56/82 11/57/82 2/58/82 
f 46/59/82 45/60/82 49/61/82 48/62/82 
f 6/63/82 46/59/82 48/62/82 51/64/82 
f 11/57/82 6/63/82 51/64/82 2/58/82 
f 1/55/82 12/65/82 22/66/82 21/56/82 
f 42/67/82 44/68/82 43/69/82 
f 33/70/82 42/67/82 43/69/82 40/71/82 
f 26/72/82 33/70/82 40/71/82 39/73/82 
f 12/65/82 19/74/82 30/75/82 22/66/82 
f 23/76/82 26/72/82 39/73/82 30/75/82 
f 39/73/82 36/77/82 30/75/82 
f 12/65/82 14/78/82 19/74/82 
f 19/74/82 23/76/82 30/75/82 
# 37 polygons - 24 triangles

