# 3ds Max Wavefront OBJ Exporter v0.97b - (c)2007 guruware
# File Created: 27.01.2016 13:14:22

#
# object Rock_21
#

v  3.7355 8.3647 3.9728
v  2.7136 -1.0005 8.7150
v  6.9200 -1.0005 3.1672
v  -1.0442 -1.0005 8.4631
v  -4.2826 6.0860 1.2282
v  -7.3523 -1.0005 4.8644
v  10.4933 -1.0005 -2.0696
v  7.7077 8.6112 -1.9956
v  4.9257 10.0627 1.2588
v  4.7404 6.0631 -4.9168
v  0.6971 5.7258 -1.9693
v  -2.6392 -1.0005 -4.5812
v  -7.8487 -1.0005 -1.8640
v  -12.4477 -1.0005 0.8874
v  7.2705 -1.0005 -8.7150
v  3.1264 -1.0005 -6.9620
v  10.1872 6.1267 -5.7133
v  12.4477 -1.0005 -5.6314
# 18 vertices

vn 0.7956 0.2395 0.5565
vn 0.7784 0.2139 0.5902
vn 0.7941 0.2223 0.5656
vn -0.4101 0.5530 0.7252
vn -0.4062 0.5553 0.7257
vn -0.4343 0.5553 0.7092
vn -0.4650 0.5552 0.6895
vn -0.0595 0.4561 0.8879
vn 0.8326 0.2496 0.4945
vn 0.8265 0.2452 0.5068
vn 0.7868 0.3056 0.5363
vn -0.2498 0.8018 -0.5429
vn -0.3622 0.7575 -0.5432
vn -0.3110 0.7867 -0.5333
vn -0.1525 0.8163 -0.5571
vn -0.4243 0.5193 -0.7418
vn -0.4905 0.5160 -0.7022
vn -0.4197 0.4742 -0.7740
vn -0.4161 0.5314 -0.7379
vn -0.3692 0.8520 0.3712
vn -0.5109 0.5572 0.6546
vn -0.4338 0.5347 -0.7251
vn -0.2813 0.3743 -0.8836
vn -0.3632 0.3347 -0.8695
vn -0.3300 0.4280 -0.8414
vn -0.1355 0.4311 -0.8921
vn 0.5059 0.1507 -0.8493
vn -0.3204 0.7465 -0.5831
vn 0.8434 0.2728 0.4628
vn 0.8673 0.2556 0.4272
vn -0.0966 0.7966 -0.5968
vn 0.0000 -1.0000 -0.0000
# 32 vertex normals

vt 9.0825 8.1503 11.3959
vt 9.0811 7.8406 13.8969
vt 9.3225 7.9878 14.9736
vt 8.9400 7.8406 14.0767
vt 8.8885 8.2011 12.4013
vt 8.6889 7.9982 14.0912
vt 9.4346 8.2017 16.6633
vt 9.1617 8.2487 12.9354
vt 9.0954 8.2110 10.9013
vt 9.1190 8.3417 15.3962
vt 9.0024 8.3048 13.9684
vt 8.8380 8.5038 16.3407
vt 8.6564 8.3578 15.5211
vt 8.5211 8.1955 14.8369
vt 9.2625 8.5683 18.7556
vt 9.0788 8.5765 17.6348
vt 9.2274 8.3188 15.7392
vt 9.4415 8.3736 17.6133
vt 8.6024 7.4717 14.0912
vt 8.6835 7.2836 15.5211
vt 8.8192 7.7166 13.8969
vt 8.7217 7.6570 14.0767
vt 9.1865 7.3115 18.7556
vt 9.2825 7.4671 17.6133
vt 9.1800 7.5355 16.6633
vt 9.0504 7.3005 17.6348
vt 9.0103 7.6263 14.9736
vt 8.8618 7.2836 16.3407
vt 8.5211 7.2931 14.8369
# 29 texture coords

g Rock_21
s 1
f 1/1/1 2/2/2 3/3/3 
s 2
f 4/4/4 1/1/5 5/5/6 6/6/7 
s 4
f 2/2/8 1/1/8 4/4/8 
s 1
f 3/3/3 7/7/9 8/8/10 1/1/1 
f 9/9/11 1/1/1 8/8/10 
s 16
f 10/10/12 11/11/13 9/9/14 8/8/15 
s 32
f 5/5/16 11/11/17 12/12/18 13/13/19 
s 8
f 9/9/20 5/5/20 1/1/20 
s 2
f 5/5/6 14/14/21 6/6/7 
s 32
f 14/14/22 5/5/16 13/13/19 
f 15/15/23 16/16/24 10/10/25 17/17/26 
f 12/12/18 11/11/17 10/10/25 16/16/24 
s 4
f 18/18/27 15/15/27 17/17/27 
s 16
f 5/5/28 9/9/14 11/11/13 
s 1
f 7/7/9 18/18/29 17/17/30 8/8/10 
s 16
f 10/10/12 8/8/15 17/17/31 
s 8
f 6/19/32 13/20/32 2/21/32 4/22/32 
f 15/23/32 18/24/32 7/25/32 16/26/32 
f 16/26/32 7/25/32 3/27/32 12/28/32 
f 12/28/32 3/27/32 2/21/32 13/20/32 
f 6/19/32 14/29/32 13/20/32 
# 11 polygons - 10 triangles

