# 3ds Max Wavefront OBJ Exporter v0.97b - (c)2007 guruware
# File Created: 27.01.2016 13:14:23

#
# object Rock_27
#

v  0.3510 -0.9998 3.5019
v  -3.2977 1.7462 4.1873
v  -1.6965 -0.9998 7.5782
v  -6.6384 -0.9998 4.1963
v  3.4998 -0.9998 -0.8821
v  -2.3409 3.2041 -0.4133
v  -5.1642 -0.9998 -1.2626
v  -4.0677 -0.9998 -7.5782
v  6.6384 -0.9998 -4.4668
# 9 vertices

vn 0.5870 0.7269 0.3566
vn 0.6061 0.7223 0.3330
vn 0.6085 0.7323 0.3057
vn -0.4649 0.5678 0.6793
vn 0.5453 0.7075 0.4496
vn 0.5735 0.7180 0.3944
vn -0.7687 0.6308 -0.1059
vn -0.8004 0.5731 -0.1761
vn -0.7312 0.6793 -0.0622
vn -0.6308 0.7678 0.1121
vn -0.8086 0.5714 -0.1404
vn 0.5395 0.6970 0.4724
vn 0.1532 0.8357 -0.5273
vn 0.0000 -1.0000 -0.0000
# 14 vertex normals

vt 3.4017 8.2554 41.0686
vt 3.5191 8.3112 40.2055
vt 3.4196 8.4035 38.0950
vt 3.6167 8.4035 40.5355
vt 3.3846 8.0891 44.0903
vt 3.5683 8.1943 44.3789
vt 3.7061 8.2391 44.2926
vt 3.7562 8.0251 48.2594
vt 3.3801 7.9245 46.2466
vt 4.7766 9.1445 40.5355
vt 4.9482 9.1412 44.2926
vt 4.8560 9.3423 41.0686
vt 4.7199 9.3172 38.0950
vt 5.1415 9.1197 48.2594
vt 5.1415 9.4580 46.2466
vt 5.0105 9.3969 44.0903
# 16 texture coords

g Rock_27
s 1
f 1/1/1 2/2/2 3/3/3 
s 2
f 2/2/4 4/4/4 3/3/4 
s 1
f 1/1/1 5/5/5 6/6/6 2/2/2 
s 4
f 6/6/7 7/7/8 4/4/9 2/2/10 
f 6/6/7 8/8/11 7/7/8 
s 1
f 9/9/12 6/6/6 5/5/5 
s 2
f 6/6/13 9/9/13 8/8/13 
s 8
f 4/10/14 7/11/14 1/12/14 3/13/14 
f 8/14/14 9/15/14 5/16/14 7/11/14 
f 7/11/14 5/16/14 1/12/14 
# 4 polygons - 6 triangles

