# 3ds Max Wavefront OBJ Exporter v0.97b - (c)2007 guruware
# File Created: 27.01.2016 13:14:21

#
# object Rock_18
#

v  -6.7848 -1.0003 13.7001
v  -7.0859 9.0237 9.8979
v  -15.1849 4.2671 10.4290
v  -14.5162 -1.0003 12.7004
v  -19.1049 -1.0003 8.1462
v  -9.1802 7.6919 3.9251
v  -17.4117 -1.0003 1.4292
v  -4.9023 8.0532 -2.3057
v  -10.3991 -1.0003 -5.6693
v  3.1267 -1.0003 13.7251
v  1.7688 11.9412 7.6662
v  19.1049 -1.0003 12.1579
v  14.7930 -1.0003 6.7205
v  13.2152 6.7536 9.7257
v  12.3584 -1.0003 12.4470
v  11.0434 -1.0003 -0.4170
v  6.3793 12.5191 6.5751
v  1.6442 -1.0003 -12.5988
v  -5.0584 -1.0003 -13.7251
v  -1.2532 5.5310 -11.2512
v  2.9829 8.1917 -5.6819
v  5.6370 -1.0003 -8.8340
# 22 vertices

vn -0.0660 0.3580 0.9314
vn -0.0186 0.3840 0.9232
vn -0.1328 0.3613 0.9229
vn -0.1186 0.3804 0.9172
vn -0.6885 0.2117 0.6937
vn -0.6962 0.6812 -0.2264
vn -0.6433 0.6525 -0.4005
vn -0.6390 0.6779 -0.3635
vn -0.7470 0.6375 -0.1883
vn -0.5071 0.8618 -0.0144
vn -0.4076 0.9112 -0.0602
vn -0.3888 0.9169 -0.0905
vn -0.6857 0.5798 -0.4401
vn -0.6374 0.6068 -0.4749
vn 0.0590 0.3959 0.9164
vn 0.1254 0.4314 0.8934
vn 0.7274 0.3716 -0.5769
vn 0.7385 0.4211 -0.5265
vn 0.6598 0.3845 -0.6456
vn 0.0892 0.3210 0.9429
vn 0.0405 0.3269 0.9442
vn 0.0381 0.3968 0.9171
vn 0.7818 0.4547 -0.4266
vn 0.7578 0.4589 -0.4639
vn 0.1597 0.2669 -0.9504
vn 0.6235 0.4101 -0.6657
vn 0.6192 0.4126 -0.6681
vn 0.7354 0.4355 -0.5191
vn 0.7007 0.4040 -0.5881
vn 0.0780 0.4514 0.8889
vn -0.1520 0.9410 -0.3024
vn -0.2042 0.9468 -0.2487
vn -0.2266 0.9477 -0.2248
vn -0.1846 0.9417 -0.2813
vn -0.1562 0.9322 -0.3265
vn -0.6843 0.5755 -0.4478
vn -0.6845 0.5706 -0.4538
vn 0.0000 -1.0000 -0.0000
# 38 vertex normals

vt 7.5922 2.2536 47.3246
vt 7.4398 2.5405 47.6986
vt 7.2793 2.3618 51.5593
vt 7.3232 2.1908 50.9019
vt 7.1012 2.2441 52.4943
vt 7.2859 2.6106 46.9972
vt 6.9492 2.4417 50.0746
vt 7.2539 2.8150 42.5639
vt 6.9276 2.7789 44.4788
vt 7.8892 2.4551 41.5212
vt 7.5652 2.7375 42.3149
vt 8.2014 2.9960 29.0081
vt 7.9719 3.1715 31.4287
vt 7.8687 2.9016 34.1523
vt 8.0941 2.7380 34.7370
vt 7.7007 3.3116 32.4025
vt 7.6318 2.8356 39.2692
vt 7.1167 3.2889 34.7408
vt 6.9276 3.1079 38.6333
vt 7.1753 3.0701 37.5605
vt 7.3659 3.0269 37.0526
vt 7.3165 3.3522 33.3273
vt 8.3620 6.9613 50.0746
vt 8.3690 6.6585 44.4788
vt 8.6606 7.1499 50.9019
vt 8.4644 7.1448 52.4943
vt 9.1833 6.4076 31.4287
vt 9.3917 6.4378 29.0081
vt 9.2487 6.5847 34.7370
vt 8.9518 6.3280 32.4025
vt 9.0715 6.8051 41.5212
vt 8.8521 7.0110 47.3246
vt 8.6572 6.2547 33.3273
vt 8.3192 6.3694 38.6333
vt 8.4907 6.2547 34.7408
# 35 texture coords

g Rock_18
s 1
f 1/1/1 2/2/2 3/3/3 4/4/4 
s 2
f 3/3/5 5/5/5 4/4/5 
s 4
f 3/3/6 6/6/7 7/7/8 5/5/9 
s 8
f 3/3/10 2/2/11 6/6/12 
s 4
f 6/6/7 8/8/13 9/9/14 7/7/8 
s 1
f 10/10/15 11/11/16 2/2/2 1/1/1 
s 2
f 12/12/17 13/13/18 14/14/19 
s 1
f 15/15/20 12/12/21 14/14/22 
s 2
f 13/13/18 16/16/23 17/17/24 14/14/19 
s 1
f 18/18/25 19/19/25 20/20/25 
s 2
f 18/18/26 20/20/27 21/21/28 22/22/29 
s 1
f 14/14/22 17/17/30 10/10/15 15/15/20 
s 2
f 21/21/28 17/17/24 16/16/23 22/22/29 
s 8
f 21/21/31 8/8/32 11/11/33 17/17/34 
f 21/21/31 20/20/35 8/8/32 
s 4
f 9/9/14 8/8/13 20/20/36 19/19/37 
s 8
f 6/6/12 2/2/11 11/11/33 8/8/32 
s 1
f 11/11/16 10/10/15 17/17/30 
s 8
f 7/23/38 9/24/38 4/25/38 5/26/38 
f 13/27/38 12/28/38 15/29/38 
f 16/30/38 13/27/38 15/29/38 10/31/38 
f 16/30/38 10/31/38 1/32/38 22/33/38 
f 19/34/38 18/35/38 22/33/38 9/24/38 
f 22/33/38 1/32/38 4/25/38 9/24/38 
# 16 polygons - 8 triangles

