g Mesh1
# Vertex Positions: 8
v 0.9375 0 0.9375
v 0.0625 0 0.9375
v 0.0625 0.0625 0.9375
v 0.9375 0.0625 0.9375
v 0.9375 0 0.0625
v 0.9375 0.0625 0.0625
v 0.3125 0 0.0625
v 0.3125 0.0625 0.0625
# Vertex UVs: 18
vt 0.46875 0
vt 0.03125 0
vt 0.03125 0.03125
vt 0.46875 0.03125
vt 0.96875 0
vt 0.5363322 1.126349E-07
vt 0.5363303 0.03125002
vt 0.96875 0.03125
vt 0.823483 8.210755E-08
vt 0.5312501 0
vt 0.53125 0.03125
vt 0.8234829 0.03125008
vt 0.46875 0.5312501
vt 0.1562498 0.53125
vt 0.03125 0.96875
vt 0.46875 0.9687501
vt 0.03125 0.5312501
vt 0.46875 0.84375
# Vertex Normals: 6
vn 0 0 1
vn 1 0 0
vn -0.9615238 0 -0.2747212
vn -7.651857E-08 0 -1
vn 0 -1 0
vn 0 1 0
# Faces: 6
f 4/4/1 3/3/1 2/2/1 1/1/1 
f 6/4/2 4/3/2 1/2/2 5/1/2 
f 3/8/3 8/7/3 7/6/3 2/5/3 
f 8/12/4 6/11/4 5/10/4 7/9/4 
f 1/16/5 2/15/5 7/14/5 5/13/5 
f 8/18/6 3/15/6 4/17/6 6/13/6 


