g Mesh1
# Vertex Positions: 6
v 0.9375 0 0.9375
v 0.0625 0 0.9375
v 0.0625 0.0625 0.9375
v 0.9375 0.0625 0.9375
v 0.9375 0 0.0625
v 0.0625 0 0.0625
# Vertex UVs: 11
vt 0.46875 0
vt 0.03125 0
vt 0.03125 0.03125
vt 0.46875 0.03125
vt 0.96875 0
vt 0.53125 0
vt 0.96875 0.03125
vt 0.46875 0.5312501
vt 0.03125 0.53125
vt 0.03125 0.96875
vt 0.46875 0.9687501
# Vertex Normals: 5
vn 0 0 1
vn 1 0 0
vn -1 0 0
vn 0 -1 0
vn 0 0.9974587 -0.07124705
# Faces: 5
f 4/4/1 3/3/1 2/2/1 1/1/1 
f 4/3/2 1/2/2 5/1/2 
f 3/7/3 6/6/3 2/5/3 
f 1/11/4 2/10/4 6/9/4 5/8/4 
f 6/11/5 3/10/5 4/9/5 5/8/5 


