g Mesh1
# Vertex Positions: 116
v 1 0.249999 0.9375
v 1 0.2499991 0.75
v 1 0.125 0.75
v 1 0.125 0.9375
v 0.9375 0.249999 1
v 0.9375 0.125 1
v 0.75 0.125 1
v 0.75 0.249999 1
v 1 0.249999 1
v 1 0.125 1
v 1 1.75 0.9375002
v 1 1.75 0.75
v 0.9375 1.75 1
v 0.75 1.75 1
v 1 1.75 1
v 0.9375 1.875 0.9375002
v 0.75 1.875 0.9375002
v 0.75 1.875 0.75
v 0.9375 1.875 0.75
v 1 1.875 0.9375002
v 1 1.875 0.75
v 0.75 1.875 1
v 0.9375 1.875 1
v 1 1.875 1
v -1 0.249999 0.9375
v -1 0.125 0.9375
v -1 0.125 0.75
v -1 0.2499991 0.75
v -0.9375 0.249999 1
v -0.75 0.249999 1
v -0.75 0.125 1
v -0.9375 0.125 1
v -1 0.125 1
v -1 0.249999 1
v -1 1.75 0.9375002
v -1 1.75 0.75
v -0.9375 1.75 1
v -0.75 1.75 1
v -1 1.75 1
v -0.9375 1.875 0.75
v -0.75 1.875 0.75
v -0.75 1.875 0.9375002
v -0.9375 1.875 0.9375002
v -1 1.875 0.75
v -1 1.875 0.9375002
v -0.9375 1.875 1
v -0.75 1.875 1
v -1 1.875 1
v -0.75 1.75 0.75
v 0.75 1.75 0.75
v 1 0.2499999 -0.9375
v 1 0.125 -0.9375001
v 1 0.125 -0.75
v 1 0.2499998 -0.75
v 0.9375 0.2499999 -1
v 0.75 0.2499999 -1
v 0.75 0.125 -1
v 0.9375 0.125 -1
v 1 0.2499999 -1
v 1 0.125 -1
v 1 1.75 -0.9374999
v 1 1.75 -0.75
v 0.9375 1.75 -1
v 0.75 1.75 -1
v 0.75 1.75 -0.9374999
v 0.75 0.2499999 -0.9375
v 1 1.75 -1
v 0.9375 1.875 -0.75
v 0.75 1.875 -0.75
v 0.75 1.875 -0.9374998
v 0.9375 1.875 -0.9374998
v 1 1.875 -0.75
v 1 1.875 -0.9374998
v 0.9375 1.875 -1
v 0.75 1.875 -1
v 1 1.875 -1
v 0.75 1.75 -0.75
v -1 0.2499999 -0.9375
v -1 0.2499998 -0.75
v -1 0.125 -0.75
v -1 0.125 -0.9375001
v -0.9375 0.2499999 -1
v -0.9375 0.125 -1
v -0.75 0.125 -1
v -0.75 0.2499999 -1
v -1 0.125 -1
v -1 0.2499999 -1
v -1 1.75 -0.9374999
v -1 1.75 -0.75
v -0.9375 1.75 -1
v -0.75 1.75 -1
v -0.75 0.2499999 -0.9375
v -0.75 1.75 -0.9374999
v -1 1.75 -1
v -0.9375 1.875 -0.9374998
v -0.75 1.875 -0.9374998
v -0.75 1.875 -0.75
v -0.9375 1.875 -0.75
v -1 1.875 -0.9374998
v -1 1.875 -0.75
v -0.75 1.875 -1
v -0.9375 1.875 -1
v -1 1.875 -1
v -0.75 1.75 -0.75
v 0.75 0.249999 0.9375
v 0.75 1.75 0.9375002
v -0.75 0.249999 0.9375
v -0.75 1.75 0.9375002
v -0.9375 0.2499991 0.75
v -0.9375 1.75 0.75
v -0.9375 0.2499998 -0.75
v -0.9375 1.75 -0.75
v 0.9375 1.75 0.75
v 0.9375 0.2499991 0.75
v 0.9375 0.2499998 -0.75
v 0.9375 1.75 -0.75
# Vertex UVs: 49
vt 0.03124999 0.1249995
vt 0.125 0.1249995
vt 0.125 0.0625
vt 0.03124999 0.0625
vt 0.96875 0.1249995
vt 0.96875 0.0625
vt 0.875 0.0625
vt 0.875 0.1249995
vt 1 0.1249995
vt 1 0.0625
vt 0 0.0625
vt 0 0.1249995
vt 0.0312499 0.875
vt 0.125 0.875
vt 0.96875 0.875
vt 0.875 0.875
vt 1 0.875
vt 0 0.875
vt 0.03124989 0.03125
vt 0.125 0.03125
vt 0.03124989 0.9375
vt 0.125 0.9375
vt 0.125 0
vt 0.03124989 0
vt 0.875 0.9375
vt 0.96875 0.9375
vt 0 0.03125
vt 1 0.9375
vt 0 0.9375
vt 0 0
vt 0.125 0.96875
vt 0.03124989 0.96875
vt 0.03124989 1
vt 0.125 1
vt 0 0.96875
vt 0 1
vt 0.875 1
vt 0.8749999 0.9687499
vt 0.875 0.03125
vt 0.9687499 0.03125
vt 0.9687499 0
vt 0.875 0
vt 1 0.03125
vt 1 0
vt 0.9687499 0.96875
vt 0.9687499 1
vt 1 0.96875
vt 1 1
vt 0.8750065 0.9375079
# Vertex Normals: 6
vn 1 0 0
vn 0 0 1
vn 0 1 0
vn -1 0 0
vn 0 0 -1
vn 0 -1 -1.192093E-07
# Faces: 116
f 4/4/1 3/3/1 2/2/1 1/1/1 
f 8/8/2 7/7/2 6/6/2 5/5/2 
f 6/6/2 10/10/2 9/9/2 5/5/2 
f 9/12/1 10/11/1 4/4/1 1/1/1 
f 1/1/1 2/2/1 12/14/1 11/13/1 
f 14/16/2 8/8/2 5/5/2 13/15/2 
f 5/5/2 9/9/2 15/17/2 13/15/2 
f 15/18/1 9/12/1 1/1/1 11/13/1 
f 19/20/3 18/2/3 17/1/3 16/19/3 
f 21/22/1 20/21/1 11/13/1 12/14/1 
f 20/24/3 21/23/3 19/20/3 16/19/3 
f 23/26/2 22/25/2 14/16/2 13/15/2 
f 22/12/3 23/27/3 16/19/3 17/1/3 
f 24/28/2 23/26/2 13/15/2 15/17/2 
f 20/21/1 24/29/1 15/18/1 11/13/1 
f 23/27/3 24/30/3 20/24/3 16/19/3 
f 28/8/4 27/7/4 26/6/4 25/5/4 
f 32/4/2 31/3/2 30/2/2 29/1/2 
f 34/12/2 33/11/2 32/4/2 29/1/2 
f 26/6/4 33/10/4 34/9/4 25/5/4 
f 36/16/4 28/8/4 25/5/4 35/15/4 
f 29/1/2 30/2/2 38/14/2 37/13/2 
f 39/18/2 34/12/2 29/1/2 37/13/2 
f 25/5/4 34/9/4 39/17/4 35/15/4 
f 43/32/3 42/13/3 41/14/3 40/31/3 
f 45/26/4 44/25/4 36/16/4 35/15/4 
f 44/34/3 45/33/3 43/32/3 40/31/3 
f 47/22/2 46/21/2 37/13/2 38/14/2 
f 46/35/3 47/18/3 42/13/3 43/32/3 
f 46/21/2 48/29/2 39/18/2 37/13/2 
f 48/28/4 45/26/4 35/15/4 39/17/4 
f 45/33/3 48/36/3 46/35/3 43/32/3 
f 30/2/2 31/3/2 7/7/2 8/8/2 
f 17/1/3 18/2/3 41/14/3 42/13/3 
f 41/34/5 18/37/5 50/25/5 49/22/5 
f 22/25/2 47/22/2 38/14/2 14/16/2 
f 47/18/3 22/12/3 17/1/3 42/13/3 
f 54/8/1 53/7/1 52/6/1 51/5/1 
f 58/4/5 57/3/5 56/2/5 55/1/5 
f 52/6/1 60/10/1 59/9/1 51/5/1 
f 59/12/5 60/11/5 58/4/5 55/1/5 
f 62/16/1 54/8/1 51/5/1 61/15/1 
f 55/1/5 56/2/5 64/14/5 63/13/5 
f 64/38/4 56/31/4 66/34/4 65/37/4 
f 51/5/1 59/9/1 67/17/1 61/15/1 
f 67/18/5 59/12/5 55/1/5 63/13/5 
f 71/40/3 70/5/3 69/8/3 68/39/3 
f 73/26/1 72/25/1 62/16/1 61/15/1 
f 72/42/3 73/41/3 71/40/3 68/39/3 
f 75/22/5 74/21/5 63/13/5 64/14/5 
f 74/43/3 75/9/3 70/5/3 71/40/3 
f 76/28/1 73/26/1 61/15/1 67/17/1 
f 74/21/5 76/29/5 67/18/5 63/13/5 
f 73/41/3 76/44/3 74/43/3 71/40/3 
f 2/2/1 3/3/1 53/7/1 54/8/1 
f 18/2/3 19/20/3 68/39/3 69/8/3 
f 50/22/4 18/34/4 69/37/4 77/25/4 
f 72/25/1 21/22/1 12/14/1 62/16/1 
f 19/20/3 21/23/3 72/42/3 68/39/3 
f 81/4/4 80/3/4 79/2/4 78/1/4 
f 85/8/5 84/7/5 83/6/5 82/5/5 
f 87/12/4 86/11/4 81/4/4 78/1/4 
f 83/6/5 86/10/5 87/9/5 82/5/5 
f 78/1/4 79/2/4 89/14/4 88/13/4 
f 91/16/5 85/8/5 82/5/5 90/15/5 
f 85/38/1 91/31/1 93/34/1 92/37/1 
f 94/18/4 87/12/4 78/1/4 88/13/4 
f 82/5/5 87/9/5 94/17/5 90/15/5 
f 98/38/3 97/16/3 96/15/3 95/45/3 
f 100/22/4 99/21/4 88/13/4 89/14/4 
f 99/46/3 100/37/3 98/38/3 95/45/3 
f 102/26/5 101/25/5 91/16/5 90/15/5 
f 95/45/3 96/15/3 101/17/3 102/47/3 
f 99/21/4 103/29/4 94/18/4 88/13/4 
f 103/28/5 102/26/5 90/15/5 94/17/5 
f 103/48/3 99/46/3 95/45/3 102/47/3 
f 79/2/4 80/3/4 27/7/4 28/8/4 
f 40/31/3 41/14/3 97/16/3 98/38/3 
f 97/34/1 41/37/1 49/25/1 104/22/1 
f 44/25/4 100/22/4 89/14/4 36/16/4 
f 100/37/3 44/34/3 40/31/3 98/38/3 
f 56/2/5 57/3/5 84/7/5 85/8/5 
f 66/37/3 56/38/3 85/31/3 92/34/3 
f 92/14/5 93/16/5 65/8/5 66/2/5 
f 69/8/3 70/5/3 96/15/3 97/16/3 
f 77/22/2 69/34/2 97/37/2 104/25/2 
f 101/25/5 75/22/5 64/14/5 91/16/5 
f 70/5/3 75/9/3 101/17/3 96/15/3 
f 93/37/6 91/38/6 64/31/6 65/34/6 
f 50/16/3 77/8/3 104/2/3 49/14/3 
f 10/48/6 33/36/6 86/30/6 60/44/6 
f 41/34/5 18/37/5 50/25/5 49/22/5 
f 50/22/4 18/34/4 69/37/4 77/25/4 
f 97/34/1 41/37/1 49/25/1 104/22/1 
f 77/22/2 69/34/2 97/37/2 104/25/2 
f 50/16/3 77/8/3 104/2/3 49/14/3 
f 64/38/4 56/31/4 66/34/4 65/37/4 
f 85/38/1 91/31/1 93/34/1 92/37/1 
f 66/37/3 56/38/3 85/31/3 92/34/3 
f 92/14/5 93/16/5 65/8/5 66/2/5 
f 93/37/6 91/38/6 64/31/6 65/34/6 
f 8/31/4 14/38/4 106/25/4 105/22/4 
f 108/22/1 38/31/1 30/38/1 107/25/1 
f 8/38/3 105/25/3 107/22/3 30/31/3 
f 105/16/2 106/8/2 108/2/2 107/14/2 
f 38/38/6 108/25/6 106/22/6 14/31/6 
f 28/31/5 36/38/5 110/37/5 109/34/5 
f 112/34/2 89/31/2 79/38/2 111/37/2 
f 111/34/3 79/31/3 28/38/3 109/37/3 
f 109/2/4 110/8/4 112/16/4 111/14/4 
f 36/31/6 89/38/6 112/37/6 110/34/6 
f 12/38/5 2/31/5 114/22/5 113/25/5 
f 54/38/2 62/31/2 116/22/2 115/25/2 
f 2/38/3 54/31/3 115/22/3 114/49/3 
f 115/14/1 116/2/1 113/8/1 114/16/1 
f 116/25/6 62/38/6 12/31/6 113/22/6 


