g Mesh1
# Vertex Positions: 136
v -0.8749999 1.25 0.8749999
v -0.8749999 1.25 1
v -1 1.25 1
v -1 1.25 0.8749999
v 0.8749999 1.25 0.8749999
v 1 1.25 0.8749999
v 1 1.25 1
v 0.8749999 1.25 1
v -0.25 1.25 0.8749999
v 0.25 1.25 0.8749999
v 0.25 1.25 1
v -0.25 1.25 1
v -0.8749999 1.25 -1
v -0.8749999 1.25 -0.8749999
v -1 1.25 -0.8749999
v -1 1.25 -1
v -0.8749999 1.25 -0.25
v -0.8749999 1.25 0.25
v -1 1.25 0.25
v -1 1.25 -0.25
v 0.8749999 1.25 -0.8749999
v 0.8749999 1.25 -1
v 1 1.25 -1
v 1 1.25 -0.8749999
v 0.8749999 1.25 0.25
v 0.8749999 1.25 -0.25
v 1 1.25 -0.25
v 1 1.25 0.25
v 0.25 1.25 -0.8749999
v -0.25 1.25 -0.8749999
v -0.25 1.25 -1
v 0.25 1.25 -1
v 1.125 0.375 -0.6249999
v 1.125 0.25 -0.5
v 1.125 0.25 0.5
v 1.125 0.375 0.6249999
v 1.125 0.875 -0.625
v 1.125 0.875 0.6249999
v 1.125 1 0.4999999
v 1.125 1 -0.5
v 1.125 0.375 1
v 1.125 0.25 1
v 1 0.25 1
v 1 0.5 1
v 1.125 0.875 1
v 1 0.75 1
v 1.125 1 1
v 1.125 0.375 -1
v 1.125 0.25 -1
v 1 0.5 -1
v 1 0.25 -1
v 1.125 0.875 -1
v 1.125 1 -1
v 1 0.75 -1
v 0.6249999 0.375 1.125
v 0.5 0.25 1.125
v -0.5 0.25 1.125
v -0.6249999 0.375 1.125
v 1 0.375 1.125
v 1 0.25 1.125
v 0.6249999 0.875 1.125
v -0.625 0.875 1.125
v -0.5 1 1.125
v 0.4999999 1 1.125
v 1 0.875 1.125
v 1 1 1.125
v -1 0.25 1.125
v -1 0.375 1.125
v -1 0.25 1
v -1 0.5 1
v -1 0.875 1.125
v -1 1 1.125
v -1 0.75 1
v 0.6249999 0.375 -1.125
v -0.6249999 0.375 -1.125
v -0.5 0.25 -1.125
v 0.5 0.25 -1.125
v 1 0.25 -1.125
v 1 0.375 -1.125
v -0.625 0.875 -1.125
v 0.6249999 0.875 -1.125
v 0.4999999 1 -1.125
v -0.5 1 -1.125
v 1 0.875 -1.125
v 1 1 -1.125
v -1 0.375 -1.125
v -1 0.25 -1.125
v -1 0.5 -1
v -1 0.25 -1
v -1 0.875 -1.125
v -1 1 -1.125
v -1 0.75 -1
v -1.125 0.375 0.6249999
v -1.125 0.375 -0.625
v -1 0.5 -0.75
v -1 0.5 0.75
v -1.125 0.375 1
v -1.125 0.375 -1
v -1 0.75 0.7499999
v -1 0.75 -0.75
v -1.125 0.875 -0.625
v -1.125 0.875 0.6249999
v -1.125 0.875 1
v -1.125 0.875 -1
v -0.75 1.375 0.75
v 0 1.375 0.75
v 0.75 1.375 0.75
v 0 1.25 0.875
v -0.75 1.375 -0.75
v -0.75 1.375 0
v -0.875 1.25 0
v 0.75 1.375 0
v 0.75 1.375 -0.75
v 0.875 1.25 0
v 0 1.375 -0.75
v 0 1.25 -0.875
v 0.7499999 0.5 -1
v -0.7499999 0.5 -1
v 0.7499999 0.75 -1
v -0.75 0.75 -1
v -0.7499999 0.5 1
v 0.7499999 0.5 1
v 0.7499999 0.75 1
v -0.75 0.75 1
v -1.125 0.25 0.5
v -1.125 0.25 -0.5
v -1.125 0.25 1
v -1.125 0.25 -1
v -1.125 1 -0.5
v -1.125 1 0.4999999
v -1.125 1 1
v -1.125 1 -1
v 1 0.5 0.7499999
v 1 0.5 -0.7499999
v 1 0.75 0.75
v 1 0.75 -0.75
# Vertex UVs: 95
vt 0.06250001 0.9375
vt 5.355105E-09 0.9375
vt 3.72529E-09 1
vt 0.06250001 1
vt 0.06250004 0.06250003
vt 0.06250004 3.72529E-09
vt 2.980232E-08 3.72529E-09
vt 2.817251E-08 0.06250003
vt 0.06250002 0.625
vt 0.06250003 0.375
vt 2.002344E-08 0.375
vt 1.350418E-08 0.625
vt 0.9999999 0.9375
vt 0.9374999 0.9375
vt 0.9374999 1
vt 0.9999999 1
vt 0.6249999 0.9375
vt 0.375 0.9375
vt 0.375 1
vt 0.6249999 1
vt 0.9374999 0.06250003
vt 0.9999999 0.06250003
vt 0.9999999 3.72529E-09
vt 0.9374999 3.72529E-09
vt 0.375 0.06250003
vt 0.6249999 0.06250003
vt 0.6249999 3.72529E-09
vt 0.375 3.72529E-09
vt 0.9374999 0.375
vt 0.9374999 0.625
vt 0.9999999 0.625
vt 0.9999999 0.375
vt 0.8124999 0.1875
vt 0.7499999 0.125
vt 0.25 0.125
vt 0.1875 0.1875
vt 0.8125 0.4375
vt 0.1875001 0.4375
vt 0.2500001 0.5
vt 0.75 0.5
vt 1.0625 0.1875
vt 1.0625 0.125
vt 1 0.125
vt 1 0.25
vt 2.980232E-08 0.125
vt 3.72529E-08 0.1875
vt 1.0625 0.4375
vt 1.0625 0.5
vt 6.705522E-08 0.4375
vt 7.45058E-08 0.5
vt 0.9999999 0.1875
vt -1.601875E-08 0.25
vt -0.06250001 0.125
vt -0.06250001 0.1875
vt 1 0.4375
vt 1 0.5
vt -0.06250001 0.4375
vt -0.06250001 0.5
vt 1 -0.09375002
vt 3.373303E-08 -0.09375002
vt -0.09374997 9.039063E-10
vt -0.09374996 0.9999999
vt 1.0625 0.8124999
vt 1 0.875
vt 1.0625 -4.364449E-09
vt 1.0625 0.9999998
vt 0.8749999 -1.676381E-08
vt 0.125 -1.676381E-08
vt 0.1875 -0.02812503
vt 0.8125001 -0.02812503
vt 1 -0.02812502
vt 2.482443E-08 -0.02812502
vt 0.875 0.5
vt 0.5 0.5
vt 0.1250001 0.5000001
vt 0.06250007 0.5625
vt 0.5000001 0.5625
vt 0.9375 0.5625
vt 0.8750001 0.125
vt 0.5000001 0.125
vt 0.125 0.125
vt 0.1250001 0.875
vt 0.5 0.875
vt 0.8750002 0.875
vt 0.1875001 1.0625
vt 0.1250001 1
vt 0.8750001 1
vt 0.8124999 1.0625
vt 4.127035E-08 1.0625
vt 2.514571E-08 0.8749999
vt -0.02812498 0.8125
vt -0.02812498 0.1875
vt -0.02812497 0.9999999
vt 0.9999999 1.0625
vt -0.02812498 -8.49364E-09
# Vertex Normals: 17
vn 0 1 0
vn 1 0 0
vn 0 0 1
vn 0 0 -1
vn 0.8944272 0.4472135 0
vn -1 0 0
vn 0 0.4472135 0.8944272
vn 0 0.4472135 -0.8944272
vn -0.7071068 0.7071067 0
vn -0.7071068 -0.7071068 0
vn 0 0.7071068 0.7071067
vn 0.7071067 0.7071068 0
vn 0 0.7071068 -0.7071067
vn 0 -0.7071068 -0.7071068
vn 0 -0.7071068 0.7071068
vn -0.8944272 0.4472135 0
vn 0.7071068 -0.7071068 0
# Faces: 89
f 4/4/1 3/3/1 2/2/1 1/1/1 
f 8/8/1 7/7/1 6/6/1 5/5/1 
f 12/12/1 11/11/1 10/10/1 9/9/1 
f 11/11/1 8/8/1 5/5/1 10/10/1 
f 2/2/1 12/12/1 9/9/1 1/1/1 
f 16/16/1 15/15/1 14/14/1 13/13/1 
f 20/20/1 19/19/1 18/18/1 17/17/1 
f 19/19/1 4/4/1 1/1/1 18/18/1 
f 15/15/1 20/20/1 17/17/1 14/14/1 
f 24/24/1 23/23/1 22/22/1 21/21/1 
f 28/28/1 27/27/1 26/26/1 25/25/1 
f 5/5/1 6/6/1 28/28/1 25/25/1 
f 27/27/1 24/24/1 21/21/1 26/26/1 
f 32/32/1 31/31/1 30/30/1 29/29/1 
f 21/21/1 22/22/1 32/32/1 29/29/1 
f 31/31/1 13/13/1 14/14/1 30/30/1 
f 36/36/2 35/35/2 34/34/2 33/33/2 
f 40/40/2 39/39/2 38/38/2 37/37/2 
f 44/44/3 43/43/3 42/42/3 41/41/3 
f 41/46/2 42/45/2 35/35/2 36/36/2 
f 47/48/3 7/31/3 46/32/3 45/47/3 
f 39/39/2 47/50/2 45/49/2 38/38/2 
f 34/34/2 49/43/2 48/51/2 33/33/2 
f 48/54/4 49/53/4 51/45/4 50/52/4 
f 53/56/2 40/40/2 37/37/2 52/55/2 
f 23/12/4 53/58/4 52/57/4 54/11/4 
f 23/23/5 7/7/5 47/60/5 53/59/5 
f 58/36/3 57/35/3 56/34/3 55/33/3 
f 56/34/3 60/43/3 59/51/3 55/33/3 
f 59/54/2 60/53/2 43/45/2 44/52/2 
f 64/40/3 63/39/3 62/38/3 61/37/3 
f 66/56/3 64/40/3 61/37/3 65/55/3 
f 7/12/2 66/58/2 65/57/2 46/11/2 
f 68/46/3 67/45/3 57/35/3 58/36/3 
f 70/44/6 69/43/6 67/42/6 68/41/6 
f 63/39/3 72/50/3 71/49/3 62/38/3 
f 72/48/6 3/31/6 73/32/6 71/47/6 
f 3/3/7 72/62/7 66/61/7 7/7/7 
f 77/35/4 76/34/4 75/33/4 74/36/4 
f 79/46/4 78/45/4 77/35/4 74/36/4 
f 50/44/2 51/43/2 78/42/2 79/41/2 
f 83/40/4 82/39/4 81/38/4 80/37/4 
f 82/39/4 85/50/4 84/49/4 81/38/4 
f 85/48/2 23/31/2 54/32/2 84/47/2 
f 76/34/4 87/43/4 86/51/4 75/33/4 
f 86/54/6 87/53/6 89/45/6 88/52/6 
f 91/56/4 83/40/4 80/37/4 90/55/4 
f 16/12/6 91/58/6 90/57/6 92/11/6 
f 23/3/8 85/62/8 91/61/8 16/7/8 
f 96/43/9 95/64/9 94/63/9 93/41/9 
f 97/65/9 70/23/9 96/43/9 93/41/9 
f 95/64/9 88/16/9 98/66/9 94/63/9 
f 102/70/10 101/69/10 100/68/10 99/67/10 
f 73/23/10 103/71/10 102/70/10 99/67/10 
f 101/69/10 104/72/10 92/7/10 100/68/10 
f 1/78/11 108/77/11 5/76/11 107/75/11 106/74/11 105/73/11 
f 14/78/9 111/77/9 1/76/9 105/75/9 110/74/9 109/73/9 
f 5/78/12 114/77/12 21/76/12 113/75/12 112/74/12 107/73/12 
f 21/78/13 116/77/13 14/76/13 109/75/13 115/74/13 113/73/13 
f 110/73/1 105/84/1 106/83/1 107/82/1 112/75/1 113/81/1 115/80/1 109/79/1 
f 75/88/13 118/87/13 117/86/13 74/85/13 
f 117/86/13 50/3/13 79/89/13 74/85/13 
f 120/45/14 80/92/14 81/91/14 119/90/14 
f 81/91/14 84/93/14 54/3/14 119/90/14 
f 86/94/13 88/16/13 118/87/13 75/88/13 
f 92/7/14 90/95/14 80/92/14 120/45/14 
f 122/86/11 121/87/11 58/88/11 55/85/11 
f 59/89/11 44/3/11 122/86/11 55/85/11 
f 61/91/15 62/92/15 124/45/15 123/90/15 
f 46/3/15 65/93/15 61/91/15 123/90/15 
f 58/88/11 121/87/11 70/16/11 68/94/11 
f 124/45/15 62/92/15 71/95/15 73/7/15 
f 126/35/6 125/34/6 93/33/6 94/36/6 
f 125/34/6 127/43/6 97/51/6 93/33/6 
f 97/54/3 127/53/3 69/45/3 70/52/3 
f 88/44/4 89/43/4 128/42/4 98/41/4 
f 98/46/6 128/45/6 126/35/6 94/36/6 
f 130/40/6 129/39/6 101/38/6 102/37/6 
f 131/56/6 130/40/6 102/37/6 103/55/6 
f 3/12/3 131/58/3 103/57/3 73/11/3 
f 132/48/4 16/31/4 92/32/4 104/47/4 
f 129/39/6 132/50/6 104/49/6 101/38/6 
f 3/23/16 16/7/16 132/60/16 131/59/16 
f 33/63/12 134/64/12 133/43/12 36/41/12 
f 136/68/17 37/69/17 38/70/17 135/67/17 
f 36/41/12 133/43/12 44/23/12 41/65/12 
f 135/67/17 38/70/17 45/71/17 46/23/17 
f 48/66/12 50/16/12 134/64/12 33/63/12 
f 54/7/17 52/72/17 37/69/17 136/68/17 


g Mesh2
# Vertex Positions: 61
v 1.875 0 1.125
v 1.625 0 1.125
v 1.625 0 1.375
v 2 0 1
v 1.625 0 1
v 1.375 0 1.625
v 1.125 0 1.625
v 1.125 0 1.875
v 1.5 0 1.5
v 1.125 0 1.125
v 1.125 0 1
v 1 0 1.625
v 1 0 2
v 1 0 1.125
v 1 0 1
v -1.125 0 1.875
v -1.125 0 1.625
v -1.375 0 1.625
v -1 0 1.625
v -1 0 2
v -1.625 0 1.375
v -1.625 0 1.125
v -1.875 0 1.125
v -1.5 0 1.5
v -1.125 0 1.125
v -1 0 1.125
v -1.625 0 1
v -2 0 1
v -1.125 0 1
v -1 0 1
v 1.625 0 -1.375
v 1.625 0 -1.125
v 1.875 0 -1.125
v 1.625 0 -1
v 2 0 -1
v 1.125 0 -1.875
v 1.125 0 -1.625
v 1.375 0 -1.625
v 1.5 0 -1.5
v 1.125 0 -1.125
v 1.125 0 -1
v 1 0 -1.625
v 1 0 -2
v 1 0 -1.125
v 1 0 -1
v -1.375 0 -1.625
v -1.125 0 -1.625
v -1.125 0 -1.875
v -1 0 -1.625
v -1 0 -2
v -1.875 0 -1.125
v -1.625 0 -1.125
v -1.625 0 -1.375
v -1.5 0 -1.5
v -1.125 0 -1.125
v -1 0 -1.125
v -1.625 0 -1
v -2 0 -1
v -1.125 0 -1
v -1 0 -1
v 0 0 0
# Vertex UVs: 52
vt 1.4375 1.0625
vt 1.3125 1.0625
vt 1.3125 1.1875
vt 1.5 1
vt 1.3125 1
vt 1.1875 1.3125
vt 1.0625 1.3125
vt 1.0625 1.4375
vt 1.25 1.25
vt 1.0625 1.0625
vt 1 1.3125
vt 1 1.5
vt -0.06249999 1.4375
vt -0.06249999 1.3125
vt -0.1874999 1.3125
vt 1.490116E-08 1.3125
vt 1.490116E-08 1.5
vt -0.3125 1.1875
vt -0.3125 1.0625
vt -0.4374999 1.0625
vt -0.25 1.25
vt -0.06249999 1.0625
vt -0.3125 1
vt -0.5 1
vt -0.06249999 1
vt 1.3125 -0.1874999
vt 1.3125 -0.06249999
vt 1.4375 -0.06249999
vt 1.3125 1.490116E-08
vt 1.5 1.490116E-08
vt 1.0625 -0.4374999
vt 1.0625 -0.3125
vt 1.1875 -0.3125
vt 1.25 -0.25
vt 1.0625 -0.06249999
vt 1 -0.3125
vt 1 -0.5
vt 1 -0.06249999
vt -0.1874999 -0.3125
vt -0.06249999 -0.3125
vt -0.06249999 -0.4374999
vt 1.490116E-08 -0.3125
vt 1.490116E-08 -0.5
vt -0.4374999 -0.06249999
vt -0.3125 -0.06249999
vt -0.3125 -0.1874999
vt -0.25 -0.25
vt -0.06249999 -0.06249999
vt 1.490116E-08 -0.06249999
vt -0.3125 1.490116E-08
vt -0.5 1.490116E-08
vt -0.06249999 1.490116E-08
# Vertex Normals: 1
vn 0 -1 0
# Faces: 56
f 139/98/18 138/97/18 137/96/18 
f 138/97/18 141/100/18 140/99/18 137/96/18 
f 144/103/18 143/102/18 142/101/18 
f 146/105/18 138/97/18 139/98/18 145/104/18 
f 143/102/18 146/105/18 145/104/18 142/101/18 
f 146/105/18 147/66/18 141/100/18 138/97/18 
f 149/107/18 148/106/18 143/102/18 144/103/18 
f 148/106/18 150/94/18 146/105/18 143/102/18 
f 151/16/18 147/66/18 146/105/18 
f 150/94/18 151/16/18 146/105/18 
f 154/110/18 153/109/18 152/108/18 
f 156/112/18 152/108/18 153/109/18 155/111/18 
f 159/115/18 158/114/18 157/113/18 
f 158/114/18 161/117/18 160/116/18 157/113/18 
f 161/117/18 153/109/18 154/110/18 160/116/18 
f 161/117/18 162/89/18 155/111/18 153/109/18 
f 164/119/18 163/118/18 158/114/18 159/115/18 
f 163/118/18 165/120/18 161/117/18 158/114/18 
f 165/120/18 166/3/18 161/117/18 
f 166/3/18 162/89/18 161/117/18 
f 149/107/18 156/112/18 155/111/18 148/106/18 
f 155/111/18 162/89/18 150/94/18 148/106/18 
f 169/123/18 168/122/18 167/121/18 
f 171/125/18 170/124/18 168/122/18 169/123/18 
f 174/128/18 173/127/18 172/126/18 
f 176/130/18 173/127/18 174/128/18 175/129/18 
f 167/121/18 168/122/18 176/130/18 175/129/18 
f 168/122/18 170/124/18 177/65/18 176/130/18 
f 179/132/18 172/126/18 173/127/18 178/131/18 
f 173/127/18 176/130/18 180/133/18 178/131/18 
f 176/130/18 181/23/18 180/133/18 
f 176/130/18 177/65/18 181/23/18 
f 171/125/18 140/99/18 141/100/18 170/124/18 
f 141/100/18 147/66/18 177/65/18 170/124/18 
f 184/136/18 183/135/18 182/134/18 
f 186/138/18 185/137/18 183/135/18 184/136/18 
f 189/141/18 188/140/18 187/139/18 
f 182/134/18 183/135/18 191/143/18 190/142/18 
f 191/143/18 188/140/18 189/141/18 190/142/18 
f 183/135/18 185/137/18 192/144/18 191/143/18 
f 194/146/18 187/139/18 188/140/18 193/145/18 
f 188/140/18 191/143/18 195/147/18 193/145/18 
f 191/143/18 192/144/18 196/7/18 
f 191/143/18 196/7/18 195/147/18 
f 164/119/18 194/146/18 193/145/18 163/118/18 
f 193/145/18 195/147/18 165/120/18 163/118/18 
f 186/138/18 179/132/18 178/131/18 185/137/18 
f 178/131/18 180/133/18 192/144/18 185/137/18 
f 181/23/18 197/74/18 196/7/18 
f 181/23/18 151/16/18 197/74/18 
f 166/3/18 196/7/18 197/74/18 
f 151/16/18 166/3/18 197/74/18 
f 147/66/18 151/16/18 181/23/18 177/65/18 
f 150/94/18 162/89/18 166/3/18 151/16/18 
f 192/94/18 180/89/18 181/3/18 196/16/18 
f 195/66/18 196/16/18 166/23/18 165/65/18 


g Mesh3
# Vertex Positions: 48
v 1.5 0.25 1.5
v 1.5 0.25 1.125
v 1.875 0.25 1.125
v 1.5 0.25 1
v 2 0.25 1
v 1.125 0.25 1.875
v 1.125 0.25 1.5
v 1.125 0.25 1.125
v 1 0.25 1.5
v 1 0.25 2
v -1.5 0.25 1.5
v -1.125 0.25 1.5
v -1.125 0.25 1.875
v -1 0.25 1.5
v -1 0.25 2
v -1.875 0.25 1.125
v -1.5 0.25 1.125
v -1.125 0.25 1.125
v -1.5 0.25 1
v -2 0.25 1
v 1.875 0.25 -1.125
v 1.5 0.25 -1.125
v 1.5 0.25 -1.5
v 1.5 0.25 -1
v 2 0.25 -1
v 1.125 0.25 -1.5
v 1.125 0.25 -1.875
v 1.125 0.25 -1.125
v 1 0.25 -1.5
v 1 0.25 -2
v -1.125 0.25 -1.875
v -1.125 0.25 -1.5
v -1.5 0.25 -1.5
v -1 0.25 -2
v -1 0.25 -1.5
v -1.5 0.25 -1.125
v -1.875 0.25 -1.125
v -1.125 0.25 -1.125
v -1.5 0.25 -1
v -2 0.25 -1
v -1 0.625 -0.875
v -1 0.6249999 0.8749999
v 0.8749999 0.6249999 -1
v -0.875 0.625 -1
v -0.875 0.625 1
v 0.8749999 0.6249999 1
v 1 0.625 0.8749999
v 1 0.625 -0.875
# Vertex UVs: 22
vt -0.0625 -0.25
vt 0 -0.25
vt -0.25 -0.0625
vt -0.25 0
vt -0.25 1.0625
vt -0.25 1
vt -0.0625 1.25
vt 0 1.25
vt 1.0625 -0.25
vt 1 -0.25
vt 1.25 -0.0625
vt 1.25 0
vt 1.25 1.0625
vt 1.25 1
vt 1.0625 1.25
vt 1 1.25
vt 0.9374999 0.3125
vt 0.8749999 0.375
vt 0.125 0.375
vt 0.06250001 0.3125
vt 0.125 0.25
vt 0.8749999 0.25
# Vertex Normals: 0
# Faces: 76
f 200/136/1 199/148/1 198/142/1 
f 202/138/1 201/149/1 199/148/1 200/136/1 
f 198/142/1 204/150/1 203/139/1 
f 198/142/1 199/148/1 205/143/1 
f 198/142/1 205/143/1 204/150/1 
f 199/148/1 201/149/1 42/144/1 205/143/1 
f 207/146/1 203/139/1 204/150/1 206/151/1 
f 204/150/1 205/143/1 60/147/1 206/151/1 
f 205/143/1 42/144/1 43/7/1 
f 205/143/1 43/7/1 60/147/1 
f 210/115/1 209/152/1 208/116/1 
f 212/119/1 211/153/1 209/152/1 210/115/1 
f 208/116/1 214/154/1 213/108/1 
f 208/116/1 215/117/1 214/154/1 
f 208/116/1 209/152/1 215/117/1 
f 209/152/1 211/153/1 67/120/1 215/117/1 
f 217/112/1 213/108/1 214/154/1 216/155/1 
f 214/154/1 215/117/1 127/89/1 216/155/1 
f 215/117/1 69/3/1 127/89/1 
f 215/117/1 67/120/1 69/3/1 
f 212/119/1 207/146/1 206/151/1 211/153/1 
f 206/151/1 60/147/1 67/120/1 211/153/1 
f 220/129/1 219/156/1 218/126/1 
f 222/132/1 218/126/1 219/156/1 221/157/1 
f 224/123/1 223/158/1 220/129/1 
f 223/158/1 225/130/1 220/129/1 
f 225/130/1 219/156/1 220/129/1 
f 225/130/1 49/133/1 221/157/1 219/156/1 
f 227/125/1 226/159/1 223/158/1 224/123/1 
f 226/159/1 78/65/1 225/130/1 223/158/1 
f 78/65/1 51/23/1 225/130/1 
f 51/23/1 49/133/1 225/130/1 
f 201/149/1 202/138/1 222/132/1 221/157/1 
f 42/144/1 201/149/1 221/157/1 49/133/1 
f 230/104/1 229/160/1 228/96/1 
f 229/160/1 232/161/1 231/99/1 228/96/1 
f 234/103/1 233/162/1 230/104/1 
f 235/105/1 229/160/1 230/104/1 
f 233/162/1 235/105/1 230/104/1 
f 235/105/1 87/66/1 232/161/1 229/160/1 
f 237/107/1 236/163/1 233/162/1 234/103/1 
f 236/163/1 128/94/1 235/105/1 233/162/1 
f 89/16/1 87/66/1 235/105/1 
f 128/94/1 89/16/1 235/105/1 
f 237/107/1 217/112/1 216/155/1 236/163/1 
f 216/155/1 127/89/1 128/94/1 236/163/1 
f 226/159/1 227/125/1 231/99/1 232/161/1 
f 78/65/1 226/159/1 232/161/1 87/66/1 
f 95/169/6 96/168/6 239/167/6 99/166/6 100/165/6 238/164/6 
f 96/168/6 70/52/6 239/167/6 
f 73/11/6 99/166/6 239/167/6 
f 70/52/6 73/11/6 239/167/6 
f 88/44/6 95/169/6 238/164/6 
f 92/32/6 238/164/6 100/165/6 
f 92/32/6 88/44/6 238/164/6 
f 117/169/4 118/168/4 241/167/4 120/166/4 119/165/4 240/164/4 
f 50/44/4 117/169/4 240/164/4 
f 54/32/4 240/164/4 119/165/4 
f 54/32/4 50/44/4 240/164/4 
f 88/52/4 241/167/4 118/168/4 
f 92/11/4 120/166/4 241/167/4 
f 88/52/4 92/11/4 241/167/4 
f 243/164/3 123/165/3 124/166/3 242/167/3 121/168/3 122/169/3 
f 44/44/3 243/164/3 122/169/3 
f 46/32/3 123/165/3 243/164/3 
f 44/44/3 46/32/3 243/164/3 
f 70/52/3 121/168/3 242/167/3 
f 73/11/3 242/167/3 124/166/3 
f 73/11/3 70/52/3 242/167/3 
f 134/169/2 245/164/2 136/165/2 135/166/2 244/167/2 133/168/2 
f 44/52/2 133/168/2 244/167/2 
f 46/11/2 244/167/2 135/166/2 
f 46/11/2 44/52/2 244/167/2 
f 50/44/2 245/164/2 134/169/2 
f 54/32/2 136/165/2 245/164/2 
f 50/44/2 54/32/2 245/164/2 


g Mesh4
# Vertex Positions: 0
# Vertex UVs: 10
vt -0.1249999 4.714485E-08
vt -0.1250001 0.125
vt 0.09999935 0.1250001
vt 0.02499999 4.914405E-08
vt -0.2 3.998401E-09
vt -0.2 0.125
vt 1.1875 0.125
vt 1.1875 0
vt 0.09999999 7.996802E-09
vt 1.25 0.125
# Vertex Normals: 4
vn -0.7071069 0 -0.7071071
vn 0.7071068 0 0.7071067
vn 0.7071071 0 -0.7071069
vn -0.7071069 0 0.7071071
# Faces: 28
f 207/43/3 212/45/3 156/7/3 149/23/3 
f 222/43/2 202/45/2 140/7/2 171/23/2 
f 217/43/6 237/45/6 194/7/6 164/23/6 
f 231/43/4 227/45/4 179/7/4 186/23/4 
f 182/173/19 230/172/19 228/171/19 184/170/19 
f 184/170/19 228/171/19 231/175/19 186/174/19 
f 187/177/19 234/176/19 230/43/19 189/65/19 
f 230/172/19 182/173/19 190/178/19 
f 189/65/19 230/43/19 190/23/19 
f 194/159/19 237/179/19 234/176/19 187/177/19 
f 137/177/20 200/176/20 198/43/20 139/65/20 
f 140/159/20 202/179/20 200/176/20 137/177/20 
f 142/173/20 198/172/20 203/171/20 144/170/20 
f 139/65/20 198/43/20 145/23/20 
f 145/178/20 198/172/20 142/173/20 
f 144/170/20 203/171/20 207/175/20 149/174/20 
f 167/65/21 220/43/21 218/176/21 169/177/21 
f 169/177/21 218/176/21 222/179/21 171/159/21 
f 172/170/21 224/171/21 220/172/21 174/173/21 
f 174/173/21 220/172/21 175/178/21 
f 220/43/21 167/65/21 175/23/21 
f 179/174/21 227/175/21 224/171/21 172/170/21 
f 152/170/22 210/171/22 208/172/22 154/173/22 
f 156/174/22 212/175/22 210/171/22 152/170/22 
f 157/65/22 208/43/22 213/176/22 159/177/22 
f 160/23/22 208/43/22 157/65/22 
f 154/173/22 208/172/22 160/178/22 
f 159/177/22 213/176/22 217/179/22 164/159/22 


