g Mesh1
# Vertex Positions: 17
v 0.4375001 0 0.4374999
v -0.4375 0 0.4374999
v -0.4375 0.25 0.4374999
v -0.4375 0.4375001 0.4374999
v 0.4375001 0.4375001 0.4374999
v 0.4375001 0.25 0.4374999
v 0.4375001 0 -0.4375001
v 0.4375001 0.5 0.40625
v 0.4375001 0.5 -8.940697E-08
v 0.4375001 0.5 -0.40625
v 0.4375001 0.4374997 -0.4375001
v 0.4375001 0.25 -0.4375001
v -0.4375 0 -0.4375001
v -0.4375 0.25 -0.4375001
v -0.4375 0.4374999 -0.4375001
v -0.4062499 0.5 -0.40625
v -0.4062501 0.5 0.40625
# Vertex UVs: 26
vt 0.71875 -4.656608E-10
vt 0.28125 -6.984919E-09
vt 0.28125 0.125
vt 0.28125 0.21875
vt 0.7187499 0.21875
vt 0.71875 0.125
vt 0.296875 0.25
vt 0.5 0.25
vt 0.7031249 0.25
vt 0 0
vt 0 0
vt 0 0
vt 0 0
vt 0 0
vt 0.71875 0.2812499
vt 0.2812501 0.28125
vt 0.28125 0.71875
vt 0.7187499 0.71875
vt 0.78125 -0.1074822
vt 0.765625 -0.08126935
vt 0.34375 -0.08126933
vt 0.34375 -0.1074822
vt 0.46875 -0.1599081
vt 0.4843751 -0.1336952
vt 0.890625 -0.1336952
vt 0.90625 -0.1599081
# Vertex Normals: 9
vn 0 0 1
vn 1 0 0
vn -1 0 0
vn 0 0 -1
vn 0 1 0
vn 0 -1 0
vn 0 0.4472136 0.8944272
vn -0.8944272 0.4472136 -1.06624E-07
vn 0 0.4472136 -0.8944271
# Faces: 9
f 6/6/1 5/5/1 4/4/1 3/3/1 2/2/1 1/1/1 
f 12/6/2 11/5/2 10/9/2 9/8/2 8/7/2 5/4/2 6/3/2 1/2/2 7/1/2 
f 3/6/3 4/5/3 15/4/3 14/3/3 13/2/3 2/1/3 
f 14/6/4 15/5/4 11/4/4 12/3/4 7/2/4 13/1/4 
f 17/14/5 8/13/5 9/12/5 10/11/5 16/10/5 
f 1/18/6 2/17/6 13/16/6 7/15/6 
f 5/22/7 8/21/7 17/20/7 4/19/7 
f 4/26/8 17/25/8 16/24/8 15/23/8 
f 15/19/9 16/20/9 10/21/9 11/22/9 


