g Mesh1
# Vertex Positions: 8
v 0.5 0 0.5
v 0 0 0.5
v 0 3 0.5
v 0.5 3 0.5
v 0.5 0 0
v 0.5 3 0
v 0 0 0
v 0 3 0
# Vertex UVs: 13
vt 0.75 0
vt 0.5 0
vt 0.5 1.5
vt 0.75 1.5
vt 0.25 0
vt 0.25 1.5
vt 0.75 0.5
vt 0.5 0.5
vt 0.5 0.75
vt 0.75 0.75
vt 0.5 0.25
vt 0.25 0.25
vt 0.25 0.5
# Vertex Normals: 6
vn 0 0 1
vn 1 0 0
vn -1 0 0
vn 0 0 -1
vn 0 -1 0
vn 0 1 0
# Faces: 6
f 4/4/1 3/3/1 2/2/1 1/1/1 
f 6/3/2 4/6/2 1/5/2 5/2/2 
f 3/4/3 8/3/3 7/2/3 2/1/3 
f 8/3/4 6/6/4 5/5/4 7/2/4 
f 1/10/5 2/9/5 7/8/5 5/7/5 
f 8/8/6 3/13/6 4/12/6 6/11/6 


