g Mesh1
# Vertex Positions: 149
v 0.07365262 0.3526947 0.01487016
v 0.05134738 0.3526947 0.01487016
v 0.0625 0.375 0
v 0.07365263 0.3526947 -0.01487017
v 0.07541788 0.3491642 -0.01291805
v 0.07541787 0.3491642 0.01291804
v 0.049582 0.349164 0.0129179
v 0.049582 0.349164 -0.01291791
v 0.05134737 0.3526947 -0.01487017
v 0.03790068 0.3258013 -5.507247E-09
v 0.08709932 0.3258013 -5.553064E-09
v 0.01562485 0.2410257 0.08931622
v -0.004487164 0.2410257 0.08931622
v 0.005063359 0.2601267 0.07658219
v 0.005063359 0.2601267 0.05743653
v -0.004487173 0.2410257 0.046875
v 0.03486647 0.2758251 0.06611662
v 0.01291254 0.2758251 0.06611662
v 0.09013325 0.2758251 0.06611662
v 0.1120875 0.2758251 0.06611662
v 0.1199365 0.2601269 0.07658204
v 0.1093749 0.2410257 0.08931622
v 0.1199365 0.2601269 0.05743666
v 0.1294872 0.2410257 0.08931622
v 0.1294872 0.2410257 0.046875
v 0.07541787 0.3491642 0.01722383
v 0.06249986 0.3258014 0.03279906
v 0.049582 0.349164 0.017224
v 0.00506336 0.2601267 0.03631345
v 0.1199365 0.2601269 0.03631333
v -0.07812515 0.07147427 0.2023505
v -0.1176454 0 0.25
v -0.125 0 0.25
v -0.08926287 0.07147427 0.2023505
v -0.125 0 0.1801452
v -0.08926287 0.07147426 0.140625
v 0.2031248 0.07147428 0.2023505
v 0.2142629 0.07147428 0.2023505
v 0.25 0 0.25
v 0.2426451 0 0.25
v 0.2142629 0.07147428 0.140625
v 0.25 0 0.1801453
v 0.1093749 0.07147428 0.2023505
v 0.1488951 0 0.25
v 0.06985459 0 0.25
v 0.01562484 0.07147427 0.2023505
v -0.02389544 0 0.25
v 0.05514505 0 0.25
v -0.0312502 0.1562499 0.1458334
v -0.04687507 0.1562499 0.1458334
v -0.03945529 0.1710894 0.1359404
v -0.03945529 0.1710894 0.1019552
v -0.04687501 0.15625 0.09374999
v -0.007637061 0.1989554 0.1173631
v -0.02552231 0.1989554 0.1173631
v 0.1644552 0.1710896 0.1359402
v 0.171875 0.1562499 0.1458334
v 0.1562499 0.1562499 0.1458334
v 0.1644552 0.1710896 0.1019553
v 0.171875 0.15625 0.09375
v 0.1326368 0.1989554 0.1173631
v 0.1505223 0.1989554 0.1173631
v -0.03945529 0.1710894 0.08554482
v 0.1644552 0.1710896 0.08554471
v 0.07541788 0.3491642 -0.01722383
v 0.049582 0.349164 -0.017224
v 0.06249986 0.3258014 -0.03279907
v 0.00506336 0.2601267 -0.03631345
v -0.004487187 0.2410256 -0.04687501
v 0.005063361 0.2601267 -0.05743658
v 0.01291252 0.275825 -0.06611665
v 0.03486645 0.275825 -0.06611665
v 0.1199365 0.2601269 -0.0574367
v 0.1199365 0.2601269 -0.03631333
v 0.1120875 0.275825 -0.06611665
v 0.09013326 0.275825 -0.06611665
v 0.1294872 0.2410256 -0.04687501
v -0.004487194 0.2410256 -0.08931626
v 0.005063361 0.2601267 -0.07658219
v 0.01562483 0.2410256 -0.08931626
v 0.1199365 0.2601269 -0.07658204
v 0.1093749 0.2410256 -0.08931626
v 0.1294872 0.2410256 -0.08931626
v -0.08926287 0.07147427 -0.140625
v -0.125 0 -0.1801452
v -0.125 0 -0.25
v -0.08926287 0.07147426 -0.2023505
v -0.07812512 0.07147426 -0.2023505
v -0.1176454 0 -0.25
v 0.2142629 0.07147428 -0.140625
v 0.2142629 0.07147428 -0.2023505
v 0.25 0 -0.25
v 0.25 0 -0.1801452
v 0.2031248 0.07147428 -0.2023505
v 0.242645 0 -0.25
v 0.1093749 0.07147427 -0.2023505
v 0.06985465 0 -0.25
v 0.1488951 0 -0.25
v 0.01562483 0.07147426 -0.2023505
v -0.02389544 0 -0.25
v 0.05514504 0 -0.25
v -0.03945529 0.1710894 -0.1019552
v -0.04687503 0.1562499 -0.09375
v -0.04687512 0.1562498 -0.1458335
v -0.03945529 0.1710894 -0.1359404
v -0.03125023 0.1562498 -0.1458335
v -0.02552233 0.1989553 -0.1173631
v -0.007637068 0.1989553 -0.1173631
v 0.171875 0.1562499 -0.09375001
v 0.1644552 0.1710896 -0.1019553
v 0.1644552 0.1710896 -0.1359403
v 0.1718751 0.1562499 -0.1458334
v 0.1562499 0.1562499 -0.1458334
v 0.1505223 0.1989553 -0.1173631
v 0.1326368 0.1989553 -0.1173631
v -0.03945529 0.1710894 -0.08554481
v 0.1644552 0.1710896 -0.0855447
v -0.08926287 0.07147427 -0.046875
v -0.125 0 -0.00735473
v -0.125 0 -0.08639521
v 0.2142629 0.07147428 -0.046875
v 0.25 0 -0.08639522
v 0.25 0 -0.00735472
v -0.08926287 0.07147426 0.04687501
v -0.125 0 0.08639529
v 0.2142629 0.07147428 0.04687503
v 0.25 0 0.08639528
v -0.125 0 0.007354781
v 0.25 0 0.007354803
v 0.01562484 0.2410257 0.046875
v 0.1093749 0.2410257 0.046875
v -0.03125015 0.15625 0.09374999
v 0.1562499 0.15625 0.09375
v 0.01562483 0.2410256 -0.04687501
v 0.1093749 0.2410256 -0.04687501
v -0.03125016 0.1562499 -0.09375
v 0.1562499 0.1562499 -0.09375001
v -0.07812513 0.07147427 -0.046875
v 0.2031248 0.07147428 -0.046875
v 0.1093749 0.07147428 -0.046875
v 0.01562483 0.07147427 -0.046875
v -0.07812514 0.07147426 0.04687501
v 0.2031248 0.07147428 0.04687503
v 0.1093749 0.07147427 0.04687502
v 0.01562484 0.07147426 0.04687501
v 0.01562484 0.07147426 0.140625
v 0.1093749 0.07147427 0.140625
v 0.1093749 0.07147428 -0.140625
v 0.01562483 0.07147427 -0.140625
# Vertex UVs: 276
vt 0.5368264 0.1763474
vt 0.5256737 0.1763474
vt 0.5312501 0.1875
vt 0.5074351 0.1763474
vt 0.506459 0.1745821
vt 0.493541 0.1745821
vt 0.4925649 0.1763474
vt 0.5 0.1875
vt 0.4743263 0.1763474
vt 0.4631737 0.1763474
vt 0.46875 0.1875
vt 0.5 0.1629007
vt 0.5078124 0.1205128
vt 0.4977565 0.1205128
vt 0.5025317 0.1300634
vt 0.5287183 0.1300634
vt 0.5382911 0.1300634
vt 0.5446581 0.1205128
vt 0.5234375 0.1205128
vt 0.5174333 0.1379125
vt 0.5064563 0.1379125
vt 0.5330583 0.1379125
vt 0.5450667 0.1379125
vt 0.5560438 0.1379125
vt 0.5599684 0.1300635
vt 0.5546875 0.1205128
vt 0.4712817 0.1300635
vt 0.461709 0.1300635
vt 0.4669417 0.1379125
vt 0.5647436 0.1205128
vt 0.4765625 0.1205128
vt 0.4553419 0.1205128
vt 0.537709 0.1745821
vt 0.53125 0.1629007
vt 0.5247911 0.174582
vt 0.4913881 0.1745821
vt 0.508612 0.174582
vt 0.5181567 0.1300634
vt 0.4818433 0.1300635
vt 0.4609374 0.03573713
vt 0.4411773 0
vt 0.4375 0
vt 0.4553686 0.03573713
vt 0.6011752 0.03573713
vt 0.625 0
vt 0.5900726 0
vt 0.5703125 0.03573713
vt 0.6015624 0.03573714
vt 0.6071314 0.03573714
vt 0.6213225 0
vt 0.4296875 0.03573714
vt 0.4099274 0
vt 0.375 0
vt 0.3988248 0.03573714
vt 0.5546874 0.03573714
vt 0.5744476 0
vt 0.5349273 0
vt 0.5078124 0.03573713
vt 0.4880523 0
vt 0.5275725 0
vt 0.4843749 0.07812493
vt 0.4765625 0.07812493
vt 0.4802724 0.08554471
vt 0.5509776 0.08554471
vt 0.5679702 0.08554471
vt 0.5729167 0.07812493
vt 0.546875 0.07812499
vt 0.4961815 0.09947769
vt 0.4872389 0.09947769
vt 0.5586815 0.09947769
vt 0.5822276 0.08554482
vt 0.5859375 0.07812497
vt 0.5781249 0.07812497
vt 0.4490224 0.08554482
vt 0.453125 0.07812499
vt 0.4270833 0.07812497
vt 0.4320299 0.08554482
vt 0.5663184 0.09947769
vt 0.5752612 0.09947769
vt 0.4413185 0.09947769
vt 0.5427724 0.08554471
vt 0.4572276 0.08554482
vt 0.475209 0.174582
vt 0.4687501 0.1629007
vt 0.4622911 0.1745821
vt 0.4935437 0.1379125
vt 0.4825667 0.1379125
vt 0.4549333 0.1379125
vt 0.4439563 0.1379125
vt 0.4974683 0.1300634
vt 0.5022436 0.1205128
vt 0.4921876 0.1205128
vt 0.4453125 0.1205128
vt 0.4400317 0.1300635
vt 0.4352564 0.1205128
vt 0.5390626 0.03573713
vt 0.5446314 0.03573713
vt 0.5625 0
vt 0.5588227 0
vt 0.3984376 0.03573714
vt 0.3786775 0
vt 0.3928686 0.03573714
vt 0.4453126 0.03573713
vt 0.4650727 0
vt 0.4255525 0
vt 0.4921876 0.03573713
vt 0.5119478 0
vt 0.4724275 0
vt 0.5197276 0.08554471
vt 0.5234376 0.07812489
vt 0.5156251 0.07812489
vt 0.5038185 0.09947767
vt 0.5127612 0.09947767
vt 0.4218751 0.07812493
vt 0.4140625 0.07812493
vt 0.4177724 0.08554481
vt 0.4336816 0.09947767
vt 0.4247388 0.09947767
vt 0.4765625 0.03573713
vt 0.4963226 0
vt 0.4568024 0
vt 0.5234375 0.03573714
vt 0.5431976 0
vt 0.5036774 0
vt 0.625 0.375
vt 0.4375 0.375
vt 0.4375 0.625
vt 0.625 0.625
vt 0.6799067 -0.02343737
vt 0.6990212 -0.02871811
vt 0.6799068 -0.03349337
vt 0.6799062 0.0234376
vt 0.6799061 0.03349373
vt 0.6990209 0.02871841
vt 1.654656 -0.04687474
vt 1.669506 -0.05097731
vt 1.654657 -0.05468715
vt 1.654655 0.04687507
vt 1.654655 0.05468763
vt 1.669505 0.05097771
vt 0.5950718 -0.04687482
vt 0.6099217 -0.05097738
vt 0.5950719 -0.05468725
vt 0.5950708 0.04687505
vt 0.5950707 0.05468764
vt 0.6099209 0.05097771
vt -0.7043508 -0.0234375
vt -0.7043509 -0.03349348
vt -0.7234654 -0.02871823
vt -0.7043512 0.02343743
vt -0.7234658 0.02871826
vt -0.7043512 0.03349356
vt -0.4843747 -0.02343749
vt -0.4843747 -0.03349347
vt -0.5781246 -0.03349348
vt -0.5781248 -0.02343747
vt -0.4843748 0.02343751
vt -0.5781249 0.0234375
vt -0.5781249 0.03349364
vt -0.4843749 0.03349364
vt 0.3697934 -0.04687473
vt 0.3697934 -0.05468714
vt 0.3549435 -0.05097727
vt 0.3697923 0.04687503
vt 0.3549421 0.05097772
vt 0.3697921 0.05468761
vt -0.6195158 -0.04687491
vt -0.6195157 -0.05468732
vt -0.6343656 -0.05097747
vt -0.6195163 0.04687489
vt -0.6343663 0.05097757
vt -0.6195161 0.0546875
vt 0.454629 -0.07031217
vt 0.4546291 -0.07588103
vt 0.4546274 0.07031243
vt 0.4546274 0.07588144
vt 0.454628 0.02343759
vt 0.4546285 -0.02343732
vt 1.578125 -0.07031254
vt 1.578125 -0.07588141
vt 1.484375 -0.07588142
vt 1.484375 -0.07031254
vt 1.578125 0.07031241
vt 1.484375 0.07031238
vt 1.484375 0.07588142
vt 1.578125 0.07588144
vt 1.578125 0.02343745
vt 1.484375 0.02343744
vt 1.578125 -0.02343755
vt 1.484375 -0.02343757
vt 1.569821 -0.07031213
vt 1.569821 -0.07588097
vt 1.569819 0.07031257
vt 1.569819 0.07588158
vt 1.56982 0.02343769
vt 1.569821 -0.02343725
vt -0.5781248 0.007812493
vt -0.5982369 0.007812485
vt -0.5982369 0.02903309
vt -0.5781249 0.02903309
vt -0.4843749 0.007812493
vt -0.484375 0.02903305
vt -0.4642627 0.02903308
vt -0.4642625 0.007812493
vt 1.484375 0.08555011
vt 1.578125 0.08555014
vt 1.578125 0.05468741
vt 1.484376 0.0546874
vt 1.654655 0.05729162
vt 1.669504 0.0523452
vt 1.669505 0.03535266
vt 1.654655 0.03125006
vt 0.5950705 0.05729175
vt 0.6378062 0.04305657
vt 0.595071 0.03125007
vt 0.3697924 0.03125007
vt 0.3549423 0.03535272
vt 0.3549421 0.05234515
vt 0.3697921 0.05729168
vt -0.6195161 0.03124992
vt -0.6622515 0.04305642
vt -0.6195162 0.05729153
vt 0.4546276 0.05468747
vt 0.4546272 0.0855501
vt 1.569819 0.08555024
vt 1.569819 0.05468757
vt 1.669505 0.0271475
vt 0.6799061 0.02903316
vt 0.6799063 0.007812589
vt 0.3549423 0.02714745
vt -0.7043511 0.00781244
vt -0.7043512 0.02903301
vt -0.5781247 -0.06028306
vt -0.5982366 -0.06028303
vt -0.5982367 -0.03906244
vt -0.5781246 -0.03906245
vt -0.4843745 -0.06028301
vt -0.4843746 -0.03906244
vt -0.4642623 -0.03906245
vt -0.4642622 -0.06028304
vt 1.484375 -0.08593751
vt 1.578125 -0.08593747
vt 1.578125 -0.1168002
vt 1.484375 -0.1168003
vt 1.654657 -0.06249971
vt 1.669507 -0.06660227
vt 1.669507 -0.08359484
vt 1.654658 -0.08854151
vt 0.5950719 -0.06249978
vt 0.6378074 -0.07430631
vt 0.595072 -0.08854147
vt 0.3697938 -0.0885413
vt 0.3549435 -0.08359471
vt 0.3549434 -0.0666023
vt 0.3697935 -0.06249966
vt -0.6195155 -0.08854152
vt -0.6622509 -0.07430639
vt -0.6195157 -0.06249986
vt 0.4546295 -0.1167998
vt 0.4546291 -0.0859371
vt 1.569821 -0.08593704
vt 1.569822 -0.1167997
vt 1.669506 -0.05839709
vt 0.6799067 -0.03906233
vt 0.679907 -0.06028292
vt 0.3549432 -0.05839701
vt -0.7043507 -0.06028303
vt -0.7043507 -0.03906245
vt 1.484375 -0.03906257
vt 1.578125 -0.03906252
vt 0.4546286 -0.03906225
vt 1.569821 -0.03906219
vt 1.578125 0.007812448
vt 1.484375 0.007812418
vt 0.4546281 0.007812612
vt 1.56982 0.007812724
# Vertex Normals: 14
vn 0 0.5547003 0.8320503
vn 0.8944272 0.4472136 0
vn -0.8944272 0.4472136 0
vn 0 0.5547003 -0.8320503
vn 0 -1 0
vn -3.128038E-08 -0.4838865 -0.8751308
vn 5.717292E-08 0.4838861 -0.875131
vn 1.294623E-08 -0.4838867 0.8751308
vn 4.358822E-08 0.4838869 0.8751308
vn 1.192093E-07 1 -1.192488E-08
vn 0.8751315 0.4838864 -5.107947E-10
vn 0.8751307 -0.4838864 2.640338E-08
vn -0.8751308 0.4838868 -1.409559E-08
vn -0.8751309 -0.4838867 7.063001E-08
# Faces: 207
f 3/3/1 2/2/1 1/1/1 
f 3/8/2 1/7/2 6/6/2 5/5/2 4/4/2 
f 3/8/3 9/7/3 8/6/3 7/5/3 2/4/3 
f 3/11/4 4/10/4 9/9/4 
f 8/6/3 10/12/3 7/5/3 
f 6/6/2 11/12/2 5/5/2 
f 14/15/1 13/14/1 12/13/1 
f 16/19/3 13/18/3 14/17/3 15/16/3 
f 18/21/1 14/15/1 12/13/1 17/20/1 
f 14/17/3 18/22/3 15/16/3 
f 22/26/1 21/25/1 20/24/1 19/23/1 
f 20/29/2 21/28/2 23/27/2 
f 22/26/1 24/30/1 21/25/1 
f 21/28/2 24/32/2 25/31/2 23/27/2 
f 12/13/1 22/26/1 19/23/1 17/20/1 
f 2/2/1 28/35/1 27/34/1 26/33/1 1/1/1 
f 1/7/2 26/36/2 6/6/2 
f 28/37/3 2/4/3 7/5/3 
f 29/38/3 16/19/3 15/16/3 
f 28/35/1 18/21/1 17/20/1 27/34/1 
f 10/12/3 29/38/3 15/16/3 18/22/3 28/37/3 7/5/3 
f 19/23/1 20/24/1 26/33/1 27/34/1 
f 26/36/2 20/29/2 23/27/2 30/39/2 11/12/2 6/6/2 
f 23/27/2 25/31/2 30/39/2 
f 17/20/1 19/23/1 27/34/1 
f 34/43/1 33/42/1 32/41/1 31/40/1 
f 36/47/3 35/46/3 33/45/3 34/44/3 
f 40/50/1 39/45/1 38/49/1 37/48/1 
f 38/54/2 39/53/2 42/52/2 41/51/2 
f 45/57/1 44/56/1 43/55/1 
f 44/56/1 40/50/1 37/48/1 43/55/1 
f 32/41/1 47/59/1 46/58/1 31/40/1 
f 47/59/1 48/60/1 46/58/1 
f 48/60/1 45/57/1 43/55/1 46/58/1 
f 51/63/1 50/62/1 49/61/1 
f 53/67/3 50/66/3 51/65/3 52/64/3 
f 55/69/1 51/63/1 49/61/1 54/68/1 
f 51/65/3 55/70/3 52/64/3 
f 58/73/1 57/72/1 56/71/1 
f 56/77/2 57/76/2 60/75/2 59/74/2 
f 58/73/1 56/71/1 62/79/1 61/78/1 
f 62/80/2 56/77/2 59/74/2 
f 50/62/1 34/43/1 31/40/1 49/61/1 
f 53/67/3 36/47/3 34/44/3 50/66/3 
f 37/48/1 38/49/1 57/72/1 58/73/1 
f 57/76/2 38/54/2 41/51/2 60/75/2 
f 43/55/1 37/48/1 58/73/1 
f 31/40/1 46/58/1 49/61/1 
f 63/81/3 53/67/3 52/64/3 
f 13/14/1 55/69/1 54/68/1 12/13/1 
f 16/19/3 63/81/3 52/64/3 55/70/3 13/18/3 
f 59/74/2 60/75/2 64/82/2 
f 61/78/1 62/79/1 24/30/1 22/26/1 
f 24/32/2 62/80/2 59/74/2 64/82/2 25/31/2 
f 65/37/2 4/4/2 5/5/2 
f 9/7/3 66/36/3 8/6/3 
f 4/10/4 65/85/4 67/84/4 66/83/4 9/9/4 
f 70/27/3 69/31/3 68/39/3 
f 66/36/3 71/29/3 70/27/3 68/39/3 10/12/3 8/6/3 
f 67/84/4 72/87/4 71/86/4 66/83/4 
f 75/22/2 65/37/2 5/5/2 11/12/2 74/38/2 73/16/2 
f 65/85/4 75/89/4 76/88/4 67/84/4 
f 74/38/2 77/19/2 73/16/2 
f 76/88/4 72/87/4 67/84/4 
f 79/28/3 78/32/3 69/31/3 70/27/3 
f 80/92/4 78/91/4 79/90/4 
f 71/29/3 79/28/3 70/27/3 
f 80/92/4 79/90/4 71/86/4 72/87/4 
f 81/17/2 75/22/2 73/16/2 
f 75/89/4 81/94/4 82/93/4 76/88/4 
f 83/18/2 81/17/2 73/16/2 77/19/2 
f 81/94/4 83/95/4 82/93/4 
f 82/93/4 80/92/4 72/87/4 76/88/4 
f 69/31/3 16/19/3 29/38/3 68/39/3 
f 29/38/3 10/12/3 68/39/3 
f 11/12/2 30/39/2 74/38/2 
f 30/39/2 25/31/2 77/19/2 74/38/2 
f 87/54/3 86/53/3 85/52/3 84/51/3 
f 89/99/4 86/98/4 87/97/4 88/96/4 
f 93/46/2 92/45/2 91/44/2 90/47/2 
f 91/102/4 92/53/4 95/101/4 94/100/4 
f 98/105/4 97/104/4 96/103/4 
f 95/101/4 98/105/4 96/103/4 94/100/4 
f 100/107/4 89/99/4 88/96/4 99/106/4 
f 101/108/4 100/107/4 99/106/4 
f 97/104/4 101/108/4 99/106/4 96/103/4 
f 105/77/3 104/76/3 103/75/3 102/74/3 
f 106/111/4 104/110/4 105/109/4 
f 107/80/3 105/77/3 102/74/3 
f 106/111/4 105/109/4 107/113/4 108/112/4 
f 112/66/2 111/65/2 110/64/2 109/67/2 
f 111/116/4 112/115/4 113/114/4 
f 111/65/2 114/70/2 110/64/2 
f 114/118/4 111/116/4 113/114/4 115/117/4 
f 104/76/3 87/54/3 84/51/3 103/75/3 
f 88/96/4 87/97/4 104/110/4 106/111/4 
f 91/44/2 112/66/2 109/67/2 90/47/2 
f 112/115/4 91/102/4 94/100/4 113/114/4 
f 94/100/4 96/103/4 113/114/4 
f 99/106/4 88/96/4 106/111/4 
f 102/74/3 103/75/3 116/82/3 
f 78/32/3 107/80/3 102/74/3 116/82/3 69/31/3 
f 108/112/4 107/113/4 78/91/4 80/92/4 
f 117/81/2 109/67/2 110/64/2 
f 114/70/2 83/18/2 77/19/2 117/81/2 110/64/2 
f 83/95/4 114/118/4 115/117/4 82/93/4 
f 120/121/3 119/120/3 118/119/3 
f 123/124/2 122/123/2 121/122/2 
f 85/52/3 120/121/3 118/119/3 84/51/3 
f 122/123/2 93/46/2 90/47/2 121/122/2 
f 118/119/3 103/75/3 84/51/3 
f 90/47/2 109/67/2 121/122/2 
f 125/123/3 35/46/3 36/47/3 124/122/3 
f 42/52/2 127/121/2 126/119/2 41/51/2 
f 128/124/3 125/123/3 124/122/3 
f 127/121/2 129/120/2 126/119/2 
f 119/120/3 128/124/3 124/122/3 118/119/3 
f 129/120/2 123/124/2 121/122/2 126/119/2 
f 36/47/3 53/67/3 124/122/3 
f 60/75/2 41/51/2 126/119/2 
f 39/128/5 33/127/5 86/126/5 92/125/5 
f 16/131/6 29/130/6 130/129/6 
f 30/134/6 25/133/6 131/132/6 
f 53/137/7 52/136/7 132/135/7 
f 59/140/7 60/139/7 133/138/7 
f 53/143/6 63/142/6 132/141/6 
f 52/136/7 53/137/7 132/135/7 
f 63/142/6 16/131/6 130/129/6 132/141/6 
f 64/146/6 60/145/6 133/144/6 
f 60/139/7 59/140/7 133/138/7 
f 131/132/6 25/133/6 64/146/6 133/144/6 
f 68/149/8 69/148/8 134/147/8 
f 77/152/8 74/151/8 135/150/8 
f 29/130/6 16/131/6 130/129/6 
f 130/156/5 16/155/5 69/154/5 134/153/5 
f 69/148/8 68/149/8 134/147/8 
f 25/133/6 30/134/6 131/132/6 
f 77/160/5 25/159/5 131/158/5 135/157/5 
f 74/151/8 77/152/8 135/150/8 
f 131/158/5 130/156/5 134/153/5 135/157/5 
f 102/163/9 103/162/9 136/161/9 
f 109/166/9 110/165/9 137/164/9 
f 116/169/8 103/168/8 136/167/8 
f 103/162/9 102/163/9 136/161/9 
f 134/147/8 69/148/8 116/169/8 136/167/8 
f 109/172/8 117/171/8 137/170/8 
f 110/165/9 109/166/9 137/164/9 
f 117/171/8 77/152/8 135/150/8 137/170/8 
f 136/161/9 103/162/9 118/174/9 138/173/9 
f 121/176/9 109/166/9 137/164/9 139/175/9 
f 137/164/9 140/177/9 139/175/9 
f 136/161/9 138/173/9 141/178/9 
f 138/182/10 118/181/10 124/180/10 142/179/10 
f 126/186/10 121/185/10 139/184/10 143/183/10 
f 139/184/10 140/188/10 144/187/10 143/183/10 
f 141/190/10 138/182/10 142/179/10 145/189/10 
f 140/188/10 141/190/10 145/189/10 144/187/10 
f 124/192/7 53/137/7 132/135/7 142/191/7 
f 133/138/7 60/139/7 126/194/7 143/193/7 
f 133/138/7 143/193/7 144/195/7 
f 132/135/7 145/196/7 142/191/7 
f 12/200/5 13/199/5 16/198/5 130/197/5 
f 25/204/5 24/203/5 22/202/5 131/201/5 
f 22/202/5 12/200/5 130/197/5 131/201/5 
f 147/208/10 146/207/10 46/206/10 43/205/10 
f 132/212/11 52/211/11 51/210/11 49/209/11 
f 132/215/12 54/214/12 49/213/12 
f 49/209/11 51/210/11 52/211/11 132/212/11 
f 58/219/13 56/218/13 59/217/13 133/216/13 
f 58/222/14 61/221/14 133/220/14 
f 133/216/13 59/217/13 56/218/13 58/219/13 
f 43/224/13 58/219/13 133/216/13 147/223/13 
f 146/226/11 132/212/11 49/209/11 46/225/11 
f 63/227/11 52/211/11 132/212/11 
f 16/198/5 13/199/5 12/200/5 130/197/5 
f 130/229/12 12/228/12 54/214/12 132/215/12 
f 132/212/11 52/211/11 63/227/11 
f 59/217/13 64/230/13 133/216/13 
f 22/202/5 24/203/5 25/204/5 131/201/5 
f 133/220/14 61/221/14 22/232/14 131/231/14 
f 133/216/13 64/230/13 59/217/13 
f 134/236/5 69/235/5 78/234/5 80/233/5 
f 83/240/5 77/239/5 135/238/5 82/237/5 
f 135/238/5 134/236/5 80/233/5 82/237/5 
f 96/244/10 99/243/10 149/242/10 148/241/10 
f 106/248/11 105/247/11 102/246/11 136/245/11 
f 106/251/12 108/250/12 136/249/12 
f 136/245/11 102/246/11 105/247/11 106/248/11 
f 137/255/13 110/254/13 111/253/13 113/252/13 
f 137/258/14 115/257/14 113/256/14 
f 113/252/13 111/253/13 110/254/13 137/255/13 
f 148/260/13 137/255/13 113/252/13 96/259/13 
f 99/262/11 106/248/11 136/245/11 149/261/11 
f 102/246/11 116/263/11 136/245/11 
f 78/234/5 69/235/5 134/236/5 80/233/5 
f 136/249/12 108/250/12 80/265/12 134/264/12 
f 136/245/11 116/263/11 102/246/11 
f 137/255/13 117/266/13 110/254/13 
f 135/238/5 77/239/5 83/240/5 82/237/5 
f 135/268/14 82/267/14 115/257/14 137/258/14 
f 110/254/13 117/266/13 137/255/13 
f 148/241/10 149/242/10 141/270/10 140/269/10 
f 140/271/13 137/255/13 148/260/13 
f 149/261/11 136/245/11 141/272/11 
f 144/274/10 145/273/10 146/207/10 147/208/10 
f 147/223/13 133/216/13 144/275/13 
f 145/276/11 132/212/11 146/226/11 


