g Mesh1
# Vertex Positions: 12
v 0 0 0.5
v -0.3660254 0 0.25
v -0.3660254 2 0.25
v 0 2 0.5
v -0.3660254 0 -0.25
v -0.3660254 2 -0.25
v 2.980232E-08 0 -0.5
v 2.980232E-08 2 -0.5
v 0.3660254 0 -0.2499999
v 0.3660254 2 -0.2499999
v 0.3660254 0 0.2499999
v 0.3660254 2 0.2499999
# Vertex UVs: 20
vt 0.360496 3.80277E-08
vt 0.7713957 5.775507E-08
vt 0.7713958 1
vt 0.360496 0.9999999
vt 0.25 7.450581E-09
vt 0.75 2.235174E-08
vt 0.75 1
vt 0.25 1
vt 0.2756025 7.440588E-08
vt 0.6865022 9.502172E-08
vt 0.6865022 0.9999999
vt 0.2756026 0.9999999
vt 0.3631413 2.3523E-08
vt 0.774041 7.376751E-08
vt 0.7740411 1
vt 0.3631414 0.9999999
vt 0.1789605 4.597124E-08
vt 0.5898603 5.301013E-08
vt 0.5898603 1
vt 0.1789606 1
# Vertex Normals: 6
vn -0.56401 0 0.8257679
vn -1 0 -4.371139E-08
vn -0.56401 0 -0.8257679
vn 0.5640101 0 -0.8257678
vn 1 0 1.192488E-08
vn 0.5640098 0 0.8257682
# Faces: 6
f 4/4/1 3/3/1 2/2/1 1/1/1 
f 3/8/2 6/7/2 5/6/2 2/5/2 
f 6/12/3 8/11/3 7/10/3 5/9/3 
f 8/16/4 10/15/4 9/14/4 7/13/4 
f 10/8/5 12/7/5 11/6/5 9/5/5 
f 12/20/6 4/19/6 1/18/6 11/17/6 


g Mesh2
# Vertex Positions: 149
v -1.332875 3 -0.4103706
v -1.332875 3 0.4103706
v -1.866025 2 0.7745188
v -1.866025 2 -0.774519
v -0.732051 2 -4.599832E-08
v -0.761804 3 1.020322
v -0.3660254 3 1.232419
v -0.3660254 2 1.803848
v -1.230607 2 1.34052
v -0.3660254 2 0.75
v -1.316733 3 0.7229366
v -1.843426 2 1.012111
v -0.4058274 2 0.2228148
v -1.866025 2 1
v -1.332875 3 0.7142857
v -0.4102022 2 0.2198267
v 0.3660254 3 1.232419
v 0.761804 3 1.020322
v 1.230607 2 1.34052
v 0.3660255 2 1.803847
v 0.3660255 2 0.75
v -5.960464E-07 2 2
v -4.257475E-07 3 1.428571
v -0.3660254 3 -1.232419
v -0.761804 3 -1.020322
v -1.230607 2 -1.34052
v -0.3660254 2 -1.803848
v -0.3660254 2 -0.7500001
v -1.866025 2 -1
v -1.332875 3 -0.7142859
v -0.4102022 2 -0.2198267
v -1.316733 3 -0.7229366
v -1.843426 2 -1.012111
v -0.4058274 2 -0.2228148
v -0.3660254 2 0.200962
v -0.3660254 2 0.1961524
v -0.3660254 2 -0.1961524
v -0.3660254 2 -0.200962
v 0.7618042 3 -1.020322
v 0.3660255 3 -1.232419
v 0.3660255 2 -1.803848
v 1.230607 2 -1.34052
v 0.3660254 2 -0.7499999
v 0 3 -1.428571
v 0 2 -2
v 1.332875 3 0.4103708
v 1.332875 3 -0.4103709
v 1.866025 2 -0.7745192
v 1.866025 2 0.7745192
v 0.7320507 2 6.526257E-09
v 1.332875 3 -0.7142856
v 1.866025 2 -0.9999998
v 0.4102021 2 -0.2198267
v 1.316732 3 -0.7229365
v 1.843426 2 -1.012111
v 0.4058273 2 -0.2228147
v 1.316733 3 0.7229365
v 1.843426 2 1.012111
v 0.4058273 2 0.2228147
v 1.332875 3 0.7142857
v 1.866025 2 1
v 0.4102021 2 0.2198267
v 0.3660254 2 0.200962
v 0.3660254 2 0.1961524
v 0.3660254 2 -0.1961525
v 0.3660254 2 -0.200962
v -1.106056 4 0.6072668
v -0.7997252 4 0.7714286
v -1.332875 3 1.285714
v -1.843426 3 1.012111
v -1.332875 3 0.7317994
v -1.866025 3 1
v -1.119615 4 0.6000001
v -1.866025 3 0.4285714
v -1.119615 4 0.2571428
v 0.3198899 4 1.028571
v 0.5331499 3 1.714286
v -7.152557E-07 3 2
v -4.291534E-07 4 1.2
v -0.5331504 3 1.714286
v -0.3198902 4 1.028571
v -1.119615 4 -0.257143
v -1.866025 3 -0.4285717
v -1.866025 3 -1
v -1.119615 4 -0.6000001
v -1.106055 4 -0.6072668
v -1.843426 3 -1.012111
v -1.332875 3 -0.7317995
v -1.332875 3 -1.285714
v -0.7997252 4 -0.7714286
v 0 4 -1.2
v 0 3 -2
v 0.53315 3 -1.714286
v 0.31989 4 -1.028571
v -0.3198901 4 -1.028571
v -0.5331501 3 -1.714286
v 1.106055 4 -0.6072665
v 1.843425 3 -1.012111
v 1.866025 3 -0.9999994
v 1.119615 4 -0.5999997
v 1.866025 3 -0.4285711
v 1.119615 4 -0.2571427
v 1.332875 3 -0.7317994
v 0.7997251 4 -0.7714283
v 1.332875 3 -1.285714
v 1.106055 4 0.6072668
v 1.843426 3 1.012111
v 1.332875 3 1.285714
v 0.7997251 4 0.7714286
v 1.332875 3 0.7317995
v 1.119615 4 0.257143
v 1.866025 3 0.4285717
v 1.866025 3 1
v 1.119615 4 0.6000001
v -1.366025 4 0.4679495
v -1.366025 4 0.7500002
v -1.119615 4 0.6147116
v -1.119615 4 0.8852887
v -0.7997252 4 1.06092
v -1.366025 4 0.125092
v 0 4 1.5
v 0.2765139 4 1.348183
v -0.2765143 4 1.348183
v -0.5925299 4 1.174679
v 0.5925299 4 1.174679
v -1.119615 4 -0.8852882
v -1.366025 4 -0.7499995
v -1.119615 4 -0.614711
v -1.366025 4 -0.4679495
v -1.366025 4 -0.1250922
v -0.7997252 4 -1.06092
v 0.2765137 4 -1.348183
v -4.768372E-07 4 -1.5
v -0.276514 4 -1.348183
v -0.5925297 4 -1.174679
v 0.5925298 4 -1.174679
v 1.366025 4 -0.4679487
v 1.366025 4 -0.7500002
v 1.119615 4 -0.6147116
v 1.119615 4 -0.8852887
v 0.7997251 4 -1.06092
v 1.366025 4 -0.1250918
v 1.119615 4 0.8852888
v 1.366025 4 0.7500002
v 1.119615 4 0.6147116
v 1.366025 4 0.4679492
v 1.366025 4 0.1250923
v 0.7997251 4 1.060921
v 0 6.5 0
# Vertex UVs: 262
vt 0.9103705 0.3876776
vt 0.08962933 0.3876776
vt -0.274519 -0.07437881
vt 1.274519 -0.0743788
vt -0.7320511 -8.710028E-08
vt -1.866026 -0.7745192
vt -1.866026 0.7745187
vt 0.7168403 0.3957893
vt 0.2763622 0.3957491
vt 0.0153105 -0.06710025
vt 0.9775379 -0.06701241
vt -0.3660254 0.7499999
vt -1.230607 1.34052
vt -0.3660255 1.803847
vt 1.334443 0.3958456
vt 1.659569 -0.06695014
vt -0.3660254 0.25
vt -0.4058273 0.2228148
vt -1.843426 1.012111
vt 1.684721 -0.06694785
vt 1.352409 0.3958472
vt -0.4102022 0.2198267
vt -1.866025 0.9999999
vt -0.2142858 0.3876776
vt -0.5000001 -0.07437881
vt 0.7323498 0.3947616
vt 0.2918719 0.3948018
vt 0.03117447 -0.06799991
vt 0.9934014 -0.06808777
vt 0.3660255 0.75
vt 0.3660255 1.803848
vt 1.230607 1.34052
vt 1.400766 -0.06812496
vt 1.139715 0.3947244
vt 6.208817E-10 0.5
vt 2.483527E-09 2
vt -0.1310024 0.3957118
vt -0.3920541 -0.06713744
vt 0.7099968 0.3880806
vt 0.2695189 0.3881208
vt 0.008821316 -0.07468102
vt 0.9710484 -0.07476886
vt -0.3660254 -0.7500001
vt -0.3660253 -1.803848
vt -1.230606 -1.34052
vt 1.5 -0.0743788
vt 1.214286 0.3876776
vt -0.4102024 -0.2198267
vt -1.866026 -1
vt -0.3480836 0.3881772
vt -0.3660493 0.3881788
vt -0.6983619 -0.07461647
vt -0.67321 -0.07461876
vt -0.4058274 -0.2228147
vt -1.843425 -1.012111
vt -0.3660254 -0.2499999
vt -0.3660254 0.200962
vt -0.3660254 0.1961525
vt -0.3660256 -0.1961524
vt -0.3660254 -0.2009619
vt 0.7217695 0.387133
vt 0.2812915 0.3870928
vt 0.02023953 -0.07575637
vt 0.9824668 -0.07566845
vt 0.3660255 -0.7499999
vt 1.230607 -1.34052
vt 0.3660256 -1.803847
vt -0.126073 0.3870556
vt -0.387125 -0.07579359
vt -3.973643E-07 -2
vt -8.816518E-08 -0.4999998
vt 1.378413 -0.07480604
vt 1.117361 0.3880434
vt 0.9103709 0.3764577
vt 0.08962913 0.3764577
vt -0.2745193 -0.08559904
vt 1.274519 -0.08559905
vt 0.7320507 1.970345E-08
vt 1.866025 0.7745194
vt 1.866025 -0.7745192
vt -0.2142855 0.3764577
vt -0.4999999 -0.08559904
vt 1.866025 -1
vt 0.4102021 -0.2198267
vt 1.339372 0.3871895
vt 1.664498 -0.07560614
vt 1.68965 -0.07560384
vt 1.357338 0.3871911
vt 0.4058274 -0.2228148
vt 1.843426 -1.012111
vt 0.3660255 -0.2499999
vt -0.3257303 0.3948582
vt -0.6508565 -0.06793764
vt 0.4058274 0.2228147
vt 0.3660255 0.2499999
vt 1.843426 1.012111
vt -0.3436962 0.3948598
vt -0.6760087 -0.06793535
vt 1.866026 1
vt 0.4102022 0.2198267
vt 1.5 -0.08559905
vt 1.214286 0.3764577
vt 0.3660255 0.200962
vt 0.3660255 0.1961524
vt 0.3660254 -0.1961525
vt 0.3660255 -0.200962
vt 1.209148 0.4332699
vt 0.8724022 0.432881
vt 1.106526 -0.06450549
vt 1.667769 -0.06385722
vt -1.332875 0.7317994
vt -1.332875 1.285714
vt 1.692613 -0.06382853
vt 1.224054 0.4332872
vt -0.1000003 0.4358108
vt -0.5000004 -0.06292473
vt 0.07142843 -0.06292472
vt 0.242857 0.4358108
vt -1.866026 0.4285713
vt -1.332875 0.7142858
vt 0.6426909 0.4386085
vt 0.7602189 -0.05918421
vt 1.346306 -0.05986118
vt 0.9943431 0.4382023
vt -1.099848E-08 1.428572
vt 0.5331503 1.714286
vt -0.006727702 0.4318655
vt -0.3586902 -0.06619789
vt 0.2273967 -0.06552093
vt 0.3449244 0.4322717
vt -0.5331504 1.714285
vt -1.316733 0.7229365
vt 0.7571428 0.4358108
vt 0.9285714 -0.06292471
vt 1.5 -0.0629247
vt 1.1 0.4358108
vt -0.223568 0.4267965
vt -0.2384741 0.4268137
vt -0.7070327 -0.07030217
vt -0.6821893 -0.07033087
vt -1.332875 -0.7317994
vt -1.332875 -0.7142852
vt -1.866026 -0.4285719
vt -0.1209463 -0.0709791
vt 0.1131777 0.4264075
vt -1.332875 -1.285714
vt 0.02007816 0.4317288
vt -0.3318847 -0.06633468
vt 0.2542017 -0.06565767
vt 0.37173 0.432135
vt 0.5331502 -1.714285
vt -4.136845E-07 -1.428571
vt 0.6406556 0.4257983
vt 0.7581835 -0.07199448
vt 1.34427 -0.07267139
vt 0.9923075 0.4253922
vt -0.5331501 -1.714285
vt -1.316732 -0.7229363
vt 1.235953 0.4331333
vt 1.694574 -0.06399384
vt 1.719418 -0.06396514
vt 1.25086 0.4331506
vt -0.09999968 0.4240397
vt -0.4999996 -0.0746961
vt 0.07142868 -0.0746961
vt 0.2428573 0.4240397
vt 1.866026 -0.428571
vt 1.332875 -0.7142856
vt 1.332875 -0.7317997
vt 0.8992078 0.4327444
vt 1.133331 -0.06464215
vt 1.332875 -1.285714
vt 1.316733 -0.7229367
vt -0.2215328 0.4396067
vt -0.680154 -0.05752048
vt -0.118911 -0.05816875
vt 0.115213 0.4392177
vt 1.332875 0.7317995
vt 1.332875 1.285715
vt 0.7571429 0.4240397
vt 0.9285715 -0.0746961
vt 1.5 -0.0746961
vt 1.1 0.4240397
vt -0.2364389 0.4396239
vt -0.7049975 -0.05749179
vt 1.332875 0.7142859
vt 1.866025 0.4285718
vt 1.316733 0.7229366
vt -1.619616 1.1
vt -1.866026 0.9679494
vt -1.866026 1.25
vt -1.619616 1.114712
vt -1.619615 1.385288
vt -1.606056 1.107267
vt -1.299725 1.271428
vt -1.299725 1.56092
vt -1.619616 0.7571428
vt -1.866026 0.6250919
vt -0.5000001 1.7
vt -0.5000001 2
vt -0.2234861 1.848184
vt -0.7765145 1.848183
vt -0.8198904 1.528571
vt -1.09253 1.674678
vt -0.1801102 1.528571
vt 0.09252989 1.674679
vt -1.619616 -0.3852882
vt -1.866026 -0.2499996
vt -1.619616 -0.1147111
vt -1.619616 -0.1000004
vt -1.866026 0.03205039
vt -1.619616 0.2428569
vt -1.866026 0.3749076
vt -1.299726 -0.2714287
vt -1.299726 -0.5609202
vt -1.606057 -0.1072666
vt -0.2234862 -0.8481828
vt -0.5000004 -0.9999994
vt -0.5000003 -0.6999994
vt -0.7765142 -0.8481833
vt -0.8198906 -0.5285714
vt -1.09253 -0.6746785
vt -0.1801099 -0.528571
vt 0.09252989 -0.6746783
vt 0.6196154 -0.09999947
vt 0.8660255 0.03205135
vt 0.8660256 -0.2500001
vt 0.6196154 -0.1147115
vt 0.6196154 -0.3852888
vt 0.6060551 -0.1072664
vt 0.2997252 -0.2714283
vt 0.2997252 -0.5609204
vt 0.6196153 0.2428574
vt 0.8660254 0.3749082
vt 0.6196154 1.385289
vt 0.8660256 1.25
vt 0.6196154 1.114712
vt 0.6196151 1.1
vt 0.8660253 0.9679492
vt 0.6196152 0.7571431
vt 0.8660254 0.6250923
vt 0.2997251 1.271429
vt 0.2997251 1.560921
vt 0.6060554 1.107267
vt 0.07696646 -0.1169422
vt 1.575855 -0.1198649
vt 0.7264057 1.018506
vt -0.7500004 -0.06889334
vt 0.75 -0.06889332
vt -4.292668E-08 1.062388
vt -1.025548 0.07319687
vt 0.4733404 0.07611965
vt -0.1760988 1.211568
vt -0.3322677 0.1839451
vt 1.166621 0.1810225
vt 0.3171724 1.319393
vt 0.2500004 0.1527423
vt 1.75 0.1527423
vt 1 1.284024
vt 0.2830731 -0.01203953
vt 1.781962 -0.009116884
vt 1.132522 1.126332
# Vertex Normals: 19
vn -0.88242 0.4704624 -4.371139E-08
vn 0 -1 0
vn -0.4218603 0.4498297 0.7872021
vn 0.42186 0.4498297 0.7872023
vn -0.4218603 0.4498298 -0.7872022
vn 0.4218605 0.4498298 -0.7872019
vn 0.88242 0.4704624 1.192488E-08
vn -0.3860294 0.5762726 0.7203411
vn -0.8013786 0.5981574 -4.371139E-08
vn 0.3860292 0.5762727 0.7203412
vn -0.3860295 0.5762727 -0.720341
vn 0.3860298 0.5762727 -0.7203407
vn 0.8013787 0.5981573 1.192488E-08
vn -0.425951 0.465488 0.7758136
vn -0.8775427 0.4794985 -4.371139E-08
vn -0.4259511 0.4654881 -0.7758136
vn 0.4259514 0.465488 -0.7758132
vn 0.8775427 0.4794983 1.192488E-08
vn 0.4259507 0.465488 0.7758138
# Faces: 146
f 16/24/7 15/23/7 14/22/7 13/21/7 
f 15/27/8 16/26/8 17/25/8 
f 21/31/9 20/30/9 19/29/9 18/28/9 
f 20/34/8 21/33/8 22/32/8 
f 24/36/9 21/31/9 18/28/9 23/35/9 
f 21/33/8 24/39/8 25/38/8 3/37/8 22/32/8 
f 27/41/9 26/40/9 24/36/9 23/35/9 
f 24/39/8 26/43/8 28/42/8 25/38/8 
f 15/23/7 26/45/7 27/44/7 14/22/7 
f 28/42/8 26/43/8 15/27/8 17/25/8 
f 32/49/10 31/48/10 30/47/10 29/46/10 
f 31/52/8 32/51/8 33/50/8 
f 35/54/10 34/53/10 32/49/10 29/46/10 
f 32/51/8 34/56/8 4/55/8 33/50/8 
f 20/30/9 34/58/9 35/57/9 19/29/9 
f 4/55/8 34/56/8 20/34/8 22/32/8 
f 4/55/8 22/32/8 3/37/8 
f 39/62/11 38/61/11 37/60/11 36/59/11 
f 38/65/8 39/64/8 40/63/8 
f 42/67/7 41/66/7 16/24/7 13/21/7 
f 17/25/8 16/26/8 41/69/8 43/68/8 
f 45/73/11 41/72/11 42/71/11 44/70/11 
f 43/68/8 41/69/8 45/75/8 46/74/8 
f 38/61/11 45/73/11 44/70/11 37/60/11 
f 45/75/8 38/65/8 40/63/8 6/76/8 46/74/8 
f 3/37/8 25/38/8 47/77/8 
f 25/38/8 28/42/8 48/78/8 47/77/8 
f 48/78/8 28/42/8 17/25/8 43/68/8 49/79/8 
f 49/79/8 43/68/8 46/74/8 50/80/8 
f 46/74/8 6/76/8 50/80/8 
f 54/84/12 53/83/12 52/82/12 51/81/12 
f 53/87/8 54/86/8 55/85/8 
f 53/83/12 57/89/12 56/88/12 52/82/12 
f 8/91/8 57/90/8 53/87/8 55/85/8 
f 56/93/11 57/92/11 39/62/11 36/59/11 
f 40/63/8 39/64/8 57/90/8 8/91/8 
f 6/76/8 40/63/8 8/91/8 
f 61/97/13 60/96/13 59/95/13 58/94/13 
f 60/100/8 61/99/8 62/98/8 
f 60/96/13 64/102/13 63/101/13 59/95/13 
f 65/104/8 64/103/8 60/100/8 62/98/8 
f 63/108/12 64/107/12 67/106/12 66/105/12 
f 67/110/8 64/103/8 65/104/8 68/109/8 
f 67/106/12 54/84/12 51/81/12 66/105/12 
f 55/85/8 54/86/8 67/110/8 68/109/8 10/111/8 
f 8/91/8 55/85/8 10/111/8 
f 30/47/10 31/48/10 70/113/10 69/112/10 
f 70/116/8 31/52/8 33/50/8 12/115/8 71/114/8 
f 70/113/10 73/118/10 72/117/10 69/112/10 
f 74/120/8 73/119/8 70/116/8 71/114/8 
f 72/122/13 73/121/13 61/97/13 58/94/13 
f 62/98/8 61/99/8 73/119/8 74/120/8 
f 71/114/8 12/115/8 75/123/8 
f 76/124/8 74/120/8 71/114/8 75/123/8 
f 77/125/8 65/104/8 62/98/8 74/120/8 76/124/8 
f 68/109/8 65/104/8 77/125/8 78/126/8 
f 10/111/8 68/109/8 78/126/8 
f 12/115/8 33/50/8 4/55/8 
f 82/130/14 81/129/14 80/128/14 79/127/14 
f 81/132/8 82/39/8 83/131/8 
f 85/134/14 84/133/14 82/130/14 79/127/14 
f 87/138/15 86/137/15 84/136/15 85/135/15 
f 27/140/8 84/43/8 86/139/8 
f 82/39/8 84/43/8 27/140/8 83/131/8 
f 91/144/16 90/143/16 89/142/16 88/141/16 
f 89/146/8 90/56/8 35/145/8 
f 93/150/14 92/149/14 90/148/14 91/147/14 
f 35/145/8 90/56/8 92/151/8 
f 80/128/14 81/129/14 92/149/14 93/150/14 
f 35/145/8 92/151/8 81/132/8 83/131/8 23/152/8 
f 83/131/8 27/140/8 23/152/8 
f 97/156/15 96/155/15 95/154/15 94/153/15 
f 99/160/17 96/159/17 97/158/17 98/157/17 
f 42/162/8 96/69/8 99/75/8 100/161/8 
f 95/163/8 96/69/8 42/162/8 
f 102/165/17 101/164/17 99/160/17 98/157/17 
f 99/75/8 101/166/8 100/161/8 
f 94/153/15 95/154/15 86/137/15 87/138/15 
f 27/140/8 86/139/8 95/163/8 42/162/8 
f 106/170/18 105/169/18 104/168/18 103/167/18 
f 56/172/8 104/90/8 105/171/8 
f 103/176/17 104/175/17 108/174/17 107/173/17 
f 108/177/8 104/90/8 56/172/8 
f 42/162/8 100/161/8 44/178/8 
f 107/173/17 108/174/17 101/164/17 102/165/17 
f 100/161/8 101/166/8 108/177/8 56/172/8 44/178/8 
f 112/182/18 111/181/18 110/180/18 109/179/18 
f 114/186/19 113/185/19 111/184/19 112/183/19 
f 63/188/8 111/103/8 113/187/8 
f 110/110/8 111/103/8 63/188/8 115/189/8 
f 110/180/18 117/191/18 116/190/18 109/179/18 
f 117/192/8 110/110/8 115/189/8 
f 115/189/8 63/188/8 66/193/8 
f 116/190/18 117/191/18 105/169/18 106/170/18 
f 56/172/8 105/171/8 117/192/8 115/189/8 66/193/8 
f 121/197/16 120/196/16 119/195/16 118/194/16 
f 119/116/8 120/199/8 122/198/8 
f 126/203/19 125/202/19 124/201/19 123/200/19 
f 119/195/16 125/205/16 126/204/16 118/194/16 
f 72/206/8 125/119/8 119/116/8 122/198/8 
f 124/207/8 125/119/8 72/206/8 
f 123/200/19 124/201/19 113/185/19 114/186/19 
f 63/188/8 113/187/8 124/207/8 72/206/8 
f 88/141/16 89/142/16 120/196/16 121/197/16 
f 122/198/8 120/199/8 89/146/8 35/145/8 69/208/8 
f 72/206/8 122/198/8 69/208/8 
f 129/212/8 128/211/8 127/210/8 85/209/8 
f 130/213/8 128/211/8 129/212/8 
f 79/214/8 129/212/8 85/209/8 
f 131/216/8 130/213/8 129/212/8 79/214/8 80/215/8 
f 85/209/8 127/210/8 132/218/8 87/217/8 
f 134/221/8 133/220/8 91/219/8 
f 91/219/8 133/220/8 135/222/8 
f 91/219/8 135/222/8 136/224/8 93/223/8 
f 137/226/8 134/221/8 91/219/8 88/225/8 
f 93/223/8 136/224/8 131/216/8 80/215/8 
f 140/229/8 139/228/8 138/227/8 
f 141/231/8 139/228/8 140/229/8 97/230/8 
f 142/233/8 141/231/8 97/230/8 94/232/8 
f 98/236/8 140/229/8 138/227/8 143/235/8 102/234/8 
f 140/229/8 98/236/8 97/230/8 
f 87/217/8 132/218/8 142/233/8 94/232/8 
f 103/239/8 145/238/8 144/237/8 
f 146/240/8 145/238/8 103/239/8 
f 147/242/8 146/240/8 103/239/8 107/241/8 
f 103/239/8 144/237/8 148/244/8 106/243/8 
f 102/234/8 143/235/8 147/242/8 107/241/8 
f 151/248/8 150/247/8 149/246/8 112/245/8 
f 152/249/8 150/247/8 151/248/8 
f 109/250/8 151/248/8 112/245/8 
f 153/252/8 152/249/8 151/248/8 109/250/8 116/251/8 
f 112/245/8 149/246/8 154/254/8 114/253/8 
f 106/243/8 148/244/8 153/252/8 116/251/8 
f 157/257/8 156/256/8 155/255/8 
f 158/259/8 156/256/8 157/257/8 126/258/8 
f 159/261/8 158/259/8 126/258/8 123/260/8 
f 118/264/8 157/257/8 155/255/8 160/263/8 121/262/8 
f 157/257/8 118/264/8 126/258/8 
f 114/253/8 154/254/8 159/261/8 123/260/8 
f 121/262/8 160/263/8 137/226/8 88/225/8 
f 161/267/20 128/266/20 133/265/20 
f 161/270/21 139/269/21 128/268/21 
f 161/273/22 145/272/22 139/271/22 
f 161/276/23 150/275/23 145/274/23 
f 161/279/24 156/278/24 150/277/24 
f 161/282/25 133/281/25 156/280/25 


