g Mesh1
# Vertex Positions: 8
v 0.09375 -0.15625 0.375
v -0.09375 -0.15625 0.375
v -0.09375 0.03125 0.375
v 0.09375 0.03125 0.375
v 0.09375 0.03125 -0.375
v 0.09375 0.15625 -0.25
v -0.09375 0.03125 -0.375
v -0.09375 0.15625 -0.25
# Vertex UVs: 24
vt 0.8749999 0.15625
vt 0.7812502 0.15625
vt 0.78125 0.25
vt 0.8749997 0.25
vt 0.9999999 0.25
vt 0.6250001 0.15625
vt 0.6250001 0.25
vt 0.9375 0.3125
vt 0.375 0.15625
vt 0 0.25
vt 0.0625 0.3125
vt 0.375 0.25
vt 0.21875 0.25
vt 0.125 0.25
vt 0.1250001 0.3213944
vt 0.21875 0.3213943
vt 0.8750001 -0.007688722
vt 0.7812502 -0.007688722
vt 0.78125 0.375
vt 0.8749999 0.375
vt 0.9359584 0.125
vt 0.6250001 0.125
vt 0.625 0.21875
vt 0.9359584 0.2187501
# Vertex Normals: 6
vn 0 0 1
vn 1 0 0
vn -1 0 0
vn 0 0.7071068 -0.7071068
vn 0 -0.9701424 -0.2425356
vn 0 0.9805806 0.1961161
# Faces: 6
f 4/4/1 3/3/1 2/2/1 1/1/1 
f 6/8/2 4/7/2 1/6/2 5/5/2 
f 3/12/3 8/11/3 7/10/3 2/9/3 
f 8/16/4 6/15/4 5/14/4 7/13/4 
f 1/20/5 2/19/5 7/18/5 5/17/5 
f 8/24/6 3/23/6 4/22/6 6/21/6 


