g Mesh1
# Vertex Positions: 61
v 0.1250001 1.25 0.25
v 0.1875 1.375 0.25
v 0.1875 1.25 0.25
v -0.1250001 1.25 0.25
v -0.1875 1.25 0.25
v -0.1875 1.375 0.25
v -0.21875 1.5 0.21875
v -0.03124999 1.5 0.03125
v -3.958121E-08 1.5 0.06249995
v -0.1875 1.5 0.25
v 0.1875 1.5 0.25
v -0.25 1.25 0.1875
v -0.25 1.25 0.125
v -0.25 1.375 0.1875
v -0.06250001 1.5 -3.332805E-08
v -0.25 1.5 0.1875
v -0.25 1.25 -0.125
v -0.25 1.25 -0.1875
v -0.25 1.375 -0.1875
v -0.25 1.5 -0.1875
v 0.25 1.25 -0.1875
v 0.25 1.25 -0.125
v 0.25 1.375 -0.1875
v 0.06249996 1.5 -3.998035E-08
v 0.03125001 1.5 -0.03125
v 0.21875 1.5 -0.21875
v 0.25 1.5 -0.1875
v 0.25 1.25 0.125
v 0.25 1.25 0.1875
v 0.25 1.375 0.1875
v 0.25 1.5 0.1875
v 0.03124999 1.5 0.03124992
v 4.325476E-08 1.5 -3.332065E-08
v 0.21875 1.5 0.21875
v 0.1874999 1.25 -0.25
v 0.1874999 1.375 -0.25
v 0.125 1.25 -0.25
v -2.687529E-08 1.5 -0.06250004
v 0.1874999 1.5 -0.25
v -0.03124998 1.5 -0.03125007
v -0.1249999 1.25 -0.25
v -0.1875 1.375 -0.25
v -0.1875 1.25 -0.25
v -0.1875 1.5 -0.25
v -0.21875 1.5 -0.21875
v -0.06250001 1.25 -3.259629E-08
v -0.09374999 1.25 0.03124995
v -0.03125 1.25 0.09374993
v -4.097819E-08 1.25 0.06249994
v -2.980233E-08 1.25 0.1249999
v 0.03124994 1.25 0.09374993
v -0.09374999 1.25 -0.03125
v -0.125 1.25 -2.718576E-08
v 0.03124994 1.25 -0.09375001
v -3.512417E-08 1.25 -0.06250002
v 0.06249996 1.25 -4.0389E-08
v 0.09374999 1.25 -0.03125006
v 0.09374999 1.25 0.03124999
v 0.125 1.25 -2.665356E-08
v -0.03125001 1.25 -0.09374999
v -9.934131E-09 1.25 -0.125
# Vertex UVs: 83
vt 0.9375001 0.625
vt 0.96875 0.6874999
vt 0.96875 0.625
vt 0.8124999 0.625
vt 0.78125 0.625
vt 0.78125 0.6874998
vt 0.765625 0.234375
vt 0.859375 0.140625
vt 0.84375 0.125
vt 0.75 0.21875
vt 0.78125 0.75
vt 0.96875 0.75
vt 0.75 0.03125
vt 0.21875 0.625
vt 0.1875 0.625
vt 0.21875 0.6875
vt 0.875 0.15625
vt 0.78125 0.25
vt 0.06249998 0.625
vt 0.03124999 0.625
vt 0.03124999 0.6875
vt 0.03124999 0.75
vt 0.21875 0.75
vt 0.96875 0.25
vt 0.875 0.09375002
vt 0.890625 0.109375
vt 0.984375 0.01562499
vt 0.96875 0
vt 0.78125 0
vt 0.859375 0.109375
vt 0.875 0.125
vt 0.765625 0.015625
vt 0.90625 0.125
vt 1 0.03125006
vt 0.890625 0.140625
vt 1 0.21875
vt 0.984375 0.234375
vt 0.8760794 0.625
vt 0.8760794 0.6875001
vt 0.855426 0.75
vt 0.8347726 0.6874999
vt 0.8347726 0.625
vt 0.8760794 0.75
vt 0.8347726 0.75
vt 0.916225 0.625
vt 0.916225 0.6874999
vt 0.8954469 0.7500001
vt 0.8746687 0.6874998
vt 0.8746687 0.625
vt 0.8746688 0.75
vt 0.916225 0.75
vt -0.21875 0.625
vt -0.234375 0.640625
vt -0.265625 0.609375
vt -0.25 0.59375
vt -0.28125 0.59375
vt -0.265625 0.5781251
vt -0.34375 0.5312499
vt -0.34375 0.5
vt -0.3125 0.71875
vt -0.34375 0.6875
vt -0.34375 0.6562501
vt -0.203125 0.640625
vt -0.21875 0.65625
vt -0.28125 0.71875
vt -0.125 0.71875
vt -0.15625 0.71875
vt -0.1718751 0.578125
vt -0.1875 0.59375
vt -0.21875 0.5625
vt -0.203125 0.546875
vt -0.125 0.46875
vt -0.09375004 0.5000001
vt -0.234375 0.546875
vt -0.21875 0.53125
vt -0.15625 0.46875
vt -0.3125 0.46875
vt -0.28125 0.46875
vt -0.1718751 0.609375
vt -0.15625 0.59375
vt -0.09375005 0.53125
vt -0.09375006 0.65625
vt -0.09375005 0.6875
# Vertex Normals: 10
vn 0 0 1
vn 0 1 0
vn -1 0 0
vn 1 0 0
vn 0 0 -1
vn -0.7071066 0 -0.7071067
vn -0.7071066 0 0.7071071
vn 0.7071066 0 0.7071067
vn 0.7071068 0 -0.7071068
vn 0 -1 0
# Faces: 65
f 3/3/1 2/2/1 1/1/1 
f 6/6/1 5/5/1 4/4/1 
f 10/10/2 9/9/2 8/8/2 7/7/2 
f 11/12/1 10/11/1 6/6/1 4/4/1 1/1/1 2/2/1 
f 10/10/2 11/13/2 9/9/2 
f 14/16/3 13/15/3 12/14/3 
f 16/18/2 7/7/2 8/8/2 15/17/2 
f 19/21/3 18/20/3 17/19/3 
f 16/23/3 20/22/3 19/21/3 17/19/3 13/15/3 14/16/3 
f 20/24/2 16/18/2 15/17/2 
f 23/2/4 22/1/4 21/3/4 
f 27/28/2 26/27/2 25/26/2 24/25/2 
f 30/6/4 29/5/4 28/4/4 
f 27/12/4 31/11/4 30/6/4 28/4/4 22/1/4 23/2/4 
f 31/29/2 27/28/2 24/25/2 
f 24/25/2 25/26/2 33/31/2 32/30/2 
f 31/29/2 24/25/2 32/30/2 34/32/2 
f 8/8/2 9/9/2 32/30/2 33/31/2 
f 9/9/2 11/13/2 34/32/2 32/30/2 
f 37/19/5 36/21/5 35/20/5 
f 25/26/2 26/27/2 39/34/2 38/33/2 
f 33/31/2 25/26/2 38/33/2 40/35/2 
f 15/17/2 8/8/2 33/31/2 40/35/2 
f 43/14/5 42/16/5 41/15/5 
f 44/23/5 39/22/5 36/21/5 37/19/5 41/15/5 42/16/5 
f 38/33/2 39/34/2 44/36/2 
f 40/35/2 38/33/2 44/36/2 45/37/2 
f 20/24/2 15/17/2 40/35/2 45/37/2 
f 18/42/6 19/41/6 45/40/6 42/39/6 43/38/6 
f 45/40/6 44/43/6 42/39/6 
f 19/41/6 20/44/6 45/40/6 
f 5/49/7 6/48/7 7/47/7 14/46/7 12/45/7 
f 6/48/7 10/50/7 7/47/7 
f 7/47/7 16/51/7 14/46/7 
f 29/42/8 30/41/8 34/40/8 2/39/8 3/38/8 
f 30/41/8 31/44/8 34/40/8 
f 34/40/8 11/43/8 2/39/8 
f 35/49/9 36/48/9 26/47/9 23/46/9 21/45/9 
f 26/47/9 27/51/9 23/46/9 
f 36/48/9 39/50/9 26/47/9 
f 49/55/10 48/54/10 47/53/10 46/52/10 
f 51/57/10 50/56/10 48/54/10 49/55/10 
f 3/59/10 1/58/10 50/56/10 51/57/10 
f 47/53/10 48/54/10 5/61/10 12/60/10 
f 48/54/10 50/56/10 4/62/10 5/61/10 
f 1/58/10 4/62/10 50/56/10 
f 46/52/10 47/53/10 53/64/10 52/63/10 
f 53/64/10 47/53/10 12/60/10 13/65/10 
f 52/63/10 53/64/10 17/67/10 18/66/10 
f 53/64/10 13/65/10 17/67/10 
f 57/71/10 56/70/10 55/69/10 54/68/10 
f 35/73/10 21/72/10 57/71/10 54/68/10 
f 59/75/10 58/74/10 56/70/10 57/71/10 
f 21/72/10 22/76/10 59/75/10 57/71/10 
f 28/78/10 29/77/10 58/74/10 59/75/10 
f 22/76/10 28/78/10 59/75/10 
f 56/70/10 49/55/10 46/52/10 55/69/10 
f 56/70/10 58/74/10 51/57/10 49/55/10 
f 29/77/10 3/59/10 51/57/10 58/74/10 
f 61/80/10 54/68/10 55/69/10 60/79/10 
f 37/81/10 35/73/10 54/68/10 61/80/10 
f 60/79/10 55/69/10 46/52/10 52/63/10 
f 61/80/10 60/79/10 43/83/10 41/82/10 
f 37/81/10 61/80/10 41/82/10 
f 60/79/10 52/63/10 18/66/10 43/83/10 


