g Mesh1
# Vertex Positions: 53
v -7.450579E-09 0.9999998 0.25
v 0.1875 0.625 0.25
v 0.1875 0.5 0.25
v -0.1875 0.5 0.25
v -0.1875 0.625 0.25
v 0.1875 1.375 0.25
v -0.1875 1.375 0.25
v -0.21875 1.5 0.21875
v -0.03124999 1.5 0.03125
v -3.958121E-08 1.5 0.06249995
v -0.1875 1.5 0.25
v 0.1875 1.5 0.25
v -0.25 0.6249999 0.1875
v -0.25 0.5 0.1875
v -0.25 0.5 -0.1875
v -0.25 0.6249999 -0.1875
v -0.25 0.9999999 -1.490116E-08
v -0.25 1.375 0.1875
v -0.25 0.5 0.25
v -0.06250001 1.5 -3.332805E-08
v -0.25 1.5 0.1875
v -0.25 1.375 -0.1875
v -0.25 1.5 -0.1875
v 0.25 0.6250001 -0.1875
v 0.25 0.5 -0.1875
v 0.25 0.5 0.1875
v 0.25 0.6249999 0.1875
v 0.25 1 0
v 0.25 1.375 -0.1875
v 0.25 0.5 -0.25
v 0.1874999 0.6250004 -0.25
v 0.1874999 0.5 -0.25
v 0.06249996 1.5 -3.998035E-08
v 0.03125001 1.5 -0.03125
v 0.21875 1.5 -0.21875
v 0.25 1.5 -0.1875
v 0.25 1.375 0.1875
v 0.25 1.5 0.1875
v 0.03124999 1.5 0.03124992
v 4.325476E-08 1.5 -3.332065E-08
v 0.21875 1.5 0.21875
v 0.25 0.5 0.25
v 4.470346E-08 1 -0.25
v -0.1875 0.6249999 -0.25
v -0.1875 0.5 -0.25
v 0.1874999 1.375 -0.25
v -2.687529E-08 1.5 -0.06250004
v 0.1874999 1.5 -0.25
v -0.03124998 1.5 -0.03125007
v -0.1875 1.375 -0.25
v -0.1875 1.5 -0.25
v -0.21875 1.5 -0.21875
v -0.25 0.5 -0.25
# Vertex UVs: 62
vt 0.875 0.4999999
vt 0.96875 0.3125
vt 0.96875 0.25
vt 0.78125 0.25
vt 0.78125 0.3125
vt 0.96875 0.6874999
vt 0.78125 0.6874998
vt 0.765625 0.234375
vt 0.859375 0.140625
vt 0.84375 0.125
vt 0.75 0.21875
vt 0.78125 0.75
vt 0.96875 0.75
vt 0.75 0.03125
vt 0.21875 0.3125
vt 0.21875 0.25
vt 0.03124999 0.25
vt 0.03124999 0.3124999
vt 0.125 0.5
vt 0.21875 0.6875
vt 0.75 0.25
vt 0.25 0.25
vt 0.875 0.15625
vt 0.03124999 0.6875
vt 0.03124999 0.75
vt 0.21875 0.75
vt 1 0.25
vt 0 0.25
vt 0.875 0.09375002
vt 0.890625 0.109375
vt 0.984375 0.01562499
vt 0.96875 0
vt 0.78125 0
vt 0.859375 0.109375
vt 0.875 0.125
vt 0.765625 0.015625
vt 0.90625 0.125
vt 1 0.03125006
vt 0.890625 0.140625
vt 1 0.21875
vt 0.984375 0.234375
vt 1 0
vt 0.75 0
vt 0.8760794 0.3125
vt 0.8760794 0.6875001
vt 0.855426 0.75
vt 0.8347726 0.6874999
vt 0.8347726 0.3125
vt 0.8760794 0.75
vt 0.8347726 0.75
vt 0.9100379 0.09753785
vt 0.8787878 0.1287878
vt 0.8506381 0.06938811
vt 0.916225 0.3125
vt 0.916225 0.6874999
vt 0.8954469 0.7500001
vt 0.8746687 0.6874998
vt 0.8746687 0.3125
vt 0.8746688 0.75
vt 0.8193882 0.1006381
vt 0.8475379 0.1600379
vt 0.916225 0.75
# Vertex Normals: 14
vn 0 0 1
vn 0 1 0
vn -1 0 0
vn 1 0 0
vn 0 0 -1
vn 0 -1 0
vn -0.7071067 0 -0.7071068
vn -0.6666667 0.3333333 -0.6666667
vn -0.7071066 0 0.707107
vn -0.6666666 0.3333333 0.6666668
vn 0.7071067 0 0.7071068
vn 0.6666666 0.3333333 0.6666666
vn 0.7071068 0 -0.7071068
vn 0.6666668 0.3333333 -0.6666666
# Faces: 57
f 5/5/1 4/4/1 3/3/1 2/2/1 1/1/1 
f 2/2/1 6/6/1 1/1/1 
f 7/7/1 5/5/1 1/1/1 
f 11/11/2 10/10/2 9/9/2 8/8/2 
f 12/13/1 11/12/1 7/7/1 1/1/1 6/6/1 
f 11/11/2 12/14/2 10/10/2 
f 17/19/3 16/18/3 15/17/3 14/16/3 13/15/3 
f 18/20/3 17/19/3 13/15/3 
f 19/21/1 4/4/1 5/5/1 
f 13/15/3 14/16/3 19/22/3 
f 21/4/2 8/8/2 9/9/2 20/23/2 
f 22/24/3 16/18/3 17/19/3 
f 21/26/3 23/25/3 22/24/3 17/19/3 18/20/3 
f 23/3/2 21/4/2 20/23/2 
f 28/1/4 27/5/4 26/4/4 25/3/4 24/2/4 
f 29/6/4 28/1/4 24/2/4 
f 24/2/4 25/3/4 30/27/4 
f 30/28/5 32/17/5 31/18/5 
f 36/32/2 35/31/2 34/30/2 33/29/2 
f 37/7/4 27/5/4 28/1/4 
f 36/13/4 38/12/4 37/7/4 28/1/4 29/6/4 
f 38/33/2 36/32/2 33/29/2 
f 33/29/2 34/30/2 40/35/2 39/34/2 
f 38/33/2 33/29/2 39/34/2 41/36/2 
f 2/2/1 3/3/1 42/27/1 
f 42/21/4 26/4/4 27/5/4 
f 9/9/2 10/10/2 39/34/2 40/35/2 
f 10/10/2 12/14/2 41/36/2 39/34/2 
f 32/17/5 45/16/5 44/15/5 43/19/5 31/18/5 
f 43/19/5 46/24/5 31/18/5 
f 34/30/2 35/31/2 48/38/2 47/37/2 
f 40/35/2 34/30/2 47/37/2 49/39/2 
f 20/23/2 9/9/2 40/35/2 49/39/2 
f 43/19/5 44/15/5 50/20/5 
f 51/26/5 48/25/5 46/24/5 43/19/5 50/20/5 
f 47/37/2 48/38/2 51/40/2 
f 49/39/2 47/37/2 51/40/2 52/41/2 
f 23/3/2 20/23/2 49/39/2 52/41/2 
f 53/28/3 15/17/3 16/18/3 
f 44/15/5 45/16/5 53/22/5 
f 42/27/6 19/21/6 53/43/6 30/42/6 
f 16/48/7 22/47/7 52/46/7 50/45/7 44/44/7 
f 52/46/7 51/49/7 50/45/7 
f 22/47/7 23/50/7 52/46/7 
f 53/53/8 16/52/8 44/51/8 
f 5/58/9 7/57/9 8/56/9 18/55/9 13/54/9 
f 7/57/9 11/59/9 8/56/9 
f 5/61/10 13/52/10 19/60/10 
f 8/56/9 21/62/9 18/55/9 
f 27/48/11 37/47/11 41/46/11 6/45/11 2/44/11 
f 37/47/11 38/50/11 41/46/11 
f 42/53/12 27/52/12 2/51/12 
f 41/46/11 12/49/11 6/45/11 
f 31/58/13 46/57/13 35/56/13 29/55/13 24/54/13 
f 31/61/14 24/52/14 30/60/14 
f 35/56/13 36/62/13 29/55/13 
f 46/57/13 48/59/13 35/56/13 


